<ttFont>
    <TTGlyph name="A" xMin="-48" yMin="-4" xMax="1308" yMax="1380">
      <contour>
        <pt x="661" y="593" on="1"/>
        <pt x="740" y="593" on="1"/>
        <pt x="748" y="594" on="1"/>
        <pt x="888" y="599" on="1"/>
        <pt x="896" y="600" on="0"/>
        <pt x="903" y="600" on="1"/>
        <pt x="925" y="600" on="0"/>
        <pt x="925" y="624" on="1"/>
        <pt x="925" y="631" on="1"/>
        <pt x="923" y="647" on="0"/>
        <pt x="923" y="653" on="1"/>
        <pt x="923" y="830" on="0"/>
        <pt x="856" y="1098" on="1"/>
        <pt x="850" y="1123" on="0"/>
        <pt x="846" y="1123" on="1"/>
        <pt x="843" y="1123" on="1"/>
        <pt x="829" y="1123" on="0"/>
        <pt x="759" y="982" on="0"/>
        <pt x="740" y="951" on="1"/>
        <pt x="697" y="879" on="1"/>
        <pt x="692" y="872" on="1"/>
        <pt x="680" y="850" on="1"/>
        <pt x="675" y="843" on="1"/>
        <pt x="651" y="800" on="1"/>
        <pt x="614" y="735" on="0"/>
        <pt x="542" y="618" on="0"/>
        <pt x="542" y="610" on="1"/>
        <pt x="542" y="605" on="1"/>
        <pt x="542" y="593" on="0"/>
      </contour>
      <contour>
        <pt x="305" y="142" on="1"/>
        <pt x="305" y="125" on="0"/>
        <pt x="341" y="65" on="0"/>
        <pt x="341" y="41" on="1"/>
        <pt x="341" y="-3" on="0"/>
        <pt x="128" y="-3" on="1"/>
        <pt x="67" y="-4" on="1"/>
        <pt x="-48" y="-4" on="0"/>
        <pt x="-48" y="25" on="1"/>
        <pt x="-48" y="44" on="1"/>
        <pt x="-48" y="73" on="0"/>
        <pt x="100" y="138" on="0"/>
        <pt x="135" y="189" on="1"/>
        <pt x="205" y="293" on="0"/>
        <pt x="346" y="532" on="0"/>
        <pt x="378" y="585" on="1"/>
        <pt x="427" y="663" on="1"/>
        <pt x="459" y="716" on="0"/>
        <pt x="515" y="807" on="0"/>
        <pt x="721" y="1169" on="0"/>
        <pt x="869" y="1380" on="0"/>
        <pt x="937" y="1380" on="1"/>
        <pt x="1042" y="1380" on="0"/>
        <pt x="1074" y="1057" on="1"/>
        <pt x="1080" y="1003" on="0"/>
        <pt x="1083" y="948" on="0"/>
        <pt x="1180" y="213" on="0"/>
        <pt x="1198" y="139" on="0"/>
        <pt x="1308" y="71" on="0"/>
        <pt x="1308" y="44" on="1"/>
        <pt x="1308" y="6" on="0"/>
        <pt x="1244" y="-1" on="1"/>
        <pt x="1234" y="-2" on="0"/>
        <pt x="857" y="-2" on="0"/>
        <pt x="857" y="35" on="1"/>
        <pt x="857" y="50" on="0"/>
        <pt x="926" y="117" on="0"/>
        <pt x="953" y="184" on="0"/>
        <pt x="953" y="436" on="0"/>
        <pt x="898" y="486" on="0"/>
        <pt x="501" y="486" on="0"/>
        <pt x="414" y="423" on="0"/>
        <pt x="305" y="196" on="0"/>
      </contour>
    </TTGlyph>
    <TTGlyph name="AE" xMin="-22" yMin="2" xMax="1866" yMax="1400">
      <contour>
        <pt x="719" y="650" on="1"/>
        <pt x="888" y="650" on="1"/>
        <pt x="954" y="650" on="0"/>
        <pt x="969" y="688" on="1"/>
        <pt x="994" y="753" on="0"/>
        <pt x="1017" y="936" on="1"/>
        <pt x="1052" y="1125" on="1"/>
        <pt x="1062" y="1178" on="0"/>
        <pt x="1062" y="1186" on="1"/>
        <pt x="1062" y="1193" on="1"/>
        <pt x="1062" y="1201" on="0"/>
        <pt x="1058" y="1201" on="1"/>
        <pt x="1034" y="1201" on="0"/>
        <pt x="900" y="1007" on="1"/>
        <pt x="861" y="950" on="0"/>
        <pt x="649" y="675" on="0"/>
        <pt x="649" y="663" on="1"/>
        <pt x="649" y="658" on="1"/>
        <pt x="649" y="650" on="0"/>
      </contour>
      <contour>
        <pt x="1228" y="940" on="1"/>
        <pt x="1228" y="879" on="0"/>
        <pt x="1309" y="794" on="0"/>
        <pt x="1398" y="794" on="0"/>
        <pt x="1432" y="806" on="1"/>
        <pt x="1467" y="823" on="1"/>
        <pt x="1530" y="854" on="0"/>
        <pt x="1540" y="854" on="1"/>
        <pt x="1578" y="854" on="0"/>
        <pt x="1618" y="801" on="0"/>
        <pt x="1618" y="756" on="1"/>
        <pt x="1618" y="627" on="0"/>
        <pt x="1572" y="578" on="1"/>
        <pt x="1540" y="560" on="1"/>
        <pt x="1529" y="560" on="0"/>
        <pt x="1392" y="650" on="0"/>
        <pt x="1324" y="650" on="1"/>
        <pt x="1210" y="650" on="0"/>
        <pt x="1165" y="585" on="1"/>
        <pt x="1148" y="560" on="0"/>
        <pt x="1097" y="345" on="0"/>
        <pt x="1097" y="152" on="0"/>
        <pt x="1141" y="128" on="1"/>
        <pt x="1172" y="111" on="0"/>
        <pt x="1396" y="111" on="0"/>
        <pt x="1496" y="142" on="1"/>
        <pt x="1536" y="154" on="0"/>
        <pt x="1724" y="285" on="0"/>
        <pt x="1758" y="285" on="0"/>
        <pt x="1758" y="259" on="1"/>
        <pt x="1758" y="194" on="0"/>
        <pt x="1706" y="93" on="1"/>
        <pt x="1681" y="44" on="0"/>
        <pt x="1597" y="2" on="0"/>
        <pt x="1397" y="2" on="1"/>
        <pt x="1230" y="2" on="1"/>
        <pt x="1174" y="3" on="1"/>
        <pt x="893" y="3" on="0"/>
        <pt x="768" y="30" on="0"/>
        <pt x="768" y="78" on="1"/>
        <pt x="768" y="83" on="0"/>
        <pt x="845" y="194" on="0"/>
        <pt x="908" y="361" on="0"/>
        <pt x="908" y="448" on="1"/>
        <pt x="908" y="508" on="0"/>
        <pt x="841" y="528" on="1"/>
        <pt x="804" y="539" on="0"/>
        <pt x="587" y="539" on="0"/>
        <pt x="463" y="420" on="0"/>
        <pt x="310" y="178" on="0"/>
        <pt x="310" y="116" on="0"/>
        <pt x="347" y="55" on="0"/>
        <pt x="347" y="34" on="1"/>
        <pt x="347" y="3" on="0"/>
        <pt x="-22" y="3" on="0"/>
        <pt x="-22" y="40" on="1"/>
        <pt x="-22" y="84" on="0"/>
        <pt x="153" y="190" on="0"/>
        <pt x="209" y="259" on="1"/>
        <pt x="524" y="648" on="0"/>
        <pt x="836" y="1088" on="1"/>
        <pt x="876" y="1144" on="0"/>
        <pt x="941" y="1347" on="0"/>
        <pt x="950" y="1356" on="1"/>
        <pt x="998" y="1400" on="0"/>
        <pt x="1170" y="1400" on="1"/>
        <pt x="1221" y="1400" on="1"/>
        <pt x="1272" y="1399" on="1"/>
        <pt x="1604" y="1400" on="1"/>
        <pt x="1754" y="1400" on="0"/>
        <pt x="1797" y="1378" on="1"/>
        <pt x="1866" y="1343" on="0"/>
        <pt x="1866" y="1169" on="0"/>
        <pt x="1825" y="1169" on="1"/>
        <pt x="1823" y="1169" on="0"/>
        <pt x="1760" y="1211" on="0"/>
        <pt x="1519" y="1279" on="0"/>
        <pt x="1464" y="1279" on="1"/>
        <pt x="1376" y="1279" on="0"/>
        <pt x="1317" y="1202" on="1"/>
        <pt x="1228" y="1086" on="0"/>
      </contour>
    </TTGlyph>
    <TTGlyph name="Aacute" xMin="98" yMin="160" xMax="1349" yMax="1794">
      <contour>
        <pt x="627" y="614" on="1"/>
        <pt x="739" y="614" on="1"/>
        <pt x="747" y="615" on="1"/>
        <pt x="865" y="619" on="1"/>
        <pt x="873" y="620" on="0"/>
        <pt x="880" y="620" on="1"/>
        <pt x="910" y="620" on="0"/>
        <pt x="910" y="645" on="1"/>
        <pt x="910" y="666" on="1"/>
        <pt x="907" y="696" on="1"/>
        <pt x="903" y="725" on="1"/>
        <pt x="899" y="755" on="0"/>
        <pt x="899" y="763" on="1"/>
        <pt x="899" y="980" on="0"/>
        <pt x="845" y="1128" on="1"/>
        <pt x="838" y="1148" on="0"/>
        <pt x="828" y="1148" on="0"/>
        <pt x="722" y="963" on="1"/>
        <pt x="696" y="920" on="1"/>
        <pt x="682" y="895" on="0"/>
        <pt x="653" y="849" on="0"/>
        <pt x="528" y="630" on="0"/>
        <pt x="528" y="629" on="1"/>
        <pt x="528" y="614" on="0"/>
      </contour>
      <contour>
        <pt x="751" y="1420" on="1"/>
        <pt x="751" y="1446" on="1"/>
        <pt x="751" y="1472" on="0"/>
        <pt x="1024" y="1722" on="1"/>
        <pt x="1103" y="1794" on="0"/>
        <pt x="1158" y="1794" on="1"/>
        <pt x="1165" y="1794" on="1"/>
        <pt x="1174" y="1794" on="0"/>
        <pt x="1226" y="1727" on="0"/>
        <pt x="1226" y="1701" on="1"/>
        <pt x="1226" y="1687" on="1"/>
        <pt x="1226" y="1617" on="0"/>
        <pt x="1154" y="1536" on="1"/>
        <pt x="1148" y="1529" on="0"/>
        <pt x="998" y="1473" on="0"/>
        <pt x="990" y="1473" on="1"/>
        <pt x="990" y="1473" on="0"/>
        <pt x="988" y="1473" on="1"/>
        <pt x="937" y="1473" on="0"/>
        <pt x="781" y="1383" on="0"/>
        <pt x="775" y="1383" on="1"/>
        <pt x="768" y="1384" on="1"/>
        <pt x="751" y="1384" on="0"/>
      </contour>
      <contour>
        <pt x="389" y="331" on="0"/>
        <pt x="389" y="280" on="0"/>
        <pt x="431" y="212" on="0"/>
        <pt x="431" y="207" on="1"/>
        <pt x="431" y="160" on="0"/>
        <pt x="336" y="160" on="1"/>
        <pt x="286" y="160" on="1"/>
        <pt x="260" y="161" on="1"/>
        <pt x="233" y="161" on="1"/>
        <pt x="98" y="161" on="0"/>
        <pt x="98" y="198" on="1"/>
        <pt x="98" y="230" on="0"/>
        <pt x="227" y="296" on="0"/>
        <pt x="268" y="353" on="0"/>
        <pt x="823" y="1306" on="0"/>
        <pt x="834" y="1322" on="1"/>
        <pt x="922" y="1458" on="0"/>
        <pt x="976" y="1458" on="1"/>
        <pt x="1021" y="1458" on="0"/>
        <pt x="1061" y="1299" on="1"/>
        <pt x="1073" y="1252" on="0"/>
        <pt x="1186" y="678" on="0"/>
        <pt x="1239" y="351" on="0"/>
        <pt x="1260" y="296" on="0"/>
        <pt x="1349" y="242" on="0"/>
        <pt x="1349" y="222" on="1"/>
        <pt x="1349" y="184" on="0"/>
        <pt x="1295" y="174" on="1"/>
        <pt x="1279" y="171" on="0"/>
        <pt x="1158" y="171" on="1"/>
        <pt x="1078" y="171" on="1"/>
        <pt x="1053" y="172" on="0"/>
        <pt x="1030" y="172" on="1"/>
        <pt x="948" y="172" on="0"/>
        <pt x="948" y="219" on="0"/>
        <pt x="1016" y="299" on="0"/>
        <pt x="1016" y="363" on="1"/>
        <pt x="1016" y="536" on="0"/>
        <pt x="971" y="584" on="1"/>
        <pt x="952" y="604" on="0"/>
        <pt x="566" y="604" on="0"/>
        <pt x="532" y="572" on="1"/>
        <pt x="511" y="552" on="0"/>
      </contour>
    </TTGlyph>
    <TTGlyph name="Acircumflex" xMin="-57" yMin="3" xMax="1293" yMax="1844">
      <contour>
        <pt x="896" y="616" on="1"/>
        <pt x="919" y="616" on="0"/>
        <pt x="919" y="647" on="1"/>
        <pt x="919" y="654" on="1"/>
        <pt x="912" y="720" on="1"/>
        <pt x="907" y="758" on="1"/>
        <pt x="903" y="788" on="0"/>
        <pt x="903" y="821" on="0"/>
        <pt x="870" y="1008" on="0"/>
        <pt x="870" y="1046" on="1"/>
        <pt x="870" y="1143" on="0"/>
        <pt x="842" y="1143" on="1"/>
        <pt x="836" y="1143" on="0"/>
        <pt x="691" y="889" on="0"/>
        <pt x="537" y="638" on="0"/>
        <pt x="537" y="624" on="1"/>
        <pt x="537" y="619" on="1"/>
        <pt x="537" y="609" on="0"/>
        <pt x="667" y="609" on="1"/>
        <pt x="740" y="609" on="1"/>
        <pt x="748" y="610" on="1"/>
        <pt x="858" y="613" on="1"/>
        <pt x="882" y="616" on="0"/>
      </contour>
      <contour>
        <pt x="1010" y="1844" on="1"/>
        <pt x="1017" y="1844" on="1"/>
        <pt x="1058" y="1844" on="0"/>
        <pt x="1110" y="1763" on="1"/>
        <pt x="1238" y="1564" on="0"/>
        <pt x="1238" y="1554" on="1"/>
        <pt x="1238" y="1521" on="0"/>
        <pt x="1168" y="1521" on="0"/>
        <pt x="992" y="1682" on="0"/>
        <pt x="978" y="1682" on="1"/>
        <pt x="977" y="1682" on="0"/>
        <pt x="730" y="1523" on="0"/>
        <pt x="670" y="1523" on="0"/>
        <pt x="670" y="1541" on="1"/>
        <pt x="670" y="1548" on="1"/>
        <pt x="670" y="1561" on="0"/>
        <pt x="979" y="1844" on="0"/>
      </contour>
      <contour>
        <pt x="281" y="155" on="1"/>
        <pt x="281" y="141" on="0"/>
        <pt x="328" y="69" on="0"/>
        <pt x="328" y="54" on="1"/>
        <pt x="328" y="22" on="0"/>
        <pt x="247" y="4" on="0"/>
        <pt x="96" y="4" on="1"/>
        <pt x="65" y="3" on="1"/>
        <pt x="-57" y="3" on="0"/>
        <pt x="-57" y="45" on="1"/>
        <pt x="-57" y="81" on="0"/>
        <pt x="86" y="144" on="0"/>
        <pt x="155" y="236" on="0"/>
        <pt x="377" y="605" on="0"/>
        <pt x="520" y="829" on="0"/>
        <pt x="740" y="1193" on="0"/>
        <pt x="883" y="1402" on="0"/>
        <pt x="943" y="1402" on="1"/>
        <pt x="975" y="1402" on="0"/>
        <pt x="1027" y="1328" on="0"/>
        <pt x="1050" y="1215" on="1"/>
        <pt x="1052" y="1205" on="0"/>
        <pt x="1166" y="227" on="0"/>
        <pt x="1185" y="145" on="0"/>
        <pt x="1293" y="74" on="0"/>
        <pt x="1293" y="54" on="1"/>
        <pt x="1293" y="14" on="0"/>
        <pt x="1232" y="6" on="1"/>
        <pt x="1080" y="6" on="1"/>
        <pt x="846" y="6" on="0"/>
        <pt x="846" y="41" on="1"/>
        <pt x="846" y="58" on="0"/>
        <pt x="918" y="126" on="0"/>
        <pt x="944" y="186" on="0"/>
        <pt x="944" y="445" on="0"/>
        <pt x="915" y="480" on="1"/>
        <pt x="895" y="504" on="0"/>
        <pt x="481" y="504" on="0"/>
        <pt x="433" y="457" on="1"/>
        <pt x="405" y="430" on="0"/>
        <pt x="281" y="199" on="0"/>
      </contour>
    </TTGlyph>
    <TTGlyph name="Adieresis" xMin="-23" yMin="45" xMax="1293" yMax="1779">
      <contour>
        <pt x="906" y="641" on="1"/>
        <pt x="906" y="662" on="1"/>
        <pt x="903" y="683" on="0"/>
        <pt x="903" y="691" on="1"/>
        <pt x="895" y="758" on="1"/>
        <pt x="895" y="976" on="0"/>
        <pt x="841" y="1124" on="1"/>
        <pt x="834" y="1144" on="0"/>
        <pt x="824" y="1144" on="0"/>
        <pt x="748" y="1010" on="0"/>
        <pt x="524" y="646" on="0"/>
        <pt x="524" y="625" on="1"/>
        <pt x="524" y="610" on="0"/>
        <pt x="608" y="610" on="1"/>
        <pt x="751" y="610" on="1"/>
        <pt x="759" y="611" on="1"/>
        <pt x="845" y="614" on="1"/>
        <pt x="876" y="616" on="1"/>
        <pt x="906" y="616" on="0"/>
      </contour>
      <contour>
        <pt x="773" y="1779" on="1"/>
        <pt x="794" y="1779" on="1"/>
        <pt x="827" y="1779" on="0"/>
        <pt x="879" y="1727" on="0"/>
        <pt x="879" y="1709" on="1"/>
        <pt x="884" y="1677" on="1"/>
        <pt x="884" y="1674" on="1"/>
        <pt x="879" y="1642" on="1"/>
        <pt x="879" y="1621" on="0"/>
        <pt x="813" y="1555" on="0"/>
        <pt x="778" y="1555" on="1"/>
        <pt x="754" y="1555" on="1"/>
        <pt x="720" y="1555" on="0"/>
        <pt x="664" y="1611" on="0"/>
        <pt x="664" y="1649" on="1"/>
        <pt x="664" y="1660" on="1"/>
        <pt x="669" y="1691" on="1"/>
        <pt x="669" y="1713" on="0"/>
        <pt x="735" y="1779" on="0"/>
      </contour>
      <contour>
        <pt x="1160" y="1528" on="1"/>
        <pt x="1148" y="1528" on="1"/>
        <pt x="1145" y="1529" on="1"/>
        <pt x="1139" y="1529" on="1"/>
        <pt x="1135" y="1530" on="1"/>
        <pt x="1127" y="1530" on="1"/>
        <pt x="994" y="1530" on="0"/>
        <pt x="994" y="1623" on="1"/>
        <pt x="994" y="1631" on="1"/>
        <pt x="994" y="1679" on="0"/>
        <pt x="1114" y="1765" on="0"/>
        <pt x="1164" y="1765" on="1"/>
        <pt x="1184" y="1765" on="1"/>
        <pt x="1242" y="1765" on="0"/>
        <pt x="1242" y="1693" on="1"/>
        <pt x="1246" y="1677" on="0"/>
        <pt x="1246" y="1672" on="1"/>
        <pt x="1246" y="1647" on="1"/>
        <pt x="1242" y="1621" on="1"/>
        <pt x="1243" y="1610" on="1"/>
        <pt x="1243" y="1587" on="0"/>
        <pt x="1172" y="1528" on="0"/>
      </contour>
      <contour>
        <pt x="346" y="96" on="1"/>
        <pt x="346" y="63" on="0"/>
        <pt x="274" y="46" on="0"/>
        <pt x="123" y="46" on="1"/>
        <pt x="94" y="45" on="1"/>
        <pt x="-23" y="45" on="0"/>
        <pt x="-23" y="87" on="1"/>
        <pt x="-23" y="120" on="0"/>
        <pt x="117" y="186" on="0"/>
        <pt x="147" y="228" on="1"/>
        <pt x="151" y="234" on="0"/>
        <pt x="460" y="742" on="1"/>
        <pt x="784" y="1275" on="1"/>
        <pt x="877" y="1415" on="0"/>
        <pt x="939" y="1415" on="1"/>
        <pt x="968" y="1415" on="0"/>
        <pt x="1015" y="1346" on="0"/>
        <pt x="1040" y="1227" on="1"/>
        <pt x="1040" y="1225" on="0"/>
        <pt x="1172" y="257" on="0"/>
        <pt x="1191" y="183" on="0"/>
        <pt x="1228" y="158" on="1"/>
        <pt x="1293" y="115" on="0"/>
        <pt x="1293" y="96" on="1"/>
        <pt x="1293" y="56" on="0"/>
        <pt x="1235" y="48" on="1"/>
        <pt x="1227" y="47" on="0"/>
        <pt x="860" y="47" on="0"/>
        <pt x="860" y="80" on="1"/>
        <pt x="860" y="88" on="0"/>
        <pt x="916" y="152" on="1"/>
        <pt x="951" y="192" on="0"/>
        <pt x="951" y="264" on="1"/>
        <pt x="951" y="467" on="0"/>
        <pt x="917" y="507" on="1"/>
        <pt x="897" y="530" on="0"/>
        <pt x="510" y="530" on="0"/>
        <pt x="435" y="482" on="0"/>
        <pt x="300" y="237" on="0"/>
        <pt x="300" y="176" on="0"/>
        <pt x="346" y="107" on="0"/>
      </contour>
    </TTGlyph>
    <TTGlyph name="Agrave" xMin="-56" yMin="8" xMax="1295" yMax="1839">
      <contour>
        <pt x="637" y="614" on="1"/>
        <pt x="757" y="614" on="1"/>
        <pt x="765" y="615" on="1"/>
        <pt x="874" y="619" on="1"/>
        <pt x="882" y="620" on="0"/>
        <pt x="889" y="620" on="1"/>
        <pt x="920" y="620" on="0"/>
        <pt x="920" y="645" on="1"/>
        <pt x="920" y="666" on="1"/>
        <pt x="916" y="703" on="1"/>
        <pt x="911" y="740" on="1"/>
        <pt x="907" y="770" on="0"/>
        <pt x="907" y="778" on="1"/>
        <pt x="894" y="880" on="1"/>
        <pt x="891" y="894" on="0"/>
        <pt x="891" y="897" on="1"/>
        <pt x="875" y="1019" on="1"/>
        <pt x="875" y="1148" on="0"/>
        <pt x="844" y="1148" on="1"/>
        <pt x="838" y="1148" on="0"/>
        <pt x="749" y="992" on="0"/>
        <pt x="721" y="949" on="0"/>
        <pt x="697" y="904" on="0"/>
        <pt x="671" y="863" on="0"/>
        <pt x="538" y="630" on="0"/>
        <pt x="538" y="629" on="1"/>
        <pt x="538" y="624" on="1"/>
        <pt x="538" y="614" on="0"/>
      </contour>
      <contour>
        <pt x="669" y="1770" on="1"/>
        <pt x="669" y="1784" on="1"/>
        <pt x="669" y="1839" on="0"/>
        <pt x="763" y="1839" on="1"/>
        <pt x="783" y="1839" on="1"/>
        <pt x="821" y="1839" on="0"/>
        <pt x="1040" y="1588" on="0"/>
        <pt x="1040" y="1555" on="1"/>
        <pt x="1040" y="1546" on="1"/>
        <pt x="1040" y="1517" on="0"/>
        <pt x="1011" y="1517" on="1"/>
        <pt x="1007" y="1517" on="1"/>
        <pt x="957" y="1517" on="0"/>
        <pt x="776" y="1658" on="1"/>
        <pt x="669" y="1741" on="0"/>
      </contour>
      <contour>
        <pt x="282" y="199" on="0"/>
        <pt x="282" y="145" on="0"/>
        <pt x="330" y="72" on="0"/>
        <pt x="330" y="59" on="1"/>
        <pt x="330" y="25" on="0"/>
        <pt x="243" y="8" on="0"/>
        <pt x="128" y="8" on="1"/>
        <pt x="66" y="8" on="1"/>
        <pt x="-56" y="8" on="0"/>
        <pt x="-56" y="50" on="1"/>
        <pt x="-56" y="86" on="0"/>
        <pt x="87" y="148" on="0"/>
        <pt x="163" y="252" on="0"/>
        <pt x="381" y="613" on="0"/>
        <pt x="559" y="893" on="0"/>
        <pt x="718" y="1166" on="0"/>
        <pt x="785" y="1262" on="1"/>
        <pt x="885" y="1406" on="0"/>
        <pt x="945" y="1406" on="1"/>
        <pt x="1012" y="1406" on="0"/>
        <pt x="1044" y="1250" on="1"/>
        <pt x="1054" y="1198" on="0"/>
        <pt x="1169" y="224" on="0"/>
        <pt x="1186" y="150" on="0"/>
        <pt x="1295" y="81" on="0"/>
        <pt x="1295" y="58" on="1"/>
        <pt x="1295" y="19" on="0"/>
        <pt x="1233" y="11" on="1"/>
        <pt x="1225" y="10" on="0"/>
        <pt x="847" y="10" on="0"/>
        <pt x="847" y="45" on="1"/>
        <pt x="847" y="62" on="0"/>
        <pt x="921" y="131" on="0"/>
        <pt x="945" y="189" on="0"/>
        <pt x="945" y="449" on="0"/>
        <pt x="916" y="485" on="1"/>
        <pt x="897" y="509" on="0"/>
        <pt x="482" y="509" on="0"/>
        <pt x="434" y="462" on="1"/>
        <pt x="402" y="431" on="0"/>
      </contour>
    </TTGlyph>
    <TTGlyph name="Aring" xMin="-38" yMin="4" xMax="1302" yMax="1862">
      <contour>
        <pt x="977" y="1781" on="0"/>
        <pt x="946" y="1781" on="0"/>
        <pt x="888" y="1709" on="0"/>
        <pt x="888" y="1677" on="1"/>
        <pt x="888" y="1653" on="1"/>
        <pt x="889" y="1649" on="1"/>
        <pt x="889" y="1642" on="1"/>
        <pt x="891" y="1636" on="0"/>
        <pt x="891" y="1607" on="0"/>
        <pt x="944" y="1564" on="0"/>
        <pt x="958" y="1564" on="1"/>
        <pt x="978" y="1561" on="1"/>
        <pt x="985" y="1561" on="1"/>
        <pt x="994" y="1564" on="0"/>
        <pt x="1023" y="1564" on="0"/>
        <pt x="1087" y="1628" on="0"/>
        <pt x="1087" y="1676" on="1"/>
        <pt x="1087" y="1696" on="1"/>
        <pt x="1084" y="1708" on="0"/>
        <pt x="1084" y="1733" on="0"/>
        <pt x="1033" y="1784" on="0"/>
        <pt x="1006" y="1784" on="1"/>
        <pt x="986" y="1784" on="1"/>
      </contour>
      <contour>
        <pt x="624" y="613" on="1"/>
        <pt x="800" y="613" on="1"/>
        <pt x="808" y="614" on="1"/>
        <pt x="878" y="617" on="1"/>
        <pt x="886" y="618" on="0"/>
        <pt x="893" y="618" on="1"/>
        <pt x="941" y="618" on="0"/>
        <pt x="941" y="650" on="1"/>
        <pt x="941" y="664" on="1"/>
        <pt x="937" y="701" on="1"/>
        <pt x="933" y="730" on="1"/>
        <pt x="930" y="753" on="0"/>
        <pt x="930" y="760" on="1"/>
        <pt x="930" y="970" on="0"/>
        <pt x="875" y="1121" on="1"/>
        <pt x="866" y="1145" on="0"/>
        <pt x="861" y="1145" on="1"/>
        <pt x="858" y="1145" on="1"/>
        <pt x="854" y="1145" on="0"/>
        <pt x="788" y="1029" on="0"/>
        <pt x="553" y="647" on="0"/>
        <pt x="553" y="626" on="1"/>
        <pt x="553" y="613" on="0"/>
      </contour>
      <contour>
        <pt x="798" y="1687" on="1"/>
        <pt x="798" y="1740" on="0"/>
        <pt x="920" y="1862" on="0"/>
        <pt x="994" y="1862" on="1"/>
        <pt x="1019" y="1862" on="1"/>
        <pt x="1077" y="1862" on="0"/>
        <pt x="1180" y="1770" on="0"/>
        <pt x="1180" y="1702" on="1"/>
        <pt x="1180" y="1689" on="1"/>
        <pt x="1180" y="1609" on="0"/>
        <pt x="1055" y="1484" on="0"/>
        <pt x="980" y="1484" on="1"/>
        <pt x="949" y="1484" on="1"/>
        <pt x="885" y="1484" on="0"/>
        <pt x="796" y="1584" on="0"/>
        <pt x="796" y="1638" on="1"/>
        <pt x="796" y="1669" on="1"/>
        <pt x="798" y="1681" on="0"/>
      </contour>
      <contour>
        <pt x="293" y="161" on="1"/>
        <pt x="293" y="150" on="0"/>
        <pt x="341" y="73" on="0"/>
        <pt x="341" y="56" on="1"/>
        <pt x="341" y="22" on="0"/>
        <pt x="243" y="4" on="0"/>
        <pt x="83" y="4" on="1"/>
        <pt x="22" y="4" on="1"/>
        <pt x="-38" y="4" on="0"/>
        <pt x="-38" y="45" on="1"/>
        <pt x="-38" y="81" on="0"/>
        <pt x="98" y="134" on="0"/>
        <pt x="138" y="189" on="1"/>
        <pt x="141" y="194" on="0"/>
        <pt x="626" y="965" on="0"/>
        <pt x="744" y="1161" on="0"/>
        <pt x="805" y="1252" on="1"/>
        <pt x="903" y="1397" on="0"/>
        <pt x="1027" y="1397" on="0"/>
        <pt x="1066" y="1207" on="1"/>
        <pt x="1071" y="1184" on="0"/>
        <pt x="1182" y="211" on="0"/>
        <pt x="1187" y="193" on="1"/>
        <pt x="1200" y="143" on="0"/>
        <pt x="1302" y="78" on="0"/>
        <pt x="1302" y="50" on="1"/>
        <pt x="1302" y="8" on="0"/>
        <pt x="868" y="8" on="0"/>
        <pt x="868" y="48" on="1"/>
        <pt x="868" y="68" on="0"/>
        <pt x="968" y="138" on="0"/>
        <pt x="968" y="214" on="1"/>
        <pt x="968" y="458" on="0"/>
        <pt x="931" y="494" on="1"/>
        <pt x="910" y="514" on="0"/>
        <pt x="506" y="514" on="0"/>
        <pt x="451" y="462" on="1"/>
        <pt x="413" y="426" on="0"/>
        <pt x="293" y="206" on="0"/>
      </contour>
    </TTGlyph>
    <TTGlyph name="Atilde" xMin="-56" yMin="4" xMax="1309" yMax="1776">
      <contour>
        <pt x="637" y="610" on="1"/>
        <pt x="749" y="610" on="1"/>
        <pt x="757" y="611" on="1"/>
        <pt x="874" y="615" on="1"/>
        <pt x="882" y="616" on="0"/>
        <pt x="889" y="616" on="1"/>
        <pt x="920" y="616" on="0"/>
        <pt x="920" y="641" on="1"/>
        <pt x="920" y="662" on="1"/>
        <pt x="915" y="702" on="0"/>
        <pt x="915" y="706" on="1"/>
        <pt x="911" y="736" on="1"/>
        <pt x="907" y="766" on="0"/>
        <pt x="907" y="774" on="1"/>
        <pt x="894" y="876" on="1"/>
        <pt x="891" y="893" on="1"/>
        <pt x="888" y="918" on="1"/>
        <pt x="881" y="962" on="0"/>
        <pt x="875" y="999" on="0"/>
        <pt x="875" y="1015" on="1"/>
        <pt x="875" y="1144" on="0"/>
        <pt x="844" y="1144" on="1"/>
        <pt x="837" y="1144" on="0"/>
        <pt x="740" y="974" on="0"/>
        <pt x="721" y="945" on="0"/>
        <pt x="697" y="900" on="0"/>
        <pt x="671" y="859" on="0"/>
        <pt x="538" y="626" on="0"/>
        <pt x="538" y="625" on="1"/>
        <pt x="538" y="620" on="1"/>
        <pt x="538" y="610" on="0"/>
      </contour>
      <contour>
        <pt x="846" y="1776" on="1"/>
        <pt x="878" y="1776" on="1"/>
        <pt x="925" y="1776" on="0"/>
        <pt x="1074" y="1683" on="0"/>
        <pt x="1166" y="1683" on="0"/>
        <pt x="1275" y="1767" on="0"/>
        <pt x="1287" y="1767" on="1"/>
        <pt x="1309" y="1767" on="0"/>
        <pt x="1309" y="1742" on="1"/>
        <pt x="1309" y="1679" on="0"/>
        <pt x="1156" y="1549" on="0"/>
        <pt x="1096" y="1549" on="1"/>
        <pt x="1072" y="1549" on="1"/>
        <pt x="1018" y="1549" on="0"/>
        <pt x="867" y="1643" on="0"/>
        <pt x="775" y="1643" on="0"/>
        <pt x="722" y="1606" on="0"/>
        <pt x="676" y="1560" on="0"/>
        <pt x="660" y="1560" on="1"/>
        <pt x="631" y="1560" on="0"/>
        <pt x="631" y="1585" on="1"/>
        <pt x="631" y="1593" on="1"/>
        <pt x="631" y="1639" on="0"/>
        <pt x="780" y="1776" on="0"/>
      </contour>
      <contour>
        <pt x="282" y="195" on="0"/>
        <pt x="282" y="142" on="0"/>
        <pt x="329" y="68" on="0"/>
        <pt x="329" y="55" on="1"/>
        <pt x="329" y="22" on="0"/>
        <pt x="248" y="4" on="0"/>
        <pt x="128" y="4" on="1"/>
        <pt x="66" y="4" on="1"/>
        <pt x="-56" y="4" on="0"/>
        <pt x="-56" y="46" on="1"/>
        <pt x="-56" y="82" on="0"/>
        <pt x="89" y="145" on="0"/>
        <pt x="120" y="189" on="1"/>
        <pt x="170" y="260" on="0"/>
        <pt x="381" y="609" on="0"/>
        <pt x="546" y="869" on="0"/>
        <pt x="634" y="1019" on="0"/>
        <pt x="768" y="1233" on="1"/>
        <pt x="875" y="1403" on="0"/>
        <pt x="945" y="1403" on="1"/>
        <pt x="945" y="1403" on="0"/>
        <pt x="946" y="1403" on="1"/>
        <pt x="1012" y="1403" on="0"/>
        <pt x="1044" y="1248" on="1"/>
        <pt x="1054" y="1196" on="0"/>
        <pt x="1169" y="220" on="0"/>
        <pt x="1186" y="147" on="0"/>
        <pt x="1295" y="75" on="0"/>
        <pt x="1295" y="54" on="1"/>
        <pt x="1295" y="15" on="0"/>
        <pt x="1233" y="7" on="1"/>
        <pt x="1225" y="6" on="0"/>
        <pt x="847" y="6" on="0"/>
        <pt x="847" y="42" on="1"/>
        <pt x="847" y="58" on="0"/>
        <pt x="921" y="127" on="0"/>
        <pt x="945" y="185" on="0"/>
        <pt x="945" y="445" on="0"/>
        <pt x="916" y="481" on="1"/>
        <pt x="897" y="505" on="0"/>
        <pt x="482" y="505" on="0"/>
        <pt x="434" y="458" on="1"/>
        <pt x="402" y="427" on="0"/>
      </contour>
    </TTGlyph>
    <TTGlyph name="B" xMin="27" yMin="-7" xMax="1220" yMax="1384">
      <contour>
        <pt x="588" y="768" on="1"/>
        <pt x="622" y="768" on="1"/>
        <pt x="631" y="769" on="1"/>
        <pt x="701" y="771" on="1"/>
        <pt x="710" y="772" on="0"/>
        <pt x="719" y="772" on="1"/>
        <pt x="831" y="772" on="0"/>
        <pt x="1011" y="937" on="0"/>
        <pt x="1011" y="1053" on="1"/>
        <pt x="1011" y="1080" on="1"/>
        <pt x="1011" y="1173" on="0"/>
        <pt x="881" y="1281" on="0"/>
        <pt x="774" y="1281" on="1"/>
        <pt x="720" y="1281" on="1"/>
        <pt x="631" y="1281" on="0"/>
        <pt x="597" y="1209" on="0"/>
        <pt x="564" y="1020" on="1"/>
        <pt x="562" y="1011" on="1"/>
        <pt x="559" y="994" on="1"/>
        <pt x="557" y="986" on="1"/>
        <pt x="553" y="961" on="1"/>
        <pt x="550" y="944" on="1"/>
        <pt x="548" y="935" on="1"/>
        <pt x="546" y="927" on="1"/>
        <pt x="540" y="893" on="1"/>
        <pt x="525" y="811" on="1"/>
        <pt x="525" y="789" on="1"/>
        <pt x="525" y="768" on="0"/>
      </contour>
      <contour>
        <pt x="567" y="667" on="1"/>
        <pt x="505" y="667" on="0"/>
        <pt x="491" y="631" on="1"/>
        <pt x="489" y="626" on="0"/>
        <pt x="457" y="474" on="0"/>
        <pt x="448" y="415" on="0"/>
        <pt x="399" y="184" on="0"/>
        <pt x="399" y="145" on="1"/>
        <pt x="399" y="99" on="0"/>
        <pt x="484" y="99" on="1"/>
        <pt x="493" y="98" on="1"/>
        <pt x="503" y="97" on="1"/>
        <pt x="543" y="96" on="1"/>
        <pt x="593" y="96" on="1"/>
        <pt x="743" y="96" on="0"/>
        <pt x="836" y="169" on="1"/>
        <pt x="956" y="265" on="0"/>
        <pt x="956" y="407" on="1"/>
        <pt x="956" y="437" on="1"/>
        <pt x="956" y="542" on="0"/>
        <pt x="795" y="669" on="0"/>
        <pt x="655" y="669" on="1"/>
        <pt x="595" y="669" on="1"/>
        <pt x="575" y="667" on="0"/>
      </contour>
      <contour>
        <pt x="378" y="1152" on="0"/>
        <pt x="378" y="1256" on="0"/>
        <pt x="341" y="1280" on="1"/>
        <pt x="275" y="1323" on="0"/>
        <pt x="275" y="1334" on="1"/>
        <pt x="275" y="1368" on="0"/>
        <pt x="395" y="1384" on="0"/>
        <pt x="623" y="1384" on="1"/>
        <pt x="806" y="1384" on="1"/>
        <pt x="1115" y="1384" on="0"/>
        <pt x="1196" y="1205" on="1"/>
        <pt x="1220" y="1152" on="0"/>
        <pt x="1220" y="979" on="0"/>
        <pt x="1114" y="833" on="0"/>
        <pt x="1048" y="789" on="1"/>
        <pt x="952" y="725" on="1"/>
        <pt x="952" y="722" on="0"/>
        <pt x="984" y="704" on="1"/>
        <pt x="1083" y="650" on="0"/>
        <pt x="1170" y="512" on="0"/>
        <pt x="1170" y="418" on="1"/>
        <pt x="1170" y="218" on="0"/>
        <pt x="995" y="96" on="1"/>
        <pt x="930" y="50" on="0"/>
        <pt x="725" y="-7" on="0"/>
        <pt x="605" y="-7" on="1"/>
        <pt x="448" y="-7" on="1"/>
        <pt x="421" y="-6" on="1"/>
        <pt x="318" y="-6" on="1"/>
        <pt x="27" y="-6" on="0"/>
        <pt x="27" y="27" on="1"/>
        <pt x="27" y="49" on="0"/>
        <pt x="119" y="99" on="1"/>
        <pt x="173" y="128" on="0"/>
        <pt x="196" y="205" on="1"/>
        <pt x="232" y="327" on="0"/>
      </contour>
    </TTGlyph>
    <TTGlyph name="C" xMin="124" yMin="-20" xMax="1344" yMax="1397">
      <contour>
        <pt x="908" y="1397" on="1"/>
        <pt x="939" y="1397" on="0"/>
        <pt x="1288" y="1341" on="0"/>
        <pt x="1297" y="1336" on="1"/>
        <pt x="1344" y="1310" on="0"/>
        <pt x="1344" y="1100" on="0"/>
        <pt x="1306" y="1047" on="1"/>
        <pt x="1294" y="1031" on="0"/>
        <pt x="1273" y="1031" on="1"/>
        <pt x="1263" y="1031" on="0"/>
        <pt x="1134" y="1208" on="0"/>
        <pt x="998" y="1280" on="0"/>
        <pt x="891" y="1280" on="1"/>
        <pt x="680" y="1280" on="0"/>
        <pt x="507" y="1056" on="1"/>
        <pt x="434" y="961" on="0"/>
        <pt x="347" y="687" on="0"/>
        <pt x="347" y="557" on="1"/>
        <pt x="347" y="367" on="0"/>
        <pt x="433" y="248" on="1"/>
        <pt x="533" y="110" on="0"/>
        <pt x="721" y="110" on="1"/>
        <pt x="890" y="110" on="0"/>
        <pt x="1057" y="250" on="1"/>
        <pt x="1125" y="308" on="0"/>
        <pt x="1155" y="308" on="1"/>
        <pt x="1156" y="308" on="1"/>
        <pt x="1186" y="308" on="0"/>
        <pt x="1185" y="237" on="0"/>
        <pt x="1106" y="88" on="0"/>
        <pt x="1025" y="36" on="0"/>
        <pt x="760" y="-20" on="0"/>
        <pt x="554" y="-20" on="0"/>
        <pt x="456" y="19" on="1"/>
        <pt x="246" y="103" on="0"/>
        <pt x="165" y="310" on="1"/>
        <pt x="124" y="414" on="0"/>
        <pt x="124" y="537" on="1"/>
        <pt x="124" y="571" on="1"/>
        <pt x="124" y="728" on="0"/>
        <pt x="190" y="884" on="1"/>
        <pt x="326" y="1202" on="0"/>
        <pt x="622" y="1335" on="1"/>
        <pt x="760" y="1397" on="0"/>
      </contour>
    </TTGlyph>
    <TTGlyph name="Ccedilla" xMin="72" yMin="-416" xMax="1384" yMax="1404">
      <contour>
        <pt x="72" y="518" on="1"/>
        <pt x="72" y="588" on="1"/>
        <pt x="72" y="730" on="0"/>
        <pt x="140" y="892" on="1"/>
        <pt x="280" y="1224" on="0"/>
        <pt x="611" y="1350" on="1"/>
        <pt x="753" y="1404" on="0"/>
        <pt x="910" y="1404" on="1"/>
        <pt x="1146" y="1404" on="0"/>
        <pt x="1296" y="1329" on="1"/>
        <pt x="1329" y="1313" on="0"/>
        <pt x="1384" y="1206" on="0"/>
        <pt x="1384" y="1155" on="1"/>
        <pt x="1384" y="1050" on="0"/>
        <pt x="1333" y="1050" on="1"/>
        <pt x="1320" y="1050" on="0"/>
        <pt x="1184" y="1196" on="0"/>
        <pt x="1124" y="1223" on="1"/>
        <pt x="1020" y="1269" on="0"/>
        <pt x="753" y="1269" on="0"/>
        <pt x="648" y="1213" on="1"/>
        <pt x="430" y="1096" on="0"/>
        <pt x="344" y="820" on="1"/>
        <pt x="306" y="696" on="0"/>
        <pt x="306" y="578" on="1"/>
        <pt x="306" y="351" on="0"/>
        <pt x="417" y="222" on="1"/>
        <pt x="528" y="94" on="0"/>
        <pt x="707" y="94" on="1"/>
        <pt x="839" y="94" on="0"/>
        <pt x="970" y="146" on="1"/>
        <pt x="1027" y="169" on="0"/>
        <pt x="1186" y="311" on="0"/>
        <pt x="1226" y="311" on="0"/>
        <pt x="1226" y="257" on="0"/>
        <pt x="1131" y="72" on="0"/>
        <pt x="1082" y="33" on="0"/>
        <pt x="838" y="-39" on="0"/>
        <pt x="707" y="-39" on="1"/>
        <pt x="672" y="-39" on="1"/>
        <pt x="426" y="-39" on="0"/>
        <pt x="264" y="101" on="1"/>
        <pt x="173" y="180" on="0"/>
        <pt x="72" y="407" on="0"/>
      </contour>
      <contour>
        <pt x="735" y="-205" on="1"/>
        <pt x="735" y="-225" on="1"/>
        <pt x="735" y="-292" on="0"/>
        <pt x="597" y="-416" on="0"/>
        <pt x="503" y="-416" on="1"/>
        <pt x="470" y="-416" on="1"/>
        <pt x="417" y="-416" on="0"/>
        <pt x="417" y="-384" on="1"/>
        <pt x="417" y="-332" on="0"/>
        <pt x="476" y="-332" on="1"/>
        <pt x="514" y="-332" on="0"/>
        <pt x="581" y="-273" on="0"/>
        <pt x="581" y="-209" on="0"/>
        <pt x="522" y="-158" on="0"/>
        <pt x="522" y="-119" on="0"/>
        <pt x="561" y="-65" on="1"/>
        <pt x="579" y="-40" on="0"/>
        <pt x="604" y="-40" on="1"/>
        <pt x="610" y="-40" on="1"/>
        <pt x="616" y="-41" on="1"/>
        <pt x="644" y="-41" on="0"/>
        <pt x="644" y="-70" on="1"/>
        <pt x="644" y="-81" on="0"/>
        <pt x="735" y="-162" on="0"/>
      </contour>
    </TTGlyph>
    <TTGlyph name="D" xMin="38" yMin="-4" xMax="1427" yMax="1387">
      <contour>
        <pt x="798" y="1283" on="1"/>
        <pt x="763" y="1283" on="1"/>
        <pt x="637" y="1283" on="0"/>
        <pt x="610" y="1217" on="1"/>
        <pt x="592" y="1172" on="0"/>
        <pt x="546" y="920" on="1"/>
        <pt x="469" y="503" on="1"/>
        <pt x="462" y="470" on="1"/>
        <pt x="456" y="438" on="1"/>
        <pt x="406" y="171" on="0"/>
        <pt x="406" y="163" on="1"/>
        <pt x="406" y="148" on="1"/>
        <pt x="406" y="100" on="0"/>
        <pt x="548" y="100" on="1"/>
        <pt x="581" y="100" on="1"/>
        <pt x="846" y="100" on="0"/>
        <pt x="1018" y="296" on="1"/>
        <pt x="1108" y="398" on="0"/>
        <pt x="1206" y="676" on="0"/>
        <pt x="1206" y="799" on="1"/>
        <pt x="1206" y="833" on="1"/>
        <pt x="1205" y="850" on="1"/>
        <pt x="1205" y="1056" on="0"/>
        <pt x="1085" y="1176" on="1"/>
        <pt x="1040" y="1221" on="0"/>
        <pt x="885" y="1283" on="0"/>
      </contour>
      <contour>
        <pt x="38" y="29" on="1"/>
        <pt x="38" y="49" on="0"/>
        <pt x="130" y="109" on="1"/>
        <pt x="185" y="144" on="0"/>
        <pt x="240" y="330" on="0"/>
        <pt x="369" y="1047" on="0"/>
        <pt x="369" y="1192" on="1"/>
        <pt x="369" y="1243" on="0"/>
        <pt x="338" y="1263" on="1"/>
        <pt x="273" y="1304" on="0"/>
        <pt x="273" y="1321" on="1"/>
        <pt x="273" y="1387" on="0"/>
        <pt x="749" y="1387" on="1"/>
        <pt x="802" y="1387" on="1"/>
        <pt x="805" y="1387" on="0"/>
        <pt x="809" y="1387" on="1"/>
        <pt x="945" y="1387" on="0"/>
        <pt x="1066" y="1348" on="1"/>
        <pt x="1427" y="1232" on="0"/>
        <pt x="1427" y="798" on="1"/>
        <pt x="1427" y="647" on="0"/>
        <pt x="1363" y="495" on="1"/>
        <pt x="1299" y="342" on="0"/>
        <pt x="1189" y="232" on="1"/>
        <pt x="953" y="-4" on="0"/>
        <pt x="567" y="-4" on="1"/>
        <pt x="386" y="-4" on="1"/>
        <pt x="360" y="-3" on="1"/>
        <pt x="258" y="-3" on="1"/>
        <pt x="111" y="0" on="1"/>
        <pt x="38" y="0" on="0"/>
      </contour>
    </TTGlyph>
    <TTGlyph name="E" xMin="44" yMin="-1" xMax="1255" yMax="1386">
      <contour>
        <pt x="564" y="885" on="1"/>
        <pt x="564" y="836" on="0"/>
        <pt x="638" y="783" on="0"/>
        <pt x="763" y="783" on="0"/>
        <pt x="903" y="859" on="0"/>
        <pt x="937" y="859" on="1"/>
        <pt x="986" y="859" on="0"/>
        <pt x="986" y="677" on="0"/>
        <pt x="926" y="547" on="0"/>
        <pt x="891" y="547" on="1"/>
        <pt x="864" y="547" on="0"/>
        <pt x="751" y="651" on="0"/>
        <pt x="614" y="651" on="0"/>
        <pt x="514" y="603" on="0"/>
        <pt x="499" y="575" on="1"/>
        <pt x="444" y="470" on="0"/>
        <pt x="444" y="259" on="1"/>
        <pt x="444" y="165" on="0"/>
        <pt x="508" y="116" on="0"/>
        <pt x="757" y="116" on="0"/>
        <pt x="945" y="178" on="0"/>
        <pt x="1109" y="279" on="0"/>
        <pt x="1110" y="279" on="1"/>
        <pt x="1132" y="279" on="0"/>
        <pt x="1132" y="244" on="1"/>
        <pt x="1132" y="131" on="0"/>
        <pt x="1045" y="44" on="1"/>
        <pt x="1000" y="-1" on="0"/>
        <pt x="867" y="-1" on="1"/>
        <pt x="781" y="-1" on="1"/>
        <pt x="737" y="0" on="1"/>
        <pt x="472" y="0" on="1"/>
        <pt x="44" y="0" on="0"/>
        <pt x="44" y="61" on="0"/>
        <pt x="134" y="110" on="1"/>
        <pt x="189" y="140" on="0"/>
        <pt x="232" y="303" on="0"/>
        <pt x="392" y="1143" on="0"/>
        <pt x="392" y="1251" on="0"/>
        <pt x="351" y="1281" on="1"/>
        <pt x="287" y="1327" on="0"/>
        <pt x="287" y="1338" on="1"/>
        <pt x="287" y="1374" on="0"/>
        <pt x="356" y="1381" on="1"/>
        <pt x="375" y="1383" on="0"/>
        <pt x="783" y="1383" on="1"/>
        <pt x="1134" y="1386" on="1"/>
        <pt x="1255" y="1386" on="0"/>
        <pt x="1255" y="1267" on="1"/>
        <pt x="1255" y="1127" on="0"/>
        <pt x="1215" y="1127" on="1"/>
        <pt x="1202" y="1127" on="0"/>
        <pt x="1095" y="1211" on="0"/>
        <pt x="1046" y="1227" on="1"/>
        <pt x="922" y="1267" on="0"/>
        <pt x="694" y="1267" on="0"/>
        <pt x="641" y="1174" on="1"/>
        <pt x="564" y="1040" on="0"/>
      </contour>
    </TTGlyph>
    <TTGlyph name="Eacute" xMin="30" yMin="3" xMax="1242" yMax="1836">
      <contour>
        <pt x="776" y="1514" on="1"/>
        <pt x="761" y="1514" on="1"/>
        <pt x="736" y="1514" on="0"/>
        <pt x="736" y="1540" on="1"/>
        <pt x="736" y="1545" on="1"/>
        <pt x="736" y="1597" on="0"/>
        <pt x="943" y="1778" on="1"/>
        <pt x="1009" y="1836" on="0"/>
        <pt x="1050" y="1836" on="1"/>
        <pt x="1066" y="1836" on="1"/>
        <pt x="1152" y="1836" on="0"/>
        <pt x="1152" y="1788" on="1"/>
        <pt x="1152" y="1778" on="1"/>
        <pt x="1152" y="1745" on="0"/>
        <pt x="1045" y="1670" on="1"/>
        <pt x="822" y="1514" on="0"/>
      </contour>
      <contour>
        <pt x="548" y="922" on="1"/>
        <pt x="548" y="793" on="0"/>
        <pt x="682" y="793" on="1"/>
        <pt x="736" y="793" on="0"/>
        <pt x="789" y="815" on="0"/>
        <pt x="886" y="869" on="0"/>
        <pt x="901" y="869" on="1"/>
        <pt x="972" y="869" on="0"/>
        <pt x="972" y="683" on="0"/>
        <pt x="912" y="557" on="0"/>
        <pt x="873" y="557" on="1"/>
        <pt x="856" y="557" on="0"/>
        <pt x="741" y="664" on="0"/>
        <pt x="591" y="664" on="0"/>
        <pt x="500" y="613" on="0"/>
        <pt x="483" y="581" on="1"/>
        <pt x="421" y="468" on="0"/>
        <pt x="421" y="263" on="1"/>
        <pt x="421" y="170" on="0"/>
        <pt x="484" y="118" on="0"/>
        <pt x="608" y="118" on="1"/>
        <pt x="816" y="118" on="0"/>
        <pt x="974" y="215" on="1"/>
        <pt x="1084" y="283" on="0"/>
        <pt x="1089" y="283" on="1"/>
        <pt x="1110" y="283" on="0"/>
        <pt x="1110" y="247" on="1"/>
        <pt x="1110" y="125" on="0"/>
        <pt x="1025" y="48" on="1"/>
        <pt x="975" y="3" on="0"/>
        <pt x="847" y="3" on="1"/>
        <pt x="804" y="4" on="1"/>
        <pt x="452" y="5" on="1"/>
        <pt x="30" y="5" on="0"/>
        <pt x="30" y="37" on="1"/>
        <pt x="30" y="77" on="0"/>
        <pt x="166" y="133" on="0"/>
        <pt x="190" y="205" on="1"/>
        <pt x="195" y="221" on="0"/>
        <pt x="391" y="1177" on="0"/>
        <pt x="391" y="1269" on="0"/>
        <pt x="349" y="1297" on="1"/>
        <pt x="279" y="1344" on="0"/>
        <pt x="279" y="1357" on="1"/>
        <pt x="279" y="1391" on="0"/>
        <pt x="345" y="1399" on="1"/>
        <pt x="362" y="1401" on="0"/>
        <pt x="601" y="1401" on="1"/>
        <pt x="1037" y="1404" on="1"/>
        <pt x="1123" y="1405" on="1"/>
        <pt x="1196" y="1405" on="0"/>
        <pt x="1242" y="1342" on="0"/>
        <pt x="1242" y="1186" on="0"/>
        <pt x="1210" y="1152" on="1"/>
        <pt x="1196" y="1143" on="1"/>
        <pt x="1180" y="1143" on="0"/>
        <pt x="1142" y="1183" on="1"/>
        <pt x="1039" y="1290" on="0"/>
        <pt x="788" y="1290" on="1"/>
        <pt x="692" y="1290" on="0"/>
        <pt x="636" y="1216" on="1"/>
        <pt x="615" y="1189" on="0"/>
        <pt x="548" y="953" on="0"/>
      </contour>
    </TTGlyph>
    <TTGlyph name="Ecircumflex" xMin="30" yMin="1" xMax="1242" yMax="1843">
      <contour>
        <pt x="892" y="1843" on="1"/>
        <pt x="899" y="1843" on="1"/>
        <pt x="936" y="1843" on="0"/>
        <pt x="996" y="1756" on="1"/>
        <pt x="1120" y="1577" on="0"/>
        <pt x="1120" y="1521" on="0"/>
        <pt x="1085" y="1521" on="1"/>
        <pt x="1078" y="1521" on="1"/>
        <pt x="1050" y="1521" on="0"/>
        <pt x="875" y="1681" on="0"/>
        <pt x="863" y="1681" on="1"/>
        <pt x="852" y="1681" on="0"/>
        <pt x="794" y="1641" on="1"/>
        <pt x="623" y="1522" on="0"/>
        <pt x="551" y="1522" on="0"/>
        <pt x="551" y="1547" on="1"/>
        <pt x="551" y="1559" on="0"/>
        <pt x="861" y="1843" on="0"/>
      </contour>
      <contour>
        <pt x="548" y="919" on="1"/>
        <pt x="548" y="790" on="0"/>
        <pt x="682" y="790" on="1"/>
        <pt x="735" y="790" on="0"/>
        <pt x="789" y="811" on="0"/>
        <pt x="885" y="866" on="0"/>
        <pt x="902" y="866" on="1"/>
        <pt x="972" y="866" on="0"/>
        <pt x="972" y="681" on="0"/>
        <pt x="913" y="554" on="0"/>
        <pt x="874" y="554" on="1"/>
        <pt x="855" y="554" on="0"/>
        <pt x="744" y="661" on="0"/>
        <pt x="591" y="661" on="0"/>
        <pt x="502" y="611" on="0"/>
        <pt x="484" y="578" on="1"/>
        <pt x="421" y="463" on="0"/>
        <pt x="421" y="260" on="1"/>
        <pt x="421" y="168" on="0"/>
        <pt x="486" y="115" on="0"/>
        <pt x="610" y="115" on="1"/>
        <pt x="820" y="115" on="0"/>
        <pt x="975" y="212" on="1"/>
        <pt x="1085" y="281" on="0"/>
        <pt x="1089" y="281" on="1"/>
        <pt x="1110" y="281" on="0"/>
        <pt x="1110" y="244" on="1"/>
        <pt x="1110" y="122" on="0"/>
        <pt x="1026" y="45" on="1"/>
        <pt x="978" y="1" on="0"/>
        <pt x="889" y="1" on="1"/>
        <pt x="718" y="1" on="1"/>
        <pt x="674" y="2" on="1"/>
        <pt x="585" y="1" on="1"/>
        <pt x="541" y="1" on="1"/>
        <pt x="496" y="2" on="1"/>
        <pt x="30" y="2" on="0"/>
        <pt x="30" y="35" on="1"/>
        <pt x="30" y="73" on="0"/>
        <pt x="167" y="130" on="0"/>
        <pt x="191" y="202" on="1"/>
        <pt x="197" y="220" on="0"/>
        <pt x="391" y="1179" on="0"/>
        <pt x="391" y="1266" on="0"/>
        <pt x="349" y="1294" on="1"/>
        <pt x="279" y="1341" on="0"/>
        <pt x="279" y="1354" on="1"/>
        <pt x="279" y="1389" on="0"/>
        <pt x="346" y="1396" on="1"/>
        <pt x="365" y="1398" on="0"/>
        <pt x="601" y="1398" on="1"/>
        <pt x="1037" y="1402" on="1"/>
        <pt x="1123" y="1403" on="1"/>
        <pt x="1195" y="1403" on="0"/>
        <pt x="1242" y="1340" on="0"/>
        <pt x="1242" y="1183" on="0"/>
        <pt x="1211" y="1149" on="1"/>
        <pt x="1197" y="1140" on="1"/>
        <pt x="1182" y="1140" on="0"/>
        <pt x="1142" y="1180" on="1"/>
        <pt x="1038" y="1286" on="0"/>
        <pt x="789" y="1287" on="1"/>
        <pt x="692" y="1287" on="0"/>
        <pt x="637" y="1214" on="1"/>
        <pt x="615" y="1185" on="0"/>
        <pt x="548" y="950" on="0"/>
      </contour>
    </TTGlyph>
    <TTGlyph name="Edieresis" xMin="30" yMin="2" xMax="1242" yMax="1780">
      <contour>
        <pt x="554" y="1667" on="1"/>
        <pt x="554" y="1708" on="0"/>
        <pt x="625" y="1779" on="0"/>
        <pt x="662" y="1779" on="1"/>
        <pt x="684" y="1779" on="1"/>
        <pt x="716" y="1779" on="0"/>
        <pt x="773" y="1722" on="0"/>
        <pt x="773" y="1688" on="1"/>
        <pt x="773" y="1667" on="1"/>
        <pt x="770" y="1655" on="0"/>
        <pt x="770" y="1623" on="0"/>
        <pt x="702" y="1555" on="0"/>
        <pt x="664" y="1555" on="1"/>
        <pt x="643" y="1555" on="1"/>
        <pt x="610" y="1555" on="0"/>
        <pt x="557" y="1608" on="0"/>
        <pt x="557" y="1628" on="1"/>
        <pt x="554" y="1645" on="1"/>
      </contour>
      <contour>
        <pt x="1149" y="1668" on="1"/>
        <pt x="1149" y="1626" on="0"/>
        <pt x="1078" y="1555" on="0"/>
        <pt x="1040" y="1555" on="1"/>
        <pt x="1019" y="1555" on="1"/>
        <pt x="1010" y="1558" on="0"/>
        <pt x="983" y="1558" on="0"/>
        <pt x="929" y="1612" on="0"/>
        <pt x="929" y="1646" on="1"/>
        <pt x="929" y="1667" on="1"/>
        <pt x="932" y="1679" on="0"/>
        <pt x="932" y="1712" on="0"/>
        <pt x="997" y="1777" on="0"/>
        <pt x="1024" y="1777" on="1"/>
        <pt x="1045" y="1780" on="1"/>
        <pt x="1059" y="1780" on="1"/>
        <pt x="1071" y="1777" on="0"/>
        <pt x="1095" y="1777" on="0"/>
        <pt x="1147" y="1725" on="0"/>
        <pt x="1147" y="1700" on="1"/>
        <pt x="1149" y="1693" on="1"/>
      </contour>
      <contour>
        <pt x="548" y="921" on="1"/>
        <pt x="548" y="791" on="0"/>
        <pt x="682" y="791" on="1"/>
        <pt x="737" y="791" on="0"/>
        <pt x="790" y="813" on="0"/>
        <pt x="888" y="868" on="0"/>
        <pt x="902" y="868" on="1"/>
        <pt x="972" y="868" on="0"/>
        <pt x="972" y="682" on="0"/>
        <pt x="913" y="555" on="0"/>
        <pt x="874" y="555" on="1"/>
        <pt x="855" y="555" on="0"/>
        <pt x="744" y="662" on="0"/>
        <pt x="674" y="662" on="1"/>
        <pt x="554" y="662" on="0"/>
        <pt x="502" y="608" on="1"/>
        <pt x="476" y="581" on="0"/>
        <pt x="422" y="362" on="0"/>
        <pt x="422" y="169" on="0"/>
        <pt x="484" y="116" on="0"/>
        <pt x="614" y="116" on="1"/>
        <pt x="828" y="116" on="0"/>
        <pt x="1005" y="232" on="1"/>
        <pt x="1081" y="282" on="0"/>
        <pt x="1089" y="282" on="1"/>
        <pt x="1110" y="282" on="0"/>
        <pt x="1110" y="245" on="1"/>
        <pt x="1110" y="123" on="0"/>
        <pt x="1026" y="46" on="1"/>
        <pt x="978" y="2" on="0"/>
        <pt x="889" y="2" on="1"/>
        <pt x="718" y="2" on="1"/>
        <pt x="674" y="3" on="1"/>
        <pt x="586" y="2" on="1"/>
        <pt x="541" y="2" on="1"/>
        <pt x="496" y="3" on="1"/>
        <pt x="30" y="3" on="0"/>
        <pt x="30" y="36" on="1"/>
        <pt x="30" y="74" on="0"/>
        <pt x="167" y="131" on="0"/>
        <pt x="191" y="203" on="1"/>
        <pt x="197" y="221" on="0"/>
        <pt x="392" y="1185" on="0"/>
        <pt x="392" y="1266" on="0"/>
        <pt x="349" y="1295" on="1"/>
        <pt x="279" y="1342" on="0"/>
        <pt x="279" y="1355" on="1"/>
        <pt x="279" y="1390" on="0"/>
        <pt x="346" y="1398" on="1"/>
        <pt x="363" y="1400" on="0"/>
        <pt x="601" y="1400" on="1"/>
        <pt x="1037" y="1403" on="1"/>
        <pt x="1123" y="1404" on="1"/>
        <pt x="1194" y="1404" on="0"/>
        <pt x="1242" y="1342" on="0"/>
        <pt x="1242" y="1183" on="0"/>
        <pt x="1211" y="1150" on="1"/>
        <pt x="1197" y="1141" on="1"/>
        <pt x="1183" y="1141" on="0"/>
        <pt x="1143" y="1181" on="1"/>
        <pt x="1035" y="1289" on="0"/>
        <pt x="789" y="1289" on="1"/>
        <pt x="694" y="1289" on="0"/>
        <pt x="637" y="1215" on="1"/>
        <pt x="615" y="1186" on="0"/>
        <pt x="548" y="951" on="0"/>
      </contour>
    </TTGlyph>
    <TTGlyph name="Egrave" xMin="30" yMin="4" xMax="1242" yMax="1837">
      <contour>
        <pt x="677" y="1837" on="1"/>
        <pt x="715" y="1837" on="0"/>
        <pt x="934" y="1586" on="0"/>
        <pt x="934" y="1558" on="1"/>
        <pt x="934" y="1539" on="1"/>
        <pt x="934" y="1515" on="0"/>
        <pt x="906" y="1515" on="1"/>
        <pt x="901" y="1515" on="1"/>
        <pt x="832" y="1515" on="0"/>
        <pt x="563" y="1750" on="0"/>
        <pt x="563" y="1768" on="1"/>
        <pt x="563" y="1782" on="1"/>
        <pt x="563" y="1835" on="0"/>
        <pt x="641" y="1835" on="1"/>
        <pt x="651" y="1837" on="1"/>
      </contour>
      <contour>
        <pt x="548" y="922" on="1"/>
        <pt x="548" y="793" on="0"/>
        <pt x="682" y="793" on="1"/>
        <pt x="735" y="793" on="0"/>
        <pt x="789" y="814" on="0"/>
        <pt x="885" y="869" on="0"/>
        <pt x="902" y="869" on="1"/>
        <pt x="972" y="869" on="0"/>
        <pt x="972" y="684" on="0"/>
        <pt x="913" y="557" on="0"/>
        <pt x="874" y="557" on="1"/>
        <pt x="855" y="557" on="0"/>
        <pt x="744" y="664" on="0"/>
        <pt x="591" y="664" on="0"/>
        <pt x="502" y="614" on="0"/>
        <pt x="484" y="581" on="1"/>
        <pt x="421" y="466" on="0"/>
        <pt x="421" y="263" on="1"/>
        <pt x="421" y="171" on="0"/>
        <pt x="486" y="118" on="0"/>
        <pt x="610" y="118" on="1"/>
        <pt x="820" y="118" on="0"/>
        <pt x="975" y="215" on="1"/>
        <pt x="1085" y="284" on="0"/>
        <pt x="1089" y="284" on="1"/>
        <pt x="1110" y="284" on="0"/>
        <pt x="1110" y="247" on="1"/>
        <pt x="1110" y="125" on="0"/>
        <pt x="1026" y="48" on="1"/>
        <pt x="978" y="4" on="0"/>
        <pt x="889" y="4" on="1"/>
        <pt x="718" y="4" on="1"/>
        <pt x="674" y="5" on="1"/>
        <pt x="585" y="4" on="1"/>
        <pt x="541" y="4" on="1"/>
        <pt x="496" y="5" on="1"/>
        <pt x="30" y="5" on="0"/>
        <pt x="30" y="38" on="1"/>
        <pt x="30" y="76" on="0"/>
        <pt x="167" y="133" on="0"/>
        <pt x="191" y="205" on="1"/>
        <pt x="197" y="223" on="0"/>
        <pt x="391" y="1182" on="0"/>
        <pt x="391" y="1269" on="0"/>
        <pt x="349" y="1297" on="1"/>
        <pt x="279" y="1344" on="0"/>
        <pt x="279" y="1357" on="1"/>
        <pt x="279" y="1392" on="0"/>
        <pt x="346" y="1399" on="1"/>
        <pt x="365" y="1401" on="0"/>
        <pt x="601" y="1401" on="1"/>
        <pt x="816" y="1403" on="1"/>
        <pt x="861" y="1404" on="1"/>
        <pt x="1080" y="1405" on="1"/>
        <pt x="1123" y="1406" on="1"/>
        <pt x="1195" y="1406" on="0"/>
        <pt x="1242" y="1343" on="0"/>
        <pt x="1242" y="1186" on="0"/>
        <pt x="1211" y="1152" on="1"/>
        <pt x="1197" y="1143" on="1"/>
        <pt x="1180" y="1143" on="0"/>
        <pt x="1142" y="1183" on="1"/>
        <pt x="1039" y="1290" on="0"/>
        <pt x="789" y="1290" on="1"/>
        <pt x="692" y="1290" on="0"/>
        <pt x="637" y="1217" on="1"/>
        <pt x="615" y="1188" on="0"/>
        <pt x="548" y="953" on="0"/>
      </contour>
    </TTGlyph>
    <TTGlyph name="Eth" xMin="48" yMin="-2" xMax="1432" yMax="1404">
      <contour>
        <pt x="408" y="207" on="0"/>
        <pt x="408" y="117" on="0"/>
        <pt x="468" y="101" on="0"/>
        <pt x="694" y="101" on="0"/>
        <pt x="929" y="199" on="0"/>
        <pt x="1114" y="405" on="0"/>
        <pt x="1212" y="684" on="0"/>
        <pt x="1212" y="811" on="1"/>
        <pt x="1212" y="852" on="1"/>
        <pt x="1212" y="1050" on="0"/>
        <pt x="1100" y="1176" on="1"/>
        <pt x="1050" y="1232" on="0"/>
        <pt x="889" y="1301" on="0"/>
        <pt x="799" y="1301" on="1"/>
        <pt x="778" y="1301" on="1"/>
        <pt x="653" y="1301" on="0"/>
        <pt x="607" y="1221" on="0"/>
        <pt x="534" y="863" on="0"/>
        <pt x="534" y="806" on="1"/>
        <pt x="534" y="767" on="0"/>
        <pt x="828" y="767" on="0"/>
        <pt x="828" y="719" on="1"/>
        <pt x="828" y="678" on="0"/>
        <pt x="770" y="652" on="0"/>
        <pt x="515" y="652" on="0"/>
        <pt x="495" y="615" on="1"/>
        <pt x="487" y="600" on="0"/>
      </contour>
      <contour>
        <pt x="48" y="3" on="0"/>
        <pt x="48" y="67" on="0"/>
        <pt x="181" y="140" on="0"/>
        <pt x="225" y="255" on="0"/>
        <pt x="249" y="504" on="0"/>
        <pt x="274" y="616" on="0"/>
        <pt x="274" y="619" on="1"/>
        <pt x="274" y="653" on="0"/>
        <pt x="154" y="666" on="0"/>
        <pt x="154" y="708" on="1"/>
        <pt x="154" y="761" on="0"/>
        <pt x="305" y="793" on="0"/>
        <pt x="326" y="833" on="1"/>
        <pt x="376" y="928" on="0"/>
        <pt x="376" y="1203" on="1"/>
        <pt x="376" y="1253" on="0"/>
        <pt x="339" y="1275" on="1"/>
        <pt x="276" y="1313" on="0"/>
        <pt x="276" y="1340" on="1"/>
        <pt x="276" y="1404" on="0"/>
        <pt x="716" y="1404" on="1"/>
        <pt x="801" y="1404" on="1"/>
        <pt x="928" y="1404" on="0"/>
        <pt x="1049" y="1368" on="1"/>
        <pt x="1295" y="1296" on="0"/>
        <pt x="1382" y="1088" on="1"/>
        <pt x="1432" y="969" on="0"/>
        <pt x="1432" y="850" on="1"/>
        <pt x="1432" y="822" on="1"/>
        <pt x="1432" y="641" on="0"/>
        <pt x="1358" y="481" on="1"/>
        <pt x="1205" y="149" on="0"/>
        <pt x="856" y="42" on="1"/>
        <pt x="713" y="-2" on="0"/>
        <pt x="503" y="-2" on="1"/>
        <pt x="475" y="-2" on="1"/>
        <pt x="448" y="-1" on="1"/>
        <pt x="391" y="-1" on="1"/>
        <pt x="134" y="3" on="1"/>
      </contour>
    </TTGlyph>
    <TTGlyph name="Euro" xMin="87" yMin="-14" xMax="1211" yMax="1324">
      <contour>
        <pt x="518" y="599" on="0"/>
        <pt x="810" y="599" on="0"/>
        <pt x="851" y="558" on="1"/>
        <pt x="851" y="512" on="0"/>
        <pt x="597" y="486" on="0"/>
        <pt x="556" y="466" on="1"/>
        <pt x="468" y="424" on="0"/>
        <pt x="468" y="368" on="1"/>
        <pt x="468" y="268" on="0"/>
        <pt x="628" y="137" on="0"/>
        <pt x="742" y="137" on="1"/>
        <pt x="813" y="137" on="0"/>
        <pt x="1008" y="244" on="0"/>
        <pt x="1030" y="244" on="1"/>
        <pt x="1078" y="244" on="0"/>
        <pt x="1078" y="216" on="1"/>
        <pt x="1078" y="194" on="0"/>
        <pt x="1010" y="89" on="0"/>
        <pt x="948" y="52" on="1"/>
        <pt x="837" y="-14" on="0"/>
        <pt x="487" y="-14" on="0"/>
        <pt x="366" y="93" on="1"/>
        <pt x="274" y="175" on="0"/>
        <pt x="208" y="366" on="1"/>
        <pt x="185" y="434" on="0"/>
        <pt x="157" y="470" on="0"/>
        <pt x="87" y="521" on="0"/>
        <pt x="87" y="536" on="1"/>
        <pt x="87" y="568" on="0"/>
        <pt x="195" y="631" on="0"/>
        <pt x="195" y="696" on="0"/>
        <pt x="178" y="711" on="1"/>
        <pt x="153" y="722" on="1"/>
        <pt x="119" y="738" on="0"/>
        <pt x="119" y="756" on="1"/>
        <pt x="119" y="796" on="0"/>
        <pt x="233" y="849" on="0"/>
        <pt x="312" y="980" on="1"/>
        <pt x="452" y="1213" on="0"/>
        <pt x="683" y="1292" on="1"/>
        <pt x="777" y="1324" on="0"/>
        <pt x="1047" y="1324" on="0"/>
        <pt x="1149" y="1267" on="1"/>
        <pt x="1211" y="1232" on="0"/>
        <pt x="1211" y="1063" on="0"/>
        <pt x="1152" y="1063" on="1"/>
        <pt x="1118" y="1063" on="0"/>
        <pt x="946" y="1186" on="0"/>
        <pt x="747" y="1186" on="0"/>
        <pt x="662" y="1120" on="1"/>
        <pt x="550" y="1033" on="0"/>
        <pt x="550" y="914" on="1"/>
        <pt x="550" y="867" on="0"/>
        <pt x="615" y="847" on="1"/>
        <pt x="653" y="835" on="0"/>
        <pt x="929" y="817" on="0"/>
        <pt x="929" y="794" on="1"/>
        <pt x="929" y="756" on="0"/>
        <pt x="854" y="734" on="1"/>
        <pt x="809" y="721" on="0"/>
        <pt x="499" y="721" on="0"/>
        <pt x="429" y="688" on="0"/>
        <pt x="429" y="657" on="1"/>
        <pt x="429" y="616" on="0"/>
        <pt x="486" y="605" on="1"/>
      </contour>
    </TTGlyph>
    <TTGlyph name="F" xMin="55" yMin="0" xMax="1255" yMax="1387">
      <contour>
        <pt x="386" y="1214" on="1"/>
        <pt x="386" y="1256" on="0"/>
        <pt x="356" y="1280" on="1"/>
        <pt x="288" y="1334" on="0"/>
        <pt x="288" y="1346" on="1"/>
        <pt x="288" y="1382" on="0"/>
        <pt x="412" y="1382" on="1"/>
        <pt x="447" y="1383" on="1"/>
        <pt x="482" y="1384" on="0"/>
        <pt x="518" y="1384" on="1"/>
        <pt x="1095" y="1387" on="1"/>
        <pt x="1166" y="1387" on="1"/>
        <pt x="1220" y="1387" on="0"/>
        <pt x="1255" y="1333" on="0"/>
        <pt x="1255" y="1281" on="1"/>
        <pt x="1255" y="1110" on="0"/>
        <pt x="1201" y="1110" on="1"/>
        <pt x="1192" y="1110" on="0"/>
        <pt x="1155" y="1156" on="1"/>
        <pt x="1062" y="1272" on="0"/>
        <pt x="820" y="1273" on="1"/>
        <pt x="759" y="1273" on="0"/>
        <pt x="727" y="1258" on="1"/>
        <pt x="663" y="1229" on="0"/>
        <pt x="626" y="1163" on="1"/>
        <pt x="610" y="1135" on="0"/>
        <pt x="552" y="928" on="0"/>
        <pt x="552" y="838" on="0"/>
        <pt x="577" y="813" on="1"/>
        <pt x="624" y="766" on="0"/>
        <pt x="758" y="766" on="0"/>
        <pt x="807" y="792" on="1"/>
        <pt x="924" y="854" on="0"/>
        <pt x="935" y="854" on="1"/>
        <pt x="980" y="854" on="0"/>
        <pt x="980" y="781" on="1"/>
        <pt x="980" y="674" on="0"/>
        <pt x="927" y="541" on="0"/>
        <pt x="883" y="541" on="1"/>
        <pt x="851" y="541" on="0"/>
        <pt x="761" y="631" on="0"/>
        <pt x="704" y="631" on="1"/>
        <pt x="561" y="631" on="0"/>
        <pt x="507" y="570" on="1"/>
        <pt x="487" y="547" on="0"/>
        <pt x="450" y="346" on="0"/>
        <pt x="450" y="122" on="0"/>
        <pt x="499" y="67" on="1"/>
        <pt x="521" y="42" on="0"/>
        <pt x="521" y="31" on="1"/>
        <pt x="521" y="0" on="0"/>
        <pt x="406" y="0" on="1"/>
        <pt x="196" y="0" on="1"/>
        <pt x="55" y="0" on="0"/>
        <pt x="55" y="41" on="1"/>
        <pt x="55" y="60" on="0"/>
        <pt x="136" y="110" on="1"/>
        <pt x="188" y="142" on="0"/>
        <pt x="209" y="207" on="1"/>
        <pt x="219" y="237" on="0"/>
        <pt x="302" y="677" on="0"/>
        <pt x="386" y="1098" on="0"/>
      </contour>
    </TTGlyph>
    <TTGlyph name="G" xMin="114" yMin="-19" xMax="1358" yMax="1395">
      <contour>
        <pt x="899" y="1395" on="1"/>
        <pt x="939" y="1395" on="1"/>
        <pt x="1178" y="1395" on="0"/>
        <pt x="1304" y="1346" on="1"/>
        <pt x="1358" y="1325" on="0"/>
        <pt x="1358" y="1207" on="1"/>
        <pt x="1358" y="1137" on="0"/>
        <pt x="1294" y="1052" on="0"/>
        <pt x="1240" y="1052" on="0"/>
        <pt x="1188" y="1123" on="1"/>
        <pt x="1078" y="1274" on="0"/>
        <pt x="896" y="1274" on="1"/>
        <pt x="663" y="1274" on="0"/>
        <pt x="501" y="1067" on="1"/>
        <pt x="430" y="976" on="0"/>
        <pt x="342" y="716" on="0"/>
        <pt x="342" y="592" on="1"/>
        <pt x="342" y="236" on="0"/>
        <pt x="578" y="133" on="1"/>
        <pt x="645" y="104" on="0"/>
        <pt x="728" y="104" on="1"/>
        <pt x="861" y="104" on="0"/>
        <pt x="926" y="170" on="1"/>
        <pt x="1008" y="254" on="0"/>
        <pt x="1008" y="424" on="1"/>
        <pt x="1008" y="472" on="0"/>
        <pt x="934" y="585" on="0"/>
        <pt x="934" y="601" on="1"/>
        <pt x="934" y="636" on="0"/>
        <pt x="1229" y="636" on="0"/>
        <pt x="1340" y="618" on="0"/>
        <pt x="1340" y="583" on="1"/>
        <pt x="1340" y="572" on="0"/>
        <pt x="1281" y="519" on="0"/>
        <pt x="1254" y="463" on="0"/>
        <pt x="1176" y="117" on="0"/>
        <pt x="1113" y="62" on="0"/>
        <pt x="1023" y="42" on="1"/>
        <pt x="746" y="-19" on="0"/>
        <pt x="550" y="-19" on="0"/>
        <pt x="439" y="25" on="1"/>
        <pt x="235" y="106" on="0"/>
        <pt x="154" y="318" on="1"/>
        <pt x="114" y="424" on="0"/>
        <pt x="114" y="721" on="0"/>
        <pt x="240" y="1042" on="0"/>
        <pt x="476" y="1278" on="0"/>
        <pt x="761" y="1395" on="0"/>
      </contour>
    </TTGlyph>
    <TTGlyph name="H" xMin="34" yMin="-2" xMax="1639" yMax="1384">
      <contour>
        <pt x="1249" y="1216" on="1"/>
        <pt x="1249" y="1249" on="0"/>
        <pt x="1225" y="1283" on="1"/>
        <pt x="1202" y="1309" on="1"/>
        <pt x="1175" y="1337" on="0"/>
        <pt x="1175" y="1347" on="1"/>
        <pt x="1175" y="1384" on="0"/>
        <pt x="1303" y="1384" on="1"/>
        <pt x="1351" y="1383" on="1"/>
        <pt x="1546" y="1384" on="1"/>
        <pt x="1639" y="1384" on="0"/>
        <pt x="1639" y="1346" on="1"/>
        <pt x="1639" y="1327" on="0"/>
        <pt x="1542" y="1277" on="1"/>
        <pt x="1487" y="1249" on="0"/>
        <pt x="1468" y="1181" on="1"/>
        <pt x="1457" y="1133" on="1"/>
        <pt x="1441" y="1058" on="0"/>
        <pt x="1397" y="823" on="0"/>
        <pt x="1282" y="234" on="0"/>
        <pt x="1282" y="126" on="0"/>
        <pt x="1304" y="107" on="1"/>
        <pt x="1340" y="88" on="1"/>
        <pt x="1405" y="59" on="0"/>
        <pt x="1405" y="49" on="1"/>
        <pt x="1405" y="0" on="0"/>
        <pt x="1312" y="0" on="1"/>
        <pt x="1214" y="2" on="1"/>
        <pt x="1119" y="2" on="1"/>
        <pt x="970" y="2" on="0"/>
        <pt x="926" y="18" on="0"/>
        <pt x="926" y="47" on="1"/>
        <pt x="926" y="59" on="0"/>
        <pt x="1038" y="147" on="0"/>
        <pt x="1077" y="235" on="0"/>
        <pt x="1139" y="543" on="0"/>
        <pt x="1139" y="563" on="1"/>
        <pt x="1139" y="638" on="0"/>
        <pt x="1097" y="652" on="1"/>
        <pt x="1082" y="657" on="0"/>
        <pt x="537" y="657" on="0"/>
        <pt x="503" y="611" on="1"/>
        <pt x="488" y="591" on="0"/>
        <pt x="427" y="302" on="0"/>
        <pt x="427" y="133" on="0"/>
        <pt x="500" y="48" on="0"/>
        <pt x="500" y="32" on="1"/>
        <pt x="500" y="-1" on="0"/>
        <pt x="169" y="-1" on="1"/>
        <pt x="72" y="-2" on="1"/>
        <pt x="34" y="-2" on="0"/>
        <pt x="34" y="41" on="1"/>
        <pt x="34" y="63" on="0"/>
        <pt x="177" y="122" on="0"/>
        <pt x="214" y="210" on="0"/>
        <pt x="395" y="1186" on="0"/>
        <pt x="395" y="1251" on="0"/>
        <pt x="363" y="1275" on="1"/>
        <pt x="328" y="1294" on="1"/>
        <pt x="272" y="1324" on="0"/>
        <pt x="272" y="1342" on="1"/>
        <pt x="272" y="1384" on="0"/>
        <pt x="323" y="1384" on="1"/>
        <pt x="372" y="1384" on="1"/>
        <pt x="471" y="1382" on="1"/>
        <pt x="567" y="1382" on="1"/>
        <pt x="751" y="1382" on="0"/>
        <pt x="751" y="1322" on="0"/>
        <pt x="636" y="1243" on="0"/>
        <pt x="615" y="1191" on="1"/>
        <pt x="543" y="1010" on="0"/>
        <pt x="543" y="863" on="1"/>
        <pt x="543" y="787" on="0"/>
        <pt x="582" y="773" on="1"/>
        <pt x="598" y="767" on="0"/>
        <pt x="1144" y="767" on="0"/>
        <pt x="1176" y="810" on="1"/>
        <pt x="1191" y="829" on="0"/>
        <pt x="1249" y="1094" on="0"/>
      </contour>
    </TTGlyph>
    <TTGlyph name="I" xMin="43" yMin="-4" xMax="808" yMax="1384">
      <contour>
        <pt x="408" y="1206" on="1"/>
        <pt x="408" y="1256" on="0"/>
        <pt x="288" y="1324" on="0"/>
        <pt x="287" y="1346" on="1"/>
        <pt x="287" y="1381" on="0"/>
        <pt x="554" y="1381" on="1"/>
        <pt x="730" y="1384" on="1"/>
        <pt x="808" y="1384" on="0"/>
        <pt x="808" y="1332" on="0"/>
        <pt x="713" y="1285" on="1"/>
        <pt x="659" y="1258" on="0"/>
        <pt x="635" y="1185" on="1"/>
        <pt x="624" y="1156" on="0"/>
        <pt x="444" y="270" on="0"/>
        <pt x="444" y="161" on="1"/>
        <pt x="444" y="122" on="0"/>
        <pt x="560" y="56" on="0"/>
        <pt x="561" y="35" on="1"/>
        <pt x="561" y="-1" on="0"/>
        <pt x="277" y="-1" on="1"/>
        <pt x="98" y="-4" on="1"/>
        <pt x="43" y="-4" on="0"/>
        <pt x="43" y="25" on="1"/>
        <pt x="43" y="53" on="0"/>
        <pt x="102" y="80" on="1"/>
        <pt x="162" y="108" on="0"/>
        <pt x="198" y="144" on="0"/>
        <pt x="214" y="192" on="1"/>
        <pt x="230" y="242" on="0"/>
        <pt x="408" y="1110" on="0"/>
      </contour>
    </TTGlyph>
    <TTGlyph name="Iacute" xMin="18" yMin="1" xMax="871" yMax="1836">
      <contour>
        <pt x="455" y="1535" on="1"/>
        <pt x="455" y="1549" on="1"/>
        <pt x="455" y="1559" on="0"/>
        <pt x="485" y="1593" on="1"/>
        <pt x="628" y="1754" on="0"/>
        <pt x="733" y="1836" on="0"/>
        <pt x="773" y="1836" on="1"/>
        <pt x="784" y="1836" on="1"/>
        <pt x="871" y="1836" on="0"/>
        <pt x="871" y="1788" on="1"/>
        <pt x="871" y="1783" on="1"/>
        <pt x="871" y="1742" on="0"/>
        <pt x="759" y="1667" on="1"/>
        <pt x="529" y="1514" on="0"/>
        <pt x="494" y="1514" on="1"/>
        <pt x="479" y="1514" on="1"/>
        <pt x="455" y="1514" on="0"/>
      </contour>
      <contour>
        <pt x="401" y="1219" on="0"/>
        <pt x="401" y="1277" on="0"/>
        <pt x="353" y="1303" on="1"/>
        <pt x="276" y="1344" on="0"/>
        <pt x="276" y="1364" on="1"/>
        <pt x="276" y="1400" on="0"/>
        <pt x="559" y="1400" on="1"/>
        <pt x="713" y="1403" on="1"/>
        <pt x="785" y="1403" on="0"/>
        <pt x="785" y="1376" on="1"/>
        <pt x="785" y="1343" on="0"/>
        <pt x="633" y="1283" on="0"/>
        <pt x="613" y="1222" on="1"/>
        <pt x="575" y="1105" on="0"/>
        <pt x="406" y="176" on="0"/>
        <pt x="406" y="169" on="1"/>
        <pt x="406" y="124" on="0"/>
        <pt x="449" y="101" on="1"/>
        <pt x="526" y="60" on="0"/>
        <pt x="526" y="43" on="1"/>
        <pt x="526" y="12" on="0"/>
        <pt x="487" y="6" on="1"/>
        <pt x="474" y="4" on="0"/>
        <pt x="248" y="4" on="1"/>
        <pt x="93" y="1" on="1"/>
        <pt x="71" y="1" on="1"/>
        <pt x="18" y="1" on="0"/>
        <pt x="18" y="61" on="0"/>
        <pt x="175" y="121" on="0"/>
        <pt x="195" y="187" on="1"/>
        <pt x="232" y="309" on="0"/>
      </contour>
    </TTGlyph>
    <TTGlyph name="Icircumflex" xMin="22" yMin="-1" xMax="848" yMax="1844">
      <contour>
        <pt x="814" y="1522" on="1"/>
        <pt x="800" y="1522" on="1"/>
        <pt x="777" y="1522" on="0"/>
        <pt x="602" y="1682" on="0"/>
        <pt x="580" y="1682" on="0"/>
        <pt x="520" y="1640" on="1"/>
        <pt x="351" y="1523" on="0"/>
        <pt x="306" y="1523" on="1"/>
        <pt x="305" y="1523" on="1"/>
        <pt x="281" y="1523" on="0"/>
        <pt x="281" y="1542" on="1"/>
        <pt x="281" y="1548" on="1"/>
        <pt x="431" y="1698" on="1"/>
        <pt x="577" y="1844" on="0"/>
        <pt x="621" y="1844" on="1"/>
        <pt x="628" y="1844" on="1"/>
        <pt x="674" y="1844" on="0"/>
        <pt x="716" y="1770" on="1"/>
        <pt x="745" y="1720" on="0"/>
        <pt x="772" y="1681" on="0"/>
        <pt x="786" y="1655" on="0"/>
        <pt x="848" y="1567" on="0"/>
        <pt x="848" y="1554" on="1"/>
        <pt x="848" y="1522" on="0"/>
      </contour>
      <contour>
        <pt x="405" y="1177" on="0"/>
        <pt x="405" y="1276" on="0"/>
        <pt x="357" y="1300" on="1"/>
        <pt x="280" y="1339" on="0"/>
        <pt x="280" y="1361" on="1"/>
        <pt x="280" y="1398" on="0"/>
        <pt x="541" y="1398" on="1"/>
        <pt x="717" y="1401" on="1"/>
        <pt x="789" y="1401" on="0"/>
        <pt x="789" y="1341" on="0"/>
        <pt x="637" y="1281" on="0"/>
        <pt x="617" y="1220" on="1"/>
        <pt x="611" y="1202" on="0"/>
        <pt x="410" y="219" on="0"/>
        <pt x="410" y="122" on="0"/>
        <pt x="453" y="99" on="1"/>
        <pt x="530" y="58" on="0"/>
        <pt x="530" y="41" on="1"/>
        <pt x="530" y="10" on="0"/>
        <pt x="491" y="4" on="1"/>
        <pt x="478" y="2" on="0"/>
        <pt x="252" y="2" on="1"/>
        <pt x="231" y="1" on="1"/>
        <pt x="187" y="1" on="1"/>
        <pt x="97" y="-1" on="1"/>
        <pt x="75" y="-1" on="1"/>
        <pt x="22" y="-1" on="0"/>
        <pt x="22" y="57" on="0"/>
        <pt x="179" y="121" on="0"/>
        <pt x="199" y="185" on="1"/>
        <pt x="208" y="213" on="0"/>
        <pt x="268" y="508" on="1"/>
        <pt x="299" y="664" on="1"/>
        <pt x="304" y="686" on="1"/>
        <pt x="313" y="730" on="0"/>
        <pt x="324" y="789" on="0"/>
      </contour>
    </TTGlyph>
    <TTGlyph name="Idieresis" xMin="17" yMin="-2" xMax="873" yMax="1778">
      <contour>
        <pt x="408" y="1778" on="1"/>
        <pt x="445" y="1778" on="0"/>
        <pt x="502" y="1721" on="0"/>
        <pt x="502" y="1683" on="1"/>
        <pt x="502" y="1669" on="1"/>
        <pt x="502" y="1627" on="0"/>
        <pt x="435" y="1560" on="0"/>
        <pt x="410" y="1560" on="1"/>
        <pt x="394" y="1557" on="1"/>
        <pt x="373" y="1557" on="1"/>
        <pt x="352" y="1561" on="1"/>
        <pt x="337" y="1561" on="0"/>
        <pt x="288" y="1610" on="0"/>
        <pt x="288" y="1637" on="1"/>
        <pt x="286" y="1651" on="1"/>
        <pt x="286" y="1665" on="1"/>
        <pt x="286" y="1700" on="0"/>
        <pt x="349" y="1775" on="0"/>
        <pt x="380" y="1775" on="1"/>
        <pt x="388" y="1777" on="0"/>
        <pt x="391" y="1777" on="1"/>
        <pt x="404" y="1778" on="1"/>
      </contour>
      <contour>
        <pt x="873" y="1674" on="1"/>
        <pt x="873" y="1628" on="0"/>
        <pt x="802" y="1557" on="0"/>
        <pt x="765" y="1557" on="1"/>
        <pt x="747" y="1557" on="1"/>
        <pt x="713" y="1557" on="0"/>
        <pt x="656" y="1614" on="0"/>
        <pt x="656" y="1651" on="1"/>
        <pt x="656" y="1665" on="1"/>
        <pt x="656" y="1708" on="0"/>
        <pt x="723" y="1775" on="0"/>
        <pt x="747" y="1775" on="1"/>
        <pt x="764" y="1778" on="1"/>
        <pt x="785" y="1778" on="1"/>
        <pt x="817" y="1778" on="0"/>
        <pt x="870" y="1725" on="0"/>
        <pt x="870" y="1701" on="1"/>
        <pt x="873" y="1681" on="1"/>
      </contour>
      <contour>
        <pt x="404" y="1197" on="0"/>
        <pt x="404" y="1276" on="0"/>
        <pt x="355" y="1300" on="1"/>
        <pt x="276" y="1338" on="0"/>
        <pt x="276" y="1361" on="1"/>
        <pt x="276" y="1397" on="0"/>
        <pt x="558" y="1397" on="1"/>
        <pt x="712" y="1400" on="1"/>
        <pt x="734" y="1400" on="1"/>
        <pt x="782" y="1400" on="0"/>
        <pt x="782" y="1339" on="0"/>
        <pt x="634" y="1286" on="0"/>
        <pt x="614" y="1238" on="1"/>
        <pt x="606" y="1219" on="0"/>
        <pt x="399" y="206" on="0"/>
        <pt x="399" y="119" on="0"/>
        <pt x="443" y="98" on="1"/>
        <pt x="522" y="61" on="0"/>
        <pt x="522" y="40" on="1"/>
        <pt x="522" y="9" on="0"/>
        <pt x="483" y="3" on="1"/>
        <pt x="470" y="1" on="0"/>
        <pt x="245" y="1" on="1"/>
        <pt x="90" y="-2" on="1"/>
        <pt x="68" y="-2" on="1"/>
        <pt x="17" y="-2" on="0"/>
        <pt x="17" y="58" on="0"/>
        <pt x="170" y="114" on="0"/>
        <pt x="189" y="165" on="1"/>
        <pt x="198" y="188" on="0"/>
      </contour>
    </TTGlyph>
    <TTGlyph name="Igrave" xMin="19" yMin="1" xMax="786" yMax="1837">
      <contour>
        <pt x="276" y="1773" on="1"/>
        <pt x="276" y="1782" on="1"/>
        <pt x="276" y="1837" on="0"/>
        <pt x="365" y="1837" on="1"/>
        <pt x="390" y="1837" on="1"/>
        <pt x="433" y="1837" on="0"/>
        <pt x="479" y="1784" on="1"/>
        <pt x="648" y="1591" on="0"/>
        <pt x="648" y="1549" on="1"/>
        <pt x="647" y="1544" on="1"/>
        <pt x="647" y="1515" on="0"/>
        <pt x="619" y="1515" on="1"/>
        <pt x="614" y="1515" on="1"/>
        <pt x="564" y="1515" on="0"/>
        <pt x="383" y="1656" on="1"/>
        <pt x="276" y="1739" on="0"/>
      </contour>
      <contour>
        <pt x="72" y="1" on="1"/>
        <pt x="19" y="1" on="0"/>
        <pt x="19" y="59" on="0"/>
        <pt x="170" y="120" on="0"/>
        <pt x="189" y="168" on="1"/>
        <pt x="199" y="193" on="0"/>
        <pt x="401" y="1182" on="0"/>
        <pt x="401" y="1278" on="0"/>
        <pt x="354" y="1303" on="1"/>
        <pt x="277" y="1344" on="0"/>
        <pt x="277" y="1364" on="1"/>
        <pt x="277" y="1400" on="0"/>
        <pt x="560" y="1400" on="1"/>
        <pt x="714" y="1403" on="1"/>
        <pt x="786" y="1403" on="0"/>
        <pt x="786" y="1345" on="0"/>
        <pt x="634" y="1283" on="0"/>
        <pt x="614" y="1222" on="1"/>
        <pt x="608" y="1205" on="0"/>
        <pt x="407" y="220" on="0"/>
        <pt x="407" y="124" on="0"/>
        <pt x="450" y="101" on="1"/>
        <pt x="527" y="60" on="0"/>
        <pt x="527" y="43" on="1"/>
        <pt x="527" y="4" on="0"/>
        <pt x="313" y="4" on="1"/>
        <pt x="228" y="4" on="1"/>
        <pt x="117" y="1" on="1"/>
      </contour>
    </TTGlyph>
    <TTGlyph name="J" xMin="-31" yMin="-263" xMax="823" yMax="1382">
      <contour>
        <pt x="686" y="1382" on="1"/>
        <pt x="823" y="1382" on="0"/>
        <pt x="823" y="1320" on="1"/>
        <pt x="823" y="1299" on="0"/>
        <pt x="768" y="1226" on="0"/>
        <pt x="768" y="1134" on="0"/>
        <pt x="656" y="710" on="0"/>
        <pt x="656" y="621" on="1"/>
        <pt x="658" y="576" on="1"/>
        <pt x="658" y="516" on="0"/>
        <pt x="606" y="393" on="0"/>
        <pt x="581" y="295" on="1"/>
        <pt x="527" y="79" on="0"/>
        <pt x="380" y="-134" on="0"/>
        <pt x="188" y="-263" on="0"/>
        <pt x="91" y="-263" on="1"/>
        <pt x="70" y="-263" on="1"/>
        <pt x="24" y="-263" on="0"/>
        <pt x="-31" y="-224" on="0"/>
        <pt x="-31" y="-176" on="0"/>
        <pt x="73" y="-120" on="1"/>
        <pt x="145" y="-87" on="1"/>
        <pt x="183" y="-69" on="0"/>
        <pt x="202" y="-51" on="1"/>
        <pt x="254" y="-1" on="0"/>
        <pt x="349" y="198" on="0"/>
        <pt x="360" y="316" on="1"/>
        <pt x="363" y="351" on="0"/>
        <pt x="495" y="738" on="0"/>
        <pt x="495" y="865" on="1"/>
        <pt x="495" y="1230" on="0"/>
        <pt x="405" y="1259" on="1"/>
        <pt x="331" y="1283" on="0"/>
        <pt x="331" y="1319" on="0"/>
        <pt x="360" y="1332" on="1"/>
        <pt x="471" y="1382" on="0"/>
        <pt x="605" y="1382" on="1"/>
      </contour>
    </TTGlyph>
    <TTGlyph name="K" xMin="54" yMin="-16" xMax="1444" yMax="1382">
      <contour>
        <pt x="1093" y="1342" on="1"/>
        <pt x="1093" y="1377" on="0"/>
        <pt x="1212" y="1377" on="1"/>
        <pt x="1444" y="1377" on="0"/>
        <pt x="1444" y="1332" on="1"/>
        <pt x="1444" y="1315" on="0"/>
        <pt x="1232" y="1189" on="0"/>
        <pt x="1172" y="1136" on="1"/>
        <pt x="995" y="980" on="0"/>
        <pt x="877" y="864" on="1"/>
        <pt x="807" y="795" on="0"/>
        <pt x="807" y="733" on="1"/>
        <pt x="807" y="647" on="0"/>
        <pt x="1105" y="232" on="1"/>
        <pt x="1154" y="163" on="0"/>
        <pt x="1316" y="73" on="0"/>
        <pt x="1316" y="54" on="1"/>
        <pt x="1316" y="23" on="0"/>
        <pt x="1206" y="-16" on="0"/>
        <pt x="1003" y="-16" on="0"/>
        <pt x="968" y="26" on="1"/>
        <pt x="950" y="46" on="0"/>
        <pt x="931" y="100" on="1"/>
        <pt x="888" y="221" on="0"/>
        <pt x="710" y="502" on="1"/>
        <pt x="633" y="624" on="0"/>
        <pt x="526" y="624" on="0"/>
        <pt x="442" y="367" on="0"/>
        <pt x="442" y="194" on="0"/>
        <pt x="455" y="144" on="1"/>
        <pt x="465" y="112" on="1"/>
        <pt x="484" y="66" on="1"/>
        <pt x="484" y="27" on="0"/>
        <pt x="371" y="2" on="0"/>
        <pt x="266" y="2" on="1"/>
        <pt x="138" y="-1" on="1"/>
        <pt x="54" y="-1" on="0"/>
        <pt x="54" y="37" on="1"/>
        <pt x="54" y="59" on="0"/>
        <pt x="136" y="93" on="1"/>
        <pt x="185" y="113" on="0"/>
        <pt x="204" y="175" on="1"/>
        <pt x="209" y="191" on="0"/>
        <pt x="393" y="1142" on="0"/>
        <pt x="393" y="1252" on="0"/>
        <pt x="289" y="1327" on="0"/>
        <pt x="289" y="1343" on="1"/>
        <pt x="289" y="1382" on="0"/>
        <pt x="468" y="1382" on="1"/>
        <pt x="606" y="1382" on="1"/>
        <pt x="733" y="1382" on="0"/>
        <pt x="733" y="1339" on="1"/>
        <pt x="733" y="1338" on="0"/>
        <pt x="625" y="1210" on="0"/>
        <pt x="599" y="1132" on="1"/>
        <pt x="542" y="959" on="0"/>
        <pt x="542" y="827" on="1"/>
        <pt x="542" y="783" on="0"/>
        <pt x="578" y="783" on="1"/>
        <pt x="630" y="783" on="0"/>
        <pt x="983" y="1114" on="1"/>
        <pt x="1108" y="1231" on="0"/>
        <pt x="1108" y="1289" on="1"/>
        <pt x="1102" y="1309" on="1"/>
        <pt x="1093" y="1333" on="0"/>
      </contour>
    </TTGlyph>
    <TTGlyph name="L" xMin="44" yMin="-2" xMax="1148" yMax="1385">
      <contour>
        <pt x="424" y="243" on="0"/>
        <pt x="424" y="137" on="0"/>
        <pt x="519" y="108" on="0"/>
        <pt x="803" y="108" on="0"/>
        <pt x="895" y="156" on="1"/>
        <pt x="945" y="182" on="0"/>
        <pt x="1101" y="347" on="0"/>
        <pt x="1120" y="347" on="1"/>
        <pt x="1148" y="347" on="0"/>
        <pt x="1148" y="291" on="0"/>
        <pt x="1083" y="68" on="0"/>
        <pt x="1062" y="42" on="1"/>
        <pt x="1027" y="-2" on="0"/>
        <pt x="920" y="-2" on="1"/>
        <pt x="741" y="-2" on="1"/>
        <pt x="711" y="-1" on="1"/>
        <pt x="619" y="-1" on="1"/>
        <pt x="557" y="0" on="1"/>
        <pt x="496" y="0" on="1"/>
        <pt x="44" y="0" on="0"/>
        <pt x="44" y="32" on="1"/>
        <pt x="44" y="51" on="0"/>
        <pt x="127" y="100" on="1"/>
        <pt x="181" y="132" on="0"/>
        <pt x="229" y="289" on="0"/>
        <pt x="316" y="751" on="0"/>
        <pt x="397" y="1147" on="0"/>
        <pt x="397" y="1213" on="1"/>
        <pt x="397" y="1254" on="0"/>
        <pt x="279" y="1330" on="0"/>
        <pt x="279" y="1385" on="0"/>
        <pt x="337" y="1385" on="1"/>
        <pt x="397" y="1385" on="1"/>
        <pt x="427" y="1384" on="1"/>
        <pt x="664" y="1385" on="1"/>
        <pt x="693" y="1385" on="1"/>
        <pt x="790" y="1385" on="0"/>
        <pt x="790" y="1353" on="1"/>
        <pt x="790" y="1329" on="0"/>
        <pt x="705" y="1285" on="1"/>
        <pt x="642" y="1252" on="0"/>
        <pt x="615" y="1164" on="1"/>
        <pt x="604" y="1129" on="0"/>
      </contour>
    </TTGlyph>
    <TTGlyph name="Lslash" xMin="41" yMin="-4" xMax="1125" yMax="1383">
      <contour>
        <pt x="41" y="21" on="1"/>
        <pt x="41" y="39" on="1"/>
        <pt x="41" y="50" on="0"/>
        <pt x="162" y="118" on="0"/>
        <pt x="185" y="174" on="1"/>
        <pt x="244" y="317" on="0"/>
        <pt x="244" y="441" on="1"/>
        <pt x="244" y="481" on="0"/>
        <pt x="204" y="492" on="1"/>
        <pt x="148" y="508" on="0"/>
        <pt x="148" y="527" on="1"/>
        <pt x="148" y="570" on="0"/>
        <pt x="278" y="690" on="0"/>
        <pt x="289" y="723" on="1"/>
        <pt x="397" y="1052" on="0"/>
        <pt x="397" y="1211" on="1"/>
        <pt x="397" y="1248" on="0"/>
        <pt x="296" y="1320" on="0"/>
        <pt x="296" y="1341" on="1"/>
        <pt x="296" y="1382" on="0"/>
        <pt x="550" y="1382" on="1"/>
        <pt x="584" y="1383" on="1"/>
        <pt x="756" y="1383" on="0"/>
        <pt x="756" y="1343" on="1"/>
        <pt x="756" y="1320" on="0"/>
        <pt x="634" y="1220" on="0"/>
        <pt x="611" y="1162" on="1"/>
        <pt x="547" y="997" on="0"/>
        <pt x="547" y="864" on="1"/>
        <pt x="547" y="809" on="0"/>
        <pt x="584" y="809" on="1"/>
        <pt x="591" y="809" on="0"/>
        <pt x="808" y="890" on="0"/>
        <pt x="851" y="890" on="0"/>
        <pt x="851" y="873" on="1"/>
        <pt x="851" y="826" on="0"/>
        <pt x="549" y="651" on="0"/>
        <pt x="502" y="571" on="1"/>
        <pt x="471" y="518" on="0"/>
        <pt x="415" y="265" on="0"/>
        <pt x="415" y="145" on="0"/>
        <pt x="512" y="98" on="0"/>
        <pt x="790" y="98" on="0"/>
        <pt x="933" y="172" on="0"/>
        <pt x="1082" y="318" on="0"/>
        <pt x="1091" y="318" on="1"/>
        <pt x="1125" y="318" on="0"/>
        <pt x="1125" y="250" on="0"/>
        <pt x="1075" y="74" on="0"/>
        <pt x="1051" y="45" on="1"/>
        <pt x="1012" y="-4" on="0"/>
        <pt x="914" y="-4" on="1"/>
        <pt x="739" y="-4" on="1"/>
        <pt x="667" y="-2" on="1"/>
        <pt x="278" y="1" on="1"/>
        <pt x="242" y="1" on="0"/>
        <pt x="207" y="0" on="1"/>
        <pt x="137" y="-2" on="1"/>
        <pt x="41" y="-2" on="0"/>
      </contour>
    </TTGlyph>
    <TTGlyph name="M" xMin="55" yMin="0" xMax="1880" yMax="1381">
      <contour>
        <pt x="1585" y="184" on="1"/>
        <pt x="1585" y="146" on="0"/>
        <pt x="1680" y="62" on="0"/>
        <pt x="1680" y="51" on="1"/>
        <pt x="1680" y="0" on="0"/>
        <pt x="1460" y="0" on="1"/>
        <pt x="1400" y="0" on="1"/>
        <pt x="1268" y="0" on="0"/>
        <pt x="1268" y="44" on="1"/>
        <pt x="1276" y="66" on="1"/>
        <pt x="1296" y="95" on="1"/>
        <pt x="1319" y="133" on="1"/>
        <pt x="1358" y="202" on="0"/>
        <pt x="1422" y="460" on="0"/>
        <pt x="1513" y="992" on="0"/>
        <pt x="1513" y="1036" on="1"/>
        <pt x="1509" y="1055" on="1"/>
        <pt x="1483" y="1055" on="0"/>
        <pt x="1243" y="668" on="1"/>
        <pt x="1114" y="459" on="1"/>
        <pt x="1067" y="384" on="0"/>
        <pt x="1050" y="356" on="1"/>
        <pt x="952" y="200" on="1"/>
        <pt x="872" y="86" on="0"/>
        <pt x="793" y="86" on="0"/>
        <pt x="770" y="141" on="1"/>
        <pt x="739" y="253" on="1"/>
        <pt x="725" y="311" on="1"/>
        <pt x="710" y="378" on="0"/>
        <pt x="683" y="484" on="0"/>
        <pt x="654" y="606" on="1"/>
        <pt x="550" y="1036" on="0"/>
        <pt x="523" y="1036" on="1"/>
        <pt x="511" y="1036" on="0"/>
        <pt x="489" y="953" on="0"/>
        <pt x="387" y="445" on="1"/>
        <pt x="359" y="305" on="0"/>
        <pt x="359" y="236" on="1"/>
        <pt x="374" y="69" on="1"/>
        <pt x="374" y="24" on="0"/>
        <pt x="308" y="0" on="0"/>
        <pt x="245" y="0" on="1"/>
        <pt x="103" y="0" on="0"/>
        <pt x="67" y="35" on="1"/>
        <pt x="55" y="59" on="1"/>
        <pt x="55" y="83" on="0"/>
        <pt x="182" y="181" on="0"/>
        <pt x="220" y="291" on="0"/>
        <pt x="384" y="1049" on="0"/>
        <pt x="384" y="1183" on="1"/>
        <pt x="384" y="1229" on="0"/>
        <pt x="333" y="1328" on="0"/>
        <pt x="333" y="1329" on="1"/>
        <pt x="333" y="1381" on="0"/>
        <pt x="563" y="1381" on="0"/>
        <pt x="665" y="1320" on="0"/>
        <pt x="724" y="1186" on="0"/>
        <pt x="916" y="418" on="0"/>
        <pt x="939" y="418" on="1"/>
        <pt x="955" y="418" on="0"/>
        <pt x="1433" y="1190" on="0"/>
        <pt x="1562" y="1340" on="0"/>
        <pt x="1666" y="1379" on="0"/>
        <pt x="1880" y="1379" on="0"/>
        <pt x="1880" y="1339" on="1"/>
        <pt x="1856" y="1312" on="1"/>
        <pt x="1816" y="1284" on="1"/>
        <pt x="1764" y="1239" on="0"/>
        <pt x="1721" y="1082" on="0"/>
        <pt x="1585" y="252" on="0"/>
      </contour>
    </TTGlyph>
    <TTGlyph name="N" xMin="46" yMin="-3" xMax="1645" yMax="1382">
      <contour>
        <pt x="286" y="1347" on="1"/>
        <pt x="286" y="1382" on="0"/>
        <pt x="416" y="1382" on="1"/>
        <pt x="477" y="1382" on="0"/>
        <pt x="622" y="1319" on="0"/>
        <pt x="723" y="1182" on="0"/>
        <pt x="1152" y="372" on="0"/>
        <pt x="1178" y="372" on="1"/>
        <pt x="1195" y="372" on="0"/>
        <pt x="1216" y="445" on="0"/>
        <pt x="1323" y="1000" on="0"/>
        <pt x="1323" y="1162" on="1"/>
        <pt x="1323" y="1201" on="0"/>
        <pt x="1271" y="1309" on="0"/>
        <pt x="1271" y="1336" on="1"/>
        <pt x="1271" y="1382" on="0"/>
        <pt x="1405" y="1382" on="1"/>
        <pt x="1449" y="1381" on="1"/>
        <pt x="1496" y="1381" on="1"/>
        <pt x="1645" y="1381" on="0"/>
        <pt x="1645" y="1361" on="1"/>
        <pt x="1645" y="1326" on="0"/>
        <pt x="1588" y="1291" on="1"/>
        <pt x="1500" y="1237" on="0"/>
        <pt x="1477" y="1175" on="1"/>
        <pt x="1470" y="1157" on="0"/>
        <pt x="1350" y="556" on="1"/>
        <pt x="1238" y="-3" on="1"/>
        <pt x="1142" y="-3" on="0"/>
        <pt x="1044" y="153" on="1"/>
        <pt x="1004" y="217" on="0"/>
        <pt x="553" y="1068" on="0"/>
        <pt x="527" y="1068" on="1"/>
        <pt x="512" y="1068" on="0"/>
        <pt x="468" y="900" on="0"/>
        <pt x="368" y="315" on="0"/>
        <pt x="368" y="225" on="1"/>
        <pt x="368" y="185" on="0"/>
        <pt x="400" y="123" on="1"/>
        <pt x="416" y="95" on="1"/>
        <pt x="443" y="53" on="0"/>
        <pt x="443" y="47" on="1"/>
        <pt x="443" y="-2" on="0"/>
        <pt x="46" y="-2" on="0"/>
        <pt x="46" y="44" on="1"/>
        <pt x="46" y="65" on="0"/>
        <pt x="195" y="151" on="0"/>
        <pt x="221" y="245" on="1"/>
        <pt x="235" y="294" on="0"/>
        <pt x="394" y="1091" on="0"/>
        <pt x="394" y="1213" on="0"/>
        <pt x="366" y="1248" on="1"/>
        <pt x="339" y="1273" on="1"/>
        <pt x="311" y="1295" on="1"/>
        <pt x="286" y="1321" on="0"/>
      </contour>
    </TTGlyph>
    <TTGlyph name="Nacute" xMin="44" yMin="1" xMax="1632" yMax="1816">
      <contour>
        <pt x="881" y="1520" on="1"/>
        <pt x="881" y="1529" on="1"/>
        <pt x="881" y="1553" on="0"/>
        <pt x="1177" y="1816" on="0"/>
        <pt x="1214" y="1816" on="1"/>
        <pt x="1225" y="1816" on="1"/>
        <pt x="1262" y="1816" on="0"/>
        <pt x="1314" y="1775" on="0"/>
        <pt x="1314" y="1760" on="1"/>
        <pt x="1314" y="1745" on="1"/>
        <pt x="1314" y="1720" on="0"/>
        <pt x="1215" y="1651" on="1"/>
        <pt x="985" y="1490" on="0"/>
        <pt x="911" y="1490" on="1"/>
        <pt x="906" y="1490" on="1"/>
        <pt x="881" y="1490" on="0"/>
      </contour>
      <contour>
        <pt x="324" y="1" on="1"/>
        <pt x="81" y="1" on="0"/>
        <pt x="51" y="32" on="1"/>
        <pt x="44" y="53" on="1"/>
        <pt x="44" y="64" on="0"/>
        <pt x="173" y="177" on="0"/>
        <pt x="199" y="256" on="1"/>
        <pt x="210" y="291" on="0"/>
        <pt x="345" y="866" on="1"/>
        <pt x="397" y="1088" on="0"/>
        <pt x="397" y="1181" on="1"/>
        <pt x="397" y="1236" on="0"/>
        <pt x="297" y="1342" on="0"/>
        <pt x="297" y="1347" on="1"/>
        <pt x="297" y="1383" on="0"/>
        <pt x="419" y="1383" on="1"/>
        <pt x="467" y="1383" on="0"/>
        <pt x="624" y="1330" on="0"/>
        <pt x="689" y="1261" on="0"/>
        <pt x="1132" y="365" on="0"/>
        <pt x="1160" y="365" on="1"/>
        <pt x="1176" y="387" on="1"/>
        <pt x="1259" y="759" on="1"/>
        <pt x="1331" y="1086" on="0"/>
        <pt x="1331" y="1196" on="0"/>
        <pt x="1266" y="1316" on="0"/>
        <pt x="1266" y="1333" on="1"/>
        <pt x="1266" y="1385" on="0"/>
        <pt x="1369" y="1385" on="1"/>
        <pt x="1632" y="1385" on="0"/>
        <pt x="1632" y="1352" on="1"/>
        <pt x="1632" y="1335" on="0"/>
        <pt x="1590" y="1313" on="1"/>
        <pt x="1516" y="1274" on="1"/>
        <pt x="1480" y="1244" on="0"/>
        <pt x="1436" y="1106" on="0"/>
        <pt x="1328" y="612" on="0"/>
        <pt x="1237" y="219" on="0"/>
        <pt x="1237" y="87" on="1"/>
        <pt x="1237" y="11" on="0"/>
        <pt x="1209" y="11" on="1"/>
        <pt x="1123" y="11" on="0"/>
        <pt x="974" y="229" on="1"/>
        <pt x="957" y="254" on="0"/>
        <pt x="539" y="1080" on="0"/>
        <pt x="506" y="1080" on="0"/>
        <pt x="482" y="995" on="0"/>
        <pt x="326" y="252" on="0"/>
        <pt x="326" y="170" on="0"/>
        <pt x="346" y="126" on="0"/>
        <pt x="437" y="63" on="0"/>
        <pt x="437" y="51" on="1"/>
        <pt x="437" y="1" on="0"/>
      </contour>
    </TTGlyph>
    <TTGlyph name="Ntilde" xMin="30" yMin="-3" xMax="1642" yMax="1775">
      <contour>
        <pt x="870" y="1775" on="1"/>
        <pt x="902" y="1775" on="1"/>
        <pt x="949" y="1775" on="0"/>
        <pt x="1098" y="1682" on="0"/>
        <pt x="1194" y="1682" on="0"/>
        <pt x="1228" y="1711" on="1"/>
        <pt x="1294" y="1767" on="0"/>
        <pt x="1304" y="1767" on="1"/>
        <pt x="1332" y="1767" on="0"/>
        <pt x="1332" y="1741" on="1"/>
        <pt x="1332" y="1733" on="1"/>
        <pt x="1332" y="1677" on="0"/>
        <pt x="1180" y="1548" on="0"/>
        <pt x="1121" y="1548" on="1"/>
        <pt x="1097" y="1548" on="1"/>
        <pt x="1051" y="1548" on="0"/>
        <pt x="884" y="1642" on="0"/>
        <pt x="795" y="1642" on="0"/>
        <pt x="687" y="1559" on="0"/>
        <pt x="684" y="1559" on="1"/>
        <pt x="655" y="1559" on="0"/>
        <pt x="655" y="1584" on="1"/>
        <pt x="655" y="1592" on="1"/>
        <pt x="655" y="1644" on="0"/>
        <pt x="809" y="1775" on="0"/>
      </contour>
      <contour>
        <pt x="277" y="1365" on="1"/>
        <pt x="277" y="1397" on="0"/>
        <pt x="414" y="1397" on="1"/>
        <pt x="478" y="1397" on="0"/>
        <pt x="618" y="1325" on="0"/>
        <pt x="720" y="1180" on="0"/>
        <pt x="1147" y="365" on="0"/>
        <pt x="1172" y="365" on="1"/>
        <pt x="1188" y="381" on="1"/>
        <pt x="1200" y="407" on="0"/>
        <pt x="1322" y="1070" on="0"/>
        <pt x="1322" y="1199" on="0"/>
        <pt x="1267" y="1311" on="0"/>
        <pt x="1267" y="1331" on="1"/>
        <pt x="1267" y="1397" on="0"/>
        <pt x="1366" y="1397" on="1"/>
        <pt x="1408" y="1397" on="1"/>
        <pt x="1452" y="1396" on="1"/>
        <pt x="1642" y="1396" on="0"/>
        <pt x="1642" y="1371" on="1"/>
        <pt x="1642" y="1337" on="0"/>
        <pt x="1492" y="1265" on="0"/>
        <pt x="1447" y="1121" on="0"/>
        <pt x="1225" y="-3" on="0"/>
        <pt x="1220" y="-3" on="1"/>
        <pt x="1133" y="-3" on="0"/>
        <pt x="1008" y="195" on="1"/>
        <pt x="976" y="246" on="0"/>
        <pt x="538" y="1082" on="0"/>
        <pt x="510" y="1082" on="1"/>
        <pt x="499" y="1082" on="0"/>
        <pt x="468" y="971" on="0"/>
        <pt x="340" y="297" on="0"/>
        <pt x="340" y="182" on="0"/>
        <pt x="425" y="55" on="0"/>
        <pt x="425" y="45" on="1"/>
        <pt x="425" y="-2" on="0"/>
        <pt x="98" y="-2" on="0"/>
        <pt x="30" y="22" on="0"/>
        <pt x="30" y="53" on="1"/>
        <pt x="30" y="65" on="0"/>
        <pt x="117" y="116" on="1"/>
        <pt x="166" y="145" on="0"/>
        <pt x="221" y="296" on="0"/>
        <pt x="384" y="1130" on="0"/>
        <pt x="384" y="1232" on="0"/>
        <pt x="354" y="1266" on="1"/>
        <pt x="277" y="1352" on="0"/>
      </contour>
    </TTGlyph>
    <TTGlyph name="O" xMin="120" yMin="-25" xMax="1455" yMax="1401">
      <contour>
        <pt x="665" y="87" on="1"/>
        <pt x="716" y="87" on="1"/>
        <pt x="819" y="87" on="0"/>
        <pt x="1015" y="225" on="0"/>
        <pt x="1160" y="439" on="0"/>
        <pt x="1236" y="710" on="0"/>
        <pt x="1236" y="830" on="1"/>
        <pt x="1236" y="847" on="1"/>
        <pt x="1236" y="948" on="0"/>
        <pt x="1208" y="1034" on="1"/>
        <pt x="1125" y="1291" on="0"/>
        <pt x="893" y="1291" on="1"/>
        <pt x="875" y="1291" on="1"/>
        <pt x="762" y="1291" on="0"/>
        <pt x="667" y="1228" on="1"/>
        <pt x="469" y="1096" on="0"/>
        <pt x="384" y="833" on="1"/>
        <pt x="338" y="690" on="0"/>
        <pt x="338" y="549" on="1"/>
        <pt x="339" y="532" on="1"/>
        <pt x="339" y="345" on="0"/>
        <pt x="429" y="217" on="1"/>
        <pt x="474" y="153" on="0"/>
        <pt x="602" y="87" on="0"/>
      </contour>
      <contour>
        <pt x="899" y="1401" on="1"/>
        <pt x="922" y="1401" on="1"/>
        <pt x="1157" y="1401" on="0"/>
        <pt x="1311" y="1237" on="1"/>
        <pt x="1375" y="1168" on="0"/>
        <pt x="1455" y="956" on="0"/>
        <pt x="1455" y="837" on="1"/>
        <pt x="1455" y="815" on="1"/>
        <pt x="1455" y="672" on="0"/>
        <pt x="1339" y="356" on="0"/>
        <pt x="1117" y="110" on="0"/>
        <pt x="825" y="-25" on="0"/>
        <pt x="676" y="-25" on="1"/>
        <pt x="653" y="-25" on="1"/>
        <pt x="538" y="-25" on="0"/>
        <pt x="442" y="17" on="1"/>
        <pt x="239" y="105" on="0"/>
        <pt x="164" y="303" on="1"/>
        <pt x="120" y="420" on="0"/>
        <pt x="120" y="539" on="1"/>
        <pt x="120" y="562" on="1"/>
        <pt x="120" y="706" on="0"/>
        <pt x="232" y="1013" on="0"/>
        <pt x="451" y="1263" on="0"/>
        <pt x="749" y="1401" on="0"/>
      </contour>
    </TTGlyph>
    <TTGlyph name="OE" xMin="123" yMin="-18" xMax="1894" yMax="1376">
      <contour>
        <pt x="330" y="570" on="1"/>
        <pt x="330" y="503" on="1"/>
        <pt x="330" y="328" on="0"/>
        <pt x="521" y="86" on="0"/>
        <pt x="667" y="86" on="1"/>
        <pt x="698" y="86" on="1"/>
        <pt x="765" y="86" on="0"/>
        <pt x="870" y="138" on="0"/>
        <pt x="903" y="238" on="0"/>
        <pt x="1066" y="1108" on="0"/>
        <pt x="1066" y="1157" on="1"/>
        <pt x="1066" y="1172" on="1"/>
        <pt x="1066" y="1221" on="0"/>
        <pt x="1034" y="1240" on="1"/>
        <pt x="975" y="1276" on="0"/>
        <pt x="893" y="1276" on="1"/>
        <pt x="877" y="1275" on="1"/>
        <pt x="861" y="1275" on="1"/>
        <pt x="637" y="1275" on="0"/>
        <pt x="493" y="1080" on="1"/>
        <pt x="413" y="972" on="0"/>
        <pt x="330" y="686" on="0"/>
      </contour>
      <contour>
        <pt x="123" y="522" on="1"/>
        <pt x="123" y="568" on="1"/>
        <pt x="123" y="705" on="0"/>
        <pt x="244" y="1019" on="0"/>
        <pt x="457" y="1250" on="0"/>
        <pt x="734" y="1376" on="0"/>
        <pt x="884" y="1376" on="1"/>
        <pt x="942" y="1376" on="0"/>
        <pt x="1219" y="1348" on="0"/>
        <pt x="1251" y="1348" on="0"/>
        <pt x="1424" y="1360" on="0"/>
        <pt x="1793" y="1360" on="0"/>
        <pt x="1831" y="1339" on="1"/>
        <pt x="1894" y="1304" on="0"/>
        <pt x="1894" y="1200" on="1"/>
        <pt x="1894" y="1125" on="0"/>
        <pt x="1847" y="1125" on="1"/>
        <pt x="1827" y="1125" on="0"/>
        <pt x="1609" y="1247" on="0"/>
        <pt x="1486" y="1247" on="1"/>
        <pt x="1393" y="1247" on="0"/>
        <pt x="1340" y="1163" on="1"/>
        <pt x="1313" y="1121" on="0"/>
        <pt x="1259" y="924" on="0"/>
        <pt x="1259" y="829" on="0"/>
        <pt x="1326" y="767" on="0"/>
        <pt x="1445" y="767" on="0"/>
        <pt x="1481" y="784" on="1"/>
        <pt x="1542" y="823" on="1"/>
        <pt x="1590" y="853" on="0"/>
        <pt x="1606" y="853" on="1"/>
        <pt x="1656" y="853" on="0"/>
        <pt x="1656" y="795" on="1"/>
        <pt x="1656" y="676" on="0"/>
        <pt x="1591" y="547" on="0"/>
        <pt x="1570" y="547" on="1"/>
        <pt x="1542" y="547" on="0"/>
        <pt x="1445" y="638" on="0"/>
        <pt x="1405" y="638" on="1"/>
        <pt x="1258" y="638" on="0"/>
        <pt x="1164" y="491" on="0"/>
        <pt x="1164" y="249" on="1"/>
        <pt x="1164" y="161" on="0"/>
        <pt x="1211" y="134" on="1"/>
        <pt x="1239" y="118" on="0"/>
        <pt x="1343" y="118" on="1"/>
        <pt x="1520" y="118" on="0"/>
        <pt x="1678" y="221" on="1"/>
        <pt x="1742" y="263" on="0"/>
        <pt x="1748" y="263" on="1"/>
        <pt x="1773" y="263" on="0"/>
        <pt x="1773" y="237" on="1"/>
        <pt x="1773" y="173" on="0"/>
        <pt x="1695" y="52" on="0"/>
        <pt x="1598" y="1" on="0"/>
        <pt x="1317" y="1" on="1"/>
        <pt x="1222" y="1" on="0"/>
        <pt x="1180" y="3" on="1"/>
        <pt x="1101" y="9" on="1"/>
        <pt x="1050" y="13" on="0"/>
        <pt x="983" y="13" on="0"/>
        <pt x="713" y="-18" on="0"/>
        <pt x="666" y="-18" on="1"/>
        <pt x="622" y="-18" on="1"/>
        <pt x="412" y="-18" on="0"/>
        <pt x="123" y="271" on="0"/>
      </contour>
    </TTGlyph>
    <TTGlyph name="Oacute" xMin="121" yMin="-14" xMax="1459" yMax="1838">
      <contour>
        <pt x="914" y="1317" on="1"/>
        <pt x="879" y="1317" on="1"/>
        <pt x="879" y="1317" on="0"/>
        <pt x="876" y="1317" on="1"/>
        <pt x="784" y="1317" on="0"/>
        <pt x="688" y="1264" on="1"/>
        <pt x="482" y="1150" on="0"/>
        <pt x="380" y="852" on="1"/>
        <pt x="334" y="718" on="0"/>
        <pt x="334" y="582" on="1"/>
        <pt x="334" y="565" on="1"/>
        <pt x="335" y="547" on="1"/>
        <pt x="335" y="543" on="0"/>
        <pt x="335" y="540" on="1"/>
        <pt x="335" y="435" on="0"/>
        <pt x="364" y="352" on="1"/>
        <pt x="452" y="96" on="0"/>
        <pt x="684" y="96" on="1"/>
        <pt x="701" y="96" on="1"/>
        <pt x="908" y="96" on="0"/>
        <pt x="1072" y="314" on="1"/>
        <pt x="1148" y="416" on="0"/>
        <pt x="1245" y="698" on="0"/>
        <pt x="1245" y="834" on="1"/>
        <pt x="1245" y="885" on="1"/>
        <pt x="1245" y="1060" on="0"/>
        <pt x="1155" y="1188" on="1"/>
        <pt x="1115" y="1245" on="0"/>
        <pt x="989" y="1317" on="0"/>
      </contour>
      <contour>
        <pt x="844" y="1537" on="1"/>
        <pt x="844" y="1552" on="1"/>
        <pt x="844" y="1555" on="0"/>
        <pt x="1096" y="1838" on="0"/>
        <pt x="1157" y="1838" on="1"/>
        <pt x="1179" y="1838" on="1"/>
        <pt x="1260" y="1838" on="0"/>
        <pt x="1260" y="1790" on="1"/>
        <pt x="1260" y="1785" on="1"/>
        <pt x="1259" y="1780" on="1"/>
        <pt x="1259" y="1755" on="0"/>
        <pt x="1148" y="1669" on="1"/>
        <pt x="951" y="1516" on="0"/>
        <pt x="883" y="1516" on="1"/>
        <pt x="873" y="1516" on="1"/>
        <pt x="844" y="1516" on="0"/>
      </contour>
      <contour>
        <pt x="901" y="1425" on="1"/>
        <pt x="947" y="1425" on="1"/>
        <pt x="1040" y="1425" on="0"/>
        <pt x="1140" y="1384" on="1"/>
        <pt x="1340" y="1302" on="0"/>
        <pt x="1423" y="1076" on="1"/>
        <pt x="1459" y="978" on="0"/>
        <pt x="1459" y="859" on="1"/>
        <pt x="1459" y="837" on="1"/>
        <pt x="1459" y="680" on="0"/>
        <pt x="1335" y="363" on="0"/>
        <pt x="1113" y="117" on="0"/>
        <pt x="821" y="-14" on="0"/>
        <pt x="679" y="-14" on="1"/>
        <pt x="657" y="-14" on="1"/>
        <pt x="420" y="-14" on="0"/>
        <pt x="266" y="152" on="1"/>
        <pt x="199" y="223" on="0"/>
        <pt x="121" y="437" on="0"/>
        <pt x="121" y="554" on="1"/>
        <pt x="122" y="576" on="1"/>
        <pt x="122" y="599" on="1"/>
        <pt x="122" y="751" on="0"/>
        <pt x="259" y="1072" on="0"/>
        <pt x="476" y="1297" on="0"/>
        <pt x="754" y="1425" on="0"/>
      </contour>
    </TTGlyph>
    <TTGlyph name="Ocircumflex" xMin="127" yMin="-18" xMax="1464" yMax="1845">
      <contour>
        <pt x="1250" y="829" on="1"/>
        <pt x="1250" y="881" on="1"/>
        <pt x="1250" y="1072" on="0"/>
        <pt x="1058" y="1313" on="0"/>
        <pt x="902" y="1313" on="1"/>
        <pt x="672" y="1313" on="0"/>
        <pt x="508" y="1090" on="1"/>
        <pt x="426" y="978" on="0"/>
        <pt x="339" y="696" on="0"/>
        <pt x="339" y="560" on="1"/>
        <pt x="340" y="543" on="1"/>
        <pt x="340" y="335" on="0"/>
        <pt x="537" y="91" on="0"/>
        <pt x="689" y="91" on="1"/>
        <pt x="706" y="91" on="1"/>
        <pt x="803" y="91" on="0"/>
        <pt x="996" y="201" on="0"/>
        <pt x="1157" y="418" on="0"/>
        <pt x="1250" y="697" on="0"/>
      </contour>
      <contour>
        <pt x="1001" y="1845" on="1"/>
        <pt x="1045" y="1845" on="0"/>
        <pt x="1071" y="1810" on="1"/>
        <pt x="1229" y="1599" on="0"/>
        <pt x="1229" y="1555" on="1"/>
        <pt x="1229" y="1548" on="1"/>
        <pt x="1229" y="1522" on="0"/>
        <pt x="1195" y="1522" on="1"/>
        <pt x="1188" y="1522" on="1"/>
        <pt x="1152" y="1522" on="0"/>
        <pt x="992" y="1682" on="0"/>
        <pt x="969" y="1682" on="1"/>
        <pt x="968" y="1682" on="0"/>
        <pt x="720" y="1523" on="0"/>
        <pt x="661" y="1523" on="0"/>
        <pt x="661" y="1542" on="1"/>
        <pt x="661" y="1548" on="1"/>
        <pt x="661" y="1560" on="0"/>
        <pt x="972" y="1845" on="0"/>
      </contour>
      <contour>
        <pt x="907" y="1421" on="1"/>
        <pt x="929" y="1421" on="1"/>
        <pt x="1156" y="1421" on="0"/>
        <pt x="1306" y="1271" on="1"/>
        <pt x="1381" y="1196" on="0"/>
        <pt x="1464" y="975" on="0"/>
        <pt x="1464" y="854" on="1"/>
        <pt x="1464" y="810" on="1"/>
        <pt x="1464" y="664" on="0"/>
        <pt x="1398" y="504" on="1"/>
        <pt x="1274" y="204" on="0"/>
        <pt x="1001" y="61" on="1"/>
        <pt x="851" y="-18" on="0"/>
        <pt x="707" y="-18" on="1"/>
        <pt x="639" y="-18" on="1"/>
        <pt x="536" y="-18" on="0"/>
        <pt x="436" y="28" on="1"/>
        <pt x="242" y="118" on="0"/>
        <pt x="170" y="312" on="1"/>
        <pt x="127" y="427" on="0"/>
        <pt x="127" y="527" on="1"/>
        <pt x="127" y="594" on="1"/>
        <pt x="127" y="741" on="0"/>
        <pt x="264" y="1072" on="0"/>
        <pt x="376" y="1184" on="1"/>
        <pt x="613" y="1421" on="0"/>
      </contour>
    </TTGlyph>
    <TTGlyph name="Odieresis" xMin="125" yMin="-16" xMax="1463" yMax="1780">
      <contour>
        <pt x="704" y="94" on="1"/>
        <pt x="916" y="94" on="0"/>
        <pt x="1081" y="319" on="1"/>
        <pt x="1152" y="415" on="0"/>
        <pt x="1249" y="697" on="0"/>
        <pt x="1249" y="848" on="1"/>
        <pt x="1249" y="866" on="1"/>
        <pt x="1249" y="869" on="0"/>
        <pt x="1249" y="873" on="1"/>
        <pt x="1249" y="969" on="0"/>
        <pt x="1222" y="1054" on="1"/>
        <pt x="1140" y="1315" on="0"/>
        <pt x="900" y="1315" on="1"/>
        <pt x="883" y="1315" on="1"/>
        <pt x="776" y="1315" on="0"/>
        <pt x="674" y="1251" on="1"/>
        <pt x="479" y="1129" on="0"/>
        <pt x="384" y="850" on="1"/>
        <pt x="338" y="716" on="0"/>
        <pt x="338" y="579" on="1"/>
        <pt x="338" y="545" on="1"/>
        <pt x="338" y="349" on="0"/>
        <pt x="527" y="94" on="0"/>
        <pt x="670" y="94" on="1"/>
      </contour>
      <contour>
        <pt x="767" y="1779" on="1"/>
        <pt x="789" y="1779" on="1"/>
        <pt x="822" y="1779" on="0"/>
        <pt x="879" y="1722" on="0"/>
        <pt x="879" y="1678" on="1"/>
        <pt x="878" y="1674" on="1"/>
        <pt x="878" y="1667" on="1"/>
        <pt x="875" y="1646" on="1"/>
        <pt x="875" y="1622" on="0"/>
        <pt x="808" y="1555" on="0"/>
        <pt x="770" y="1555" on="1"/>
        <pt x="749" y="1555" on="1"/>
        <pt x="715" y="1555" on="0"/>
        <pt x="663" y="1607" on="0"/>
        <pt x="663" y="1628" on="1"/>
        <pt x="661" y="1634" on="0"/>
        <pt x="661" y="1638" on="1"/>
        <pt x="659" y="1656" on="1"/>
        <pt x="660" y="1659" on="1"/>
        <pt x="660" y="1666" on="1"/>
        <pt x="664" y="1691" on="1"/>
        <pt x="664" y="1713" on="0"/>
        <pt x="730" y="1779" on="0"/>
      </contour>
      <contour>
        <pt x="1255" y="1687" on="1"/>
        <pt x="1255" y="1669" on="1"/>
        <pt x="1255" y="1626" on="0"/>
        <pt x="1184" y="1555" on="0"/>
        <pt x="1148" y="1555" on="1"/>
        <pt x="1127" y="1555" on="1"/>
        <pt x="1093" y="1555" on="0"/>
        <pt x="1036" y="1612" on="0"/>
        <pt x="1036" y="1638" on="1"/>
        <pt x="1035" y="1652" on="1"/>
        <pt x="1035" y="1666" on="1"/>
        <pt x="1035" y="1709" on="0"/>
        <pt x="1106" y="1780" on="0"/>
        <pt x="1145" y="1780" on="1"/>
        <pt x="1163" y="1780" on="1"/>
        <pt x="1198" y="1780" on="0"/>
        <pt x="1255" y="1723" on="0"/>
      </contour>
      <contour>
        <pt x="905" y="1423" on="1"/>
        <pt x="950" y="1423" on="1"/>
        <pt x="952" y="1423" on="0"/>
        <pt x="954" y="1423" on="1"/>
        <pt x="1046" y="1423" on="0"/>
        <pt x="1146" y="1380" on="1"/>
        <pt x="1345" y="1295" on="0"/>
        <pt x="1419" y="1094" on="1"/>
        <pt x="1463" y="977" on="0"/>
        <pt x="1463" y="856" on="1"/>
        <pt x="1463" y="834" on="1"/>
        <pt x="1463" y="689" on="0"/>
        <pt x="1347" y="372" on="0"/>
        <pt x="1131" y="126" on="0"/>
        <pt x="833" y="-16" on="0"/>
        <pt x="683" y="-16" on="1"/>
        <pt x="660" y="-16" on="1"/>
        <pt x="558" y="-16" on="0"/>
        <pt x="457" y="22" on="1"/>
        <pt x="247" y="101" on="0"/>
        <pt x="161" y="334" on="1"/>
        <pt x="125" y="432" on="0"/>
        <pt x="125" y="552" on="1"/>
        <pt x="125" y="574" on="1"/>
        <pt x="125" y="733" on="0"/>
        <pt x="185" y="887" on="1"/>
        <pt x="307" y="1201" on="0"/>
        <pt x="588" y="1345" on="1"/>
        <pt x="740" y="1423" on="0"/>
      </contour>
    </TTGlyph>
    <TTGlyph name="Ograve" xMin="127" yMin="-14" xMax="1464" yMax="1840">
      <contour>
        <pt x="1250" y="833" on="1"/>
        <pt x="1250" y="885" on="1"/>
        <pt x="1250" y="1076" on="0"/>
        <pt x="1058" y="1317" on="0"/>
        <pt x="902" y="1317" on="1"/>
        <pt x="885" y="1317" on="1"/>
        <pt x="784" y="1317" on="0"/>
        <pt x="587" y="1201" on="0"/>
        <pt x="424" y="982" on="0"/>
        <pt x="339" y="701" on="0"/>
        <pt x="339" y="564" on="1"/>
        <pt x="340" y="547" on="1"/>
        <pt x="340" y="356" on="0"/>
        <pt x="431" y="227" on="1"/>
        <pt x="476" y="163" on="0"/>
        <pt x="606" y="96" on="0"/>
        <pt x="671" y="96" on="1"/>
        <pt x="706" y="96" on="1"/>
        <pt x="915" y="96" on="0"/>
        <pt x="1082" y="321" on="1"/>
        <pt x="1154" y="418" on="0"/>
        <pt x="1250" y="698" on="0"/>
      </contour>
      <contour>
        <pt x="669" y="1770" on="1"/>
        <pt x="669" y="1785" on="1"/>
        <pt x="669" y="1840" on="0"/>
        <pt x="768" y="1840" on="1"/>
        <pt x="778" y="1840" on="1"/>
        <pt x="855" y="1840" on="0"/>
        <pt x="983" y="1648" on="1"/>
        <pt x="1040" y="1562" on="0"/>
        <pt x="1040" y="1556" on="1"/>
        <pt x="1040" y="1546" on="1"/>
        <pt x="1040" y="1518" on="0"/>
        <pt x="1016" y="1518" on="1"/>
        <pt x="1002" y="1518" on="1"/>
        <pt x="987" y="1518" on="0"/>
        <pt x="775" y="1659" on="1"/>
        <pt x="669" y="1730" on="0"/>
      </contour>
      <contour>
        <pt x="907" y="1425" on="1"/>
        <pt x="952" y="1425" on="1"/>
        <pt x="954" y="1425" on="0"/>
        <pt x="956" y="1425" on="1"/>
        <pt x="1048" y="1425" on="0"/>
        <pt x="1144" y="1384" on="1"/>
        <pt x="1347" y="1298" on="0"/>
        <pt x="1428" y="1076" on="1"/>
        <pt x="1464" y="978" on="0"/>
        <pt x="1464" y="858" on="1"/>
        <pt x="1464" y="814" on="1"/>
        <pt x="1464" y="668" on="0"/>
        <pt x="1396" y="504" on="1"/>
        <pt x="1267" y="193" on="0"/>
        <pt x="982" y="56" on="1"/>
        <pt x="838" y="-14" on="0"/>
        <pt x="685" y="-14" on="1"/>
        <pt x="662" y="-14" on="1"/>
        <pt x="562" y="-14" on="0"/>
        <pt x="462" y="22" on="1"/>
        <pt x="269" y="93" on="0"/>
        <pt x="178" y="296" on="1"/>
        <pt x="127" y="409" on="0"/>
        <pt x="127" y="531" on="1"/>
        <pt x="127" y="598" on="1"/>
        <pt x="127" y="746" on="0"/>
        <pt x="261" y="1069" on="0"/>
        <pt x="491" y="1306" on="0"/>
        <pt x="770" y="1425" on="0"/>
      </contour>
    </TTGlyph>
    <TTGlyph name="Oslash" xMin="139" yMin="-32" xMax="1451" yMax="1423">
      <contour>
        <pt x="339" y="582" on="1"/>
        <pt x="339" y="539" on="1"/>
        <pt x="339" y="393" on="0"/>
        <pt x="388" y="311" on="1"/>
        <pt x="403" y="286" on="0"/>
        <pt x="418" y="286" on="1"/>
        <pt x="464" y="286" on="0"/>
        <pt x="722" y="635" on="1"/>
        <pt x="1095" y="1140" on="0"/>
        <pt x="1095" y="1178" on="1"/>
        <pt x="1095" y="1189" on="1"/>
        <pt x="1095" y="1234" on="0"/>
        <pt x="990" y="1308" on="0"/>
        <pt x="922" y="1308" on="1"/>
        <pt x="880" y="1308" on="1"/>
        <pt x="787" y="1308" on="0"/>
        <pt x="690" y="1256" on="1"/>
        <pt x="484" y="1144" on="0"/>
        <pt x="384" y="846" on="1"/>
        <pt x="339" y="711" on="0"/>
      </contour>
      <contour>
        <pt x="1238" y="889" on="1"/>
        <pt x="1238" y="943" on="1"/>
        <pt x="1238" y="1038" on="0"/>
        <pt x="1198" y="1113" on="0"/>
        <pt x="1183" y="1113" on="1"/>
        <pt x="1174" y="1113" on="0"/>
        <pt x="800" y="606" on="0"/>
        <pt x="496" y="213" on="0"/>
        <pt x="496" y="197" on="1"/>
        <pt x="496" y="158" on="0"/>
        <pt x="567" y="96" on="0"/>
        <pt x="622" y="96" on="1"/>
        <pt x="661" y="96" on="1"/>
        <pt x="873" y="96" on="0"/>
        <pt x="1053" y="339" on="1"/>
        <pt x="1133" y="447" on="0"/>
        <pt x="1238" y="763" on="0"/>
      </contour>
      <contour>
        <pt x="1378" y="1280" on="0"/>
        <pt x="1378" y="1215" on="0"/>
        <pt x="1451" y="945" on="0"/>
        <pt x="1451" y="865" on="1"/>
        <pt x="1451" y="812" on="1"/>
        <pt x="1451" y="665" on="0"/>
        <pt x="1307" y="320" on="0"/>
        <pt x="1046" y="73" on="0"/>
        <pt x="777" y="-17" on="0"/>
        <pt x="609" y="-17" on="1"/>
        <pt x="565" y="-17" on="0"/>
        <pt x="471" y="1" on="0"/>
        <pt x="350" y="1" on="0"/>
        <pt x="277" y="-32" on="0"/>
        <pt x="255" y="-32" on="1"/>
        <pt x="199" y="-32" on="0"/>
        <pt x="199" y="23" on="1"/>
        <pt x="199" y="47" on="0"/>
        <pt x="225" y="132" on="0"/>
        <pt x="225" y="192" on="0"/>
        <pt x="209" y="238" on="1"/>
        <pt x="191" y="282" on="1"/>
        <pt x="139" y="412" on="0"/>
        <pt x="139" y="532" on="1"/>
        <pt x="139" y="584" on="1"/>
        <pt x="139" y="741" on="0"/>
        <pt x="277" y="1066" on="0"/>
        <pt x="394" y="1186" on="1"/>
        <pt x="622" y="1420" on="0"/>
        <pt x="950" y="1420" on="1"/>
        <pt x="1007" y="1420" on="0"/>
        <pt x="1185" y="1393" on="0"/>
        <pt x="1242" y="1393" on="0"/>
        <pt x="1310" y="1423" on="0"/>
        <pt x="1323" y="1423" on="1"/>
        <pt x="1336" y="1423" on="1"/>
        <pt x="1391" y="1423" on="0"/>
        <pt x="1391" y="1354" on="1"/>
      </contour>
    </TTGlyph>
    <TTGlyph name="Otilde" xMin="126" yMin="-18" xMax="1464" yMax="1784">
      <contour>
        <pt x="919" y="1313" on="1"/>
        <pt x="884" y="1313" on="1"/>
        <pt x="784" y="1313" on="0"/>
        <pt x="686" y="1255" on="1"/>
        <pt x="485" y="1137" on="0"/>
        <pt x="385" y="848" on="1"/>
        <pt x="339" y="714" on="0"/>
        <pt x="339" y="578" on="1"/>
        <pt x="339" y="543" on="1"/>
        <pt x="339" y="350" on="0"/>
        <pt x="527" y="92" on="0"/>
        <pt x="671" y="92" on="1"/>
        <pt x="706" y="92" on="1"/>
        <pt x="806" y="92" on="0"/>
        <pt x="997" y="204" on="0"/>
        <pt x="1153" y="412" on="0"/>
        <pt x="1250" y="694" on="0"/>
        <pt x="1250" y="830" on="1"/>
        <pt x="1250" y="881" on="1"/>
        <pt x="1250" y="1061" on="0"/>
        <pt x="1160" y="1184" on="1"/>
        <pt x="1114" y="1247" on="0"/>
        <pt x="986" y="1313" on="0"/>
      </contour>
      <contour>
        <pt x="1077" y="1556" on="1"/>
        <pt x="1061" y="1556" on="1"/>
        <pt x="1007" y="1556" on="0"/>
        <pt x="856" y="1650" on="0"/>
        <pt x="761" y="1650" on="0"/>
        <pt x="653" y="1567" on="0"/>
        <pt x="649" y="1567" on="1"/>
        <pt x="620" y="1567" on="0"/>
        <pt x="620" y="1592" on="1"/>
        <pt x="620" y="1600" on="1"/>
        <pt x="620" y="1658" on="0"/>
        <pt x="720" y="1737" on="1"/>
        <pt x="780" y="1784" on="0"/>
        <pt x="850" y="1784" on="1"/>
        <pt x="858" y="1783" on="1"/>
        <pt x="907" y="1783" on="0"/>
        <pt x="1072" y="1690" on="0"/>
        <pt x="1161" y="1690" on="0"/>
        <pt x="1254" y="1775" on="0"/>
        <pt x="1268" y="1775" on="1"/>
        <pt x="1297" y="1775" on="0"/>
        <pt x="1297" y="1749" on="1"/>
        <pt x="1297" y="1741" on="1"/>
        <pt x="1297" y="1685" on="0"/>
        <pt x="1145" y="1556" on="0"/>
      </contour>
      <contour>
        <pt x="906" y="1421" on="1"/>
        <pt x="952" y="1421" on="1"/>
        <pt x="956" y="1421" on="1"/>
        <pt x="1058" y="1421" on="0"/>
        <pt x="1154" y="1376" on="1"/>
        <pt x="1355" y="1283" on="0"/>
        <pt x="1428" y="1072" on="1"/>
        <pt x="1464" y="967" on="0"/>
        <pt x="1464" y="855" on="1"/>
        <pt x="1464" y="832" on="1"/>
        <pt x="1464" y="687" on="0"/>
        <pt x="1344" y="357" on="0"/>
        <pt x="1121" y="119" on="0"/>
        <pt x="838" y="-18" on="0"/>
        <pt x="684" y="-18" on="1"/>
        <pt x="662" y="-18" on="1"/>
        <pt x="559" y="-18" on="0"/>
        <pt x="358" y="57" on="0"/>
        <pt x="284" y="134" on="1"/>
        <pt x="126" y="297" on="0"/>
        <pt x="126" y="550" on="1"/>
        <pt x="126" y="572" on="1"/>
        <pt x="126" y="719" on="0"/>
        <pt x="243" y="1039" on="0"/>
        <pt x="457" y="1275" on="0"/>
        <pt x="741" y="1421" on="0"/>
      </contour>
    </TTGlyph>
    <TTGlyph name="P" xMin="49" yMin="-12" xMax="1276" yMax="1398">
      <contour>
        <pt x="798" y="1289" on="1"/>
        <pt x="738" y="1289" on="1"/>
        <pt x="649" y="1289" on="0"/>
        <pt x="605" y="1188" on="0"/>
        <pt x="572" y="977" on="0"/>
        <pt x="522" y="728" on="0"/>
        <pt x="522" y="714" on="1"/>
        <pt x="522" y="706" on="1"/>
        <pt x="522" y="682" on="0"/>
        <pt x="596" y="682" on="1"/>
        <pt x="656" y="682" on="1"/>
        <pt x="836" y="682" on="0"/>
        <pt x="940" y="765" on="1"/>
        <pt x="1070" y="869" on="0"/>
        <pt x="1070" y="1033" on="1"/>
        <pt x="1070" y="1044" on="1"/>
        <pt x="1070" y="1156" on="0"/>
        <pt x="926" y="1289" on="0"/>
      </contour>
      <contour>
        <pt x="49" y="28" on="1"/>
        <pt x="49" y="31" on="0"/>
        <pt x="153" y="126" on="1"/>
        <pt x="202" y="171" on="0"/>
        <pt x="268" y="412" on="0"/>
        <pt x="375" y="1078" on="0"/>
        <pt x="375" y="1224" on="1"/>
        <pt x="375" y="1247" on="0"/>
        <pt x="274" y="1293" on="0"/>
        <pt x="274" y="1322" on="1"/>
        <pt x="274" y="1361" on="0"/>
        <pt x="338" y="1372" on="1"/>
        <pt x="494" y="1398" on="0"/>
        <pt x="734" y="1398" on="1"/>
        <pt x="788" y="1398" on="1"/>
        <pt x="1146" y="1398" on="0"/>
        <pt x="1245" y="1190" on="1"/>
        <pt x="1276" y="1125" on="0"/>
        <pt x="1276" y="928" on="0"/>
        <pt x="1224" y="834" on="1"/>
        <pt x="1117" y="638" on="0"/>
        <pt x="860" y="590" on="1"/>
        <pt x="791" y="577" on="0"/>
        <pt x="613" y="577" on="1"/>
        <pt x="521" y="577" on="0"/>
        <pt x="491" y="529" on="1"/>
        <pt x="433" y="436" on="0"/>
        <pt x="433" y="205" on="1"/>
        <pt x="433" y="152" on="0"/>
        <pt x="552" y="55" on="0"/>
        <pt x="552" y="31" on="1"/>
        <pt x="552" y="-12" on="0"/>
        <pt x="432" y="-12" on="1"/>
        <pt x="378" y="-12" on="1"/>
        <pt x="156" y="-5" on="1"/>
        <pt x="49" y="-5" on="0"/>
      </contour>
    </TTGlyph>
    <TTGlyph name="Q" xMin="124" yMin="-295" xMax="1462" yMax="1395">
      <contour>
        <pt x="1256" y="778" on="1"/>
        <pt x="1256" y="811" on="1"/>
        <pt x="1256" y="1021" on="0"/>
        <pt x="1131" y="1163" on="1"/>
        <pt x="1032" y="1274" on="0"/>
        <pt x="881" y="1274" on="1"/>
        <pt x="863" y="1274" on="1"/>
        <pt x="669" y="1274" on="0"/>
        <pt x="512" y="1087" on="1"/>
        <pt x="432" y="992" on="0"/>
        <pt x="336" y="713" on="0"/>
        <pt x="336" y="601" on="1"/>
        <pt x="336" y="551" on="1"/>
        <pt x="336" y="360" on="0"/>
        <pt x="544" y="87" on="0"/>
        <pt x="711" y="87" on="1"/>
        <pt x="728" y="87" on="1"/>
        <pt x="730" y="87" on="0"/>
        <pt x="731" y="87" on="1"/>
        <pt x="831" y="87" on="0"/>
        <pt x="928" y="144" on="1"/>
        <pt x="1121" y="256" on="0"/>
        <pt x="1209" y="513" on="1"/>
        <pt x="1256" y="650" on="0"/>
      </contour>
      <contour>
        <pt x="1423" y="-157" on="0"/>
        <pt x="1423" y="-203" on="0"/>
        <pt x="1371" y="-232" on="1"/>
        <pt x="1258" y="-295" on="0"/>
        <pt x="1077" y="-295" on="0"/>
        <pt x="983" y="-250" on="1"/>
        <pt x="402" y="28" on="0"/>
        <pt x="221" y="180" on="0"/>
        <pt x="124" y="419" on="0"/>
        <pt x="124" y="550" on="1"/>
        <pt x="124" y="579" on="1"/>
        <pt x="124" y="727" on="0"/>
        <pt x="186" y="883" on="1"/>
        <pt x="248" y="1038" on="0"/>
        <pt x="358" y="1154" on="1"/>
        <pt x="586" y="1394" on="0"/>
        <pt x="912" y="1395" on="1"/>
        <pt x="1140" y="1395" on="0"/>
        <pt x="1298" y="1241" on="1"/>
        <pt x="1373" y="1168" on="0"/>
        <pt x="1462" y="937" on="0"/>
        <pt x="1462" y="833" on="1"/>
        <pt x="1462" y="775" on="1"/>
        <pt x="1462" y="691" on="0"/>
        <pt x="1433" y="577" on="1"/>
        <pt x="1367" y="318" on="0"/>
        <pt x="1165" y="152" on="1"/>
        <pt x="997" y="15" on="0"/>
        <pt x="997" y="13" on="1"/>
        <pt x="997" y="-23" on="0"/>
        <pt x="1154" y="-97" on="1"/>
        <pt x="1228" y="-132" on="0"/>
        <pt x="1275" y="-137" on="1"/>
        <pt x="1298" y="-138" on="1"/>
        <pt x="1301" y="-138" on="0"/>
        <pt x="1396" y="-145" on="0"/>
        <pt x="1401" y="-147" on="1"/>
      </contour>
    </TTGlyph>
    <TTGlyph name="R" xMin="23" yMin="-8" xMax="1251" yMax="1387">
      <contour>
        <pt x="678" y="1283" on="1"/>
        <pt x="615" y="1283" on="0"/>
        <pt x="596" y="1223" on="1"/>
        <pt x="507" y="938" on="0"/>
        <pt x="507" y="760" on="1"/>
        <pt x="507" y="752" on="1"/>
        <pt x="507" y="726" on="0"/>
        <pt x="573" y="726" on="1"/>
        <pt x="619" y="726" on="1"/>
        <pt x="880" y="726" on="0"/>
        <pt x="976" y="906" on="1"/>
        <pt x="1010" y="969" on="0"/>
        <pt x="1010" y="1040" on="1"/>
        <pt x="1010" y="1077" on="1"/>
        <pt x="1010" y="1172" on="0"/>
        <pt x="862" y="1286" on="0"/>
        <pt x="742" y="1286" on="1"/>
        <pt x="723" y="1286" on="1"/>
        <pt x="696" y="1283" on="0"/>
      </contour>
      <contour>
        <pt x="1251" y="52" on="1"/>
        <pt x="1251" y="-8" on="0"/>
        <pt x="1066" y="-8" on="1"/>
        <pt x="1035" y="-8" on="1"/>
        <pt x="937" y="-8" on="0"/>
        <pt x="870" y="101" on="1"/>
        <pt x="832" y="164" on="0"/>
        <pt x="733" y="483" on="0"/>
        <pt x="701" y="535" on="1"/>
        <pt x="656" y="607" on="0"/>
        <pt x="548" y="607" on="1"/>
        <pt x="491" y="607" on="0"/>
        <pt x="465" y="512" on="1"/>
        <pt x="420" y="346" on="0"/>
        <pt x="420" y="208" on="1"/>
        <pt x="420" y="166" on="0"/>
        <pt x="486" y="58" on="0"/>
        <pt x="486" y="45" on="1"/>
        <pt x="486" y="-1" on="0"/>
        <pt x="172" y="-1" on="1"/>
        <pt x="51" y="-1" on="0"/>
        <pt x="23" y="13" on="0"/>
        <pt x="23" y="41" on="1"/>
        <pt x="23" y="60" on="0"/>
        <pt x="144" y="117" on="0"/>
        <pt x="176" y="156" on="0"/>
        <pt x="196" y="230" on="0"/>
        <pt x="219" y="350" on="1"/>
        <pt x="251" y="520" on="1"/>
        <pt x="257" y="553" on="0"/>
        <pt x="264" y="587" on="1"/>
        <pt x="316" y="856" on="1"/>
        <pt x="366" y="1114" on="0"/>
        <pt x="366" y="1209" on="1"/>
        <pt x="366" y="1256" on="0"/>
        <pt x="275" y="1317" on="0"/>
        <pt x="275" y="1348" on="1"/>
        <pt x="275" y="1386" on="0"/>
        <pt x="601" y="1386" on="1"/>
        <pt x="703" y="1387" on="1"/>
        <pt x="772" y="1387" on="1"/>
        <pt x="1084" y="1387" on="0"/>
        <pt x="1177" y="1213" on="1"/>
        <pt x="1212" y="1148" on="0"/>
        <pt x="1212" y="942" on="0"/>
        <pt x="1091" y="761" on="0"/>
        <pt x="895" y="629" on="0"/>
        <pt x="895" y="602" on="1"/>
        <pt x="895" y="570" on="0"/>
        <pt x="1041" y="230" on="0"/>
        <pt x="1107" y="135" on="0"/>
        <pt x="1154" y="115" on="1"/>
        <pt x="1251" y="74" on="0"/>
      </contour>
    </TTGlyph>
    <TTGlyph name="S" xMin="72" yMin="-16" xMax="1072" yMax="1401">
      <contour>
        <pt x="694" y="1401" on="1"/>
        <pt x="764" y="1401" on="0"/>
        <pt x="922" y="1365" on="0"/>
        <pt x="1041" y="1365" on="0"/>
        <pt x="1072" y="1323" on="0"/>
        <pt x="1072" y="1288" on="1"/>
        <pt x="1072" y="1258" on="1"/>
        <pt x="1072" y="1147" on="0"/>
        <pt x="1036" y="1074" on="1"/>
        <pt x="1021" y="1044" on="0"/>
        <pt x="1001" y="1044" on="1"/>
        <pt x="972" y="1044" on="0"/>
        <pt x="884" y="1205" on="0"/>
        <pt x="772" y="1286" on="0"/>
        <pt x="577" y="1286" on="0"/>
        <pt x="443" y="1160" on="0"/>
        <pt x="443" y="985" on="0"/>
        <pt x="522" y="911" on="1"/>
        <pt x="567" y="869" on="0"/>
        <pt x="868" y="698" on="0"/>
        <pt x="993" y="530" on="0"/>
        <pt x="993" y="395" on="1"/>
        <pt x="993" y="393" on="0"/>
        <pt x="993" y="391" on="1"/>
        <pt x="993" y="311" on="0"/>
        <pt x="954" y="235" on="1"/>
        <pt x="914" y="156" on="0"/>
        <pt x="846" y="102" on="1"/>
        <pt x="699" y="-16" on="0"/>
        <pt x="501" y="-16" on="1"/>
        <pt x="466" y="-16" on="1"/>
        <pt x="292" y="-16" on="0"/>
        <pt x="122" y="45" on="1"/>
        <pt x="72" y="63" on="0"/>
        <pt x="72" y="133" on="1"/>
        <pt x="72" y="165" on="1"/>
        <pt x="72" y="249" on="0"/>
        <pt x="113" y="375" on="0"/>
        <pt x="151" y="375" on="1"/>
        <pt x="172" y="375" on="0"/>
        <pt x="263" y="199" on="0"/>
        <pt x="312" y="160" on="1"/>
        <pt x="392" y="97" on="0"/>
        <pt x="629" y="97" on="0"/>
        <pt x="790" y="232" on="0"/>
        <pt x="790" y="433" on="0"/>
        <pt x="713" y="508" on="1"/>
        <pt x="675" y="545" on="0"/>
        <pt x="396" y="714" on="0"/>
        <pt x="250" y="879" on="0"/>
        <pt x="250" y="983" on="1"/>
        <pt x="250" y="1181" on="0"/>
        <pt x="517" y="1401" on="0"/>
      </contour>
    </TTGlyph>
    <TTGlyph name="Scaron" xMin="59" yMin="-13" xMax="1066" yMax="1833">
      <contour>
        <pt x="721" y="1514" on="1"/>
        <pt x="706" y="1514" on="1"/>
        <pt x="676" y="1514" on="0"/>
        <pt x="635" y="1585" on="1"/>
        <pt x="624" y="1604" on="0"/>
        <pt x="513" y="1785" on="0"/>
        <pt x="513" y="1797" on="1"/>
        <pt x="513" y="1833" on="0"/>
        <pt x="553" y="1833" on="1"/>
        <pt x="576" y="1833" on="0"/>
        <pt x="748" y="1676" on="0"/>
        <pt x="777" y="1676" on="0"/>
        <pt x="1003" y="1832" on="0"/>
        <pt x="1066" y="1832" on="0"/>
        <pt x="1066" y="1815" on="1"/>
        <pt x="1066" y="1802" on="1"/>
        <pt x="1066" y="1792" on="0"/>
        <pt x="762" y="1514" on="0"/>
      </contour>
      <contour>
        <pt x="1045" y="1320" on="0"/>
        <pt x="1045" y="1145" on="0"/>
        <pt x="1008" y="1071" on="1"/>
        <pt x="992" y="1040" on="0"/>
        <pt x="970" y="1040" on="1"/>
        <pt x="939" y="1040" on="0"/>
        <pt x="860" y="1216" on="0"/>
        <pt x="749" y="1303" on="0"/>
        <pt x="573" y="1303" on="0"/>
        <pt x="437" y="1195" on="0"/>
        <pt x="437" y="1002" on="0"/>
        <pt x="519" y="922" on="1"/>
        <pt x="557" y="885" on="0"/>
        <pt x="825" y="703" on="0"/>
        <pt x="952" y="535" on="0"/>
        <pt x="952" y="434" on="1"/>
        <pt x="952" y="246" on="0"/>
        <pt x="830" y="126" on="1"/>
        <pt x="763" y="61" on="0"/>
        <pt x="564" y="-13" on="0"/>
        <pt x="470" y="-13" on="1"/>
        <pt x="436" y="-13" on="1"/>
        <pt x="383" y="-13" on="0"/>
        <pt x="221" y="24" on="0"/>
        <pt x="123" y="34" on="0"/>
        <pt x="100" y="45" on="1"/>
        <pt x="59" y="64" on="0"/>
        <pt x="59" y="170" on="1"/>
        <pt x="59" y="200" on="1"/>
        <pt x="59" y="292" on="0"/>
        <pt x="91" y="352" on="1"/>
        <pt x="107" y="382" on="0"/>
        <pt x="144" y="382" on="1"/>
        <pt x="156" y="382" on="0"/>
        <pt x="248" y="191" on="0"/>
        <pt x="297" y="153" on="1"/>
        <pt x="375" y="93" on="0"/>
        <pt x="600" y="93" on="0"/>
        <pt x="747" y="237" on="0"/>
        <pt x="747" y="430" on="0"/>
        <pt x="664" y="513" on="1"/>
        <pt x="656" y="521" on="0"/>
        <pt x="361" y="744" on="0"/>
        <pt x="245" y="901" on="0"/>
        <pt x="245" y="1003" on="1"/>
        <pt x="245" y="1199" on="0"/>
        <pt x="514" y="1409" on="0"/>
        <pt x="689" y="1409" on="1"/>
        <pt x="751" y="1409" on="0"/>
        <pt x="890" y="1371" on="0"/>
        <pt x="912" y="1371" on="1"/>
        <pt x="939" y="1372" on="1"/>
        <pt x="967" y="1375" on="1"/>
        <pt x="1022" y="1375" on="0"/>
      </contour>
    </TTGlyph>
    <TTGlyph name="T" xMin="173" yMin="-1" xMax="1398" yMax="1386">
      <contour>
        <pt x="195" y="1055" on="1"/>
        <pt x="173" y="1055" on="0"/>
        <pt x="173" y="1086" on="1"/>
        <pt x="173" y="1115" on="1"/>
        <pt x="173" y="1156" on="0"/>
        <pt x="224" y="1339" on="0"/>
        <pt x="264" y="1386" on="0"/>
        <pt x="350" y="1386" on="1"/>
        <pt x="585" y="1386" on="1"/>
        <pt x="619" y="1385" on="1"/>
        <pt x="1193" y="1383" on="1"/>
        <pt x="1227" y="1383" on="0"/>
        <pt x="1261" y="1384" on="1"/>
        <pt x="1325" y="1386" on="1"/>
        <pt x="1354" y="1386" on="1"/>
        <pt x="1398" y="1386" on="0"/>
        <pt x="1398" y="1349" on="1"/>
        <pt x="1398" y="1324" on="1"/>
        <pt x="1398" y="1156" on="0"/>
        <pt x="1359" y="1095" on="1"/>
        <pt x="1344" y="1071" on="0"/>
        <pt x="1306" y="1071" on="0"/>
        <pt x="1251" y="1192" on="0"/>
        <pt x="1216" y="1217" on="1"/>
        <pt x="1150" y="1265" on="0"/>
        <pt x="1021" y="1265" on="1"/>
        <pt x="964" y="1265" on="0"/>
        <pt x="906" y="1226" on="0"/>
        <pt x="857" y="1036" on="0"/>
        <pt x="719" y="254" on="0"/>
        <pt x="719" y="141" on="0"/>
        <pt x="763" y="110" on="1"/>
        <pt x="842" y="55" on="0"/>
        <pt x="842" y="35" on="1"/>
        <pt x="842" y="-1" on="0"/>
        <pt x="757" y="-1" on="1"/>
        <pt x="723" y="-1" on="1"/>
        <pt x="689" y="0" on="1"/>
        <pt x="422" y="-1" on="1"/>
        <pt x="389" y="-1" on="1"/>
        <pt x="311" y="-1" on="0"/>
        <pt x="311" y="34" on="1"/>
        <pt x="311" y="48" on="0"/>
        <pt x="411" y="108" on="1"/>
        <pt x="464" y="140" on="0"/>
        <pt x="512" y="288" on="0"/>
        <pt x="680" y="1154" on="0"/>
        <pt x="680" y="1203" on="1"/>
        <pt x="680" y="1269" on="0"/>
        <pt x="592" y="1269" on="1"/>
        <pt x="453" y="1269" on="0"/>
        <pt x="327" y="1200" on="0"/>
        <pt x="237" y="1055" on="0"/>
      </contour>
    </TTGlyph>
    <TTGlyph name="Thorn" xMin="32" yMin="7" xMax="1180" yMax="1411">
      <contour>
        <pt x="458" y="458" on="1"/>
        <pt x="458" y="441" on="1"/>
        <pt x="458" y="407" on="0"/>
        <pt x="542" y="407" on="1"/>
        <pt x="569" y="407" on="1"/>
        <pt x="736" y="407" on="0"/>
        <pt x="847" y="518" on="1"/>
        <pt x="892" y="563" on="0"/>
        <pt x="957" y="709" on="0"/>
        <pt x="957" y="793" on="1"/>
        <pt x="957" y="824" on="1"/>
        <pt x="957" y="911" on="0"/>
        <pt x="824" y="1044" on="0"/>
        <pt x="728" y="1044" on="1"/>
        <pt x="700" y="1044" on="1"/>
        <pt x="589" y="1044" on="0"/>
        <pt x="563" y="985" on="1"/>
        <pt x="562" y="983" on="0"/>
        <pt x="458" y="488" on="0"/>
      </contour>
      <contour>
        <pt x="82" y="7" on="1"/>
        <pt x="32" y="7" on="0"/>
        <pt x="32" y="32" on="1"/>
        <pt x="32" y="68" on="0"/>
        <pt x="187" y="131" on="0"/>
        <pt x="233" y="248" on="0"/>
        <pt x="431" y="1221" on="0"/>
        <pt x="431" y="1242" on="1"/>
        <pt x="431" y="1289" on="0"/>
        <pt x="307" y="1338" on="0"/>
        <pt x="307" y="1379" on="1"/>
        <pt x="307" y="1408" on="0"/>
        <pt x="529" y="1408" on="1"/>
        <pt x="632" y="1410" on="1"/>
        <pt x="658" y="1411" on="1"/>
        <pt x="765" y="1411" on="0"/>
        <pt x="765" y="1371" on="1"/>
        <pt x="765" y="1351" on="0"/>
        <pt x="641" y="1259" on="0"/>
        <pt x="641" y="1204" on="1"/>
        <pt x="641" y="1171" on="0"/>
        <pt x="678" y="1155" on="1"/>
        <pt x="691" y="1150" on="0"/>
        <pt x="987" y="1105" on="0"/>
        <pt x="1052" y="1057" on="1"/>
        <pt x="1180" y="962" on="0"/>
        <pt x="1180" y="791" on="1"/>
        <pt x="1180" y="580" on="0"/>
        <pt x="1003" y="441" on="1"/>
        <pt x="852" y="322" on="0"/>
        <pt x="593" y="322" on="1"/>
        <pt x="567" y="323" on="1"/>
        <pt x="539" y="324" on="0"/>
        <pt x="466" y="324" on="0"/>
        <pt x="448" y="302" on="1"/>
        <pt x="406" y="249" on="0"/>
        <pt x="406" y="165" on="1"/>
        <pt x="406" y="133" on="0"/>
        <pt x="521" y="78" on="0"/>
        <pt x="521" y="51" on="1"/>
        <pt x="521" y="8" on="0"/>
        <pt x="395" y="8" on="1"/>
        <pt x="343" y="10" on="1"/>
        <pt x="291" y="10" on="1"/>
        <pt x="133" y="7" on="1"/>
      </contour>
    </TTGlyph>
    <TTGlyph name="U" xMin="239" yMin="-9" xMax="1573" yMax="1382">
      <contour>
        <pt x="242" y="1322" on="1"/>
        <pt x="242" y="1362" on="0"/>
        <pt x="362" y="1380" on="0"/>
        <pt x="602" y="1380" on="1"/>
        <pt x="710" y="1380" on="0"/>
        <pt x="710" y="1331" on="0"/>
        <pt x="599" y="1244" on="0"/>
        <pt x="582" y="1178" on="1"/>
        <pt x="439" y="606" on="0"/>
        <pt x="439" y="399" on="1"/>
        <pt x="439" y="267" on="0"/>
        <pt x="594" y="112" on="0"/>
        <pt x="717" y="112" on="1"/>
        <pt x="967" y="112" on="0"/>
        <pt x="1080" y="322" on="1"/>
        <pt x="1134" y="422" on="0"/>
        <pt x="1262" y="1056" on="0"/>
        <pt x="1262" y="1211" on="0"/>
        <pt x="1170" y="1324" on="0"/>
        <pt x="1170" y="1339" on="1"/>
        <pt x="1170" y="1382" on="0"/>
        <pt x="1254" y="1382" on="1"/>
        <pt x="1370" y="1382" on="1"/>
        <pt x="1484" y="1382" on="0"/>
        <pt x="1522" y="1376" on="1"/>
        <pt x="1573" y="1368" on="0"/>
        <pt x="1573" y="1330" on="1"/>
        <pt x="1573" y="1302" on="0"/>
        <pt x="1443" y="1231" on="0"/>
        <pt x="1421" y="1170" on="1"/>
        <pt x="1418" y="1161" on="0"/>
        <pt x="1242" y="344" on="0"/>
        <pt x="1102" y="112" on="0"/>
        <pt x="846" y="-9" on="0"/>
        <pt x="699" y="-9" on="1"/>
        <pt x="657" y="-9" on="1"/>
        <pt x="654" y="-9" on="0"/>
        <pt x="651" y="-9" on="1"/>
        <pt x="553" y="-9" on="0"/>
        <pt x="474" y="24" on="1"/>
        <pt x="240" y="119" on="0"/>
        <pt x="239" y="391" on="1"/>
        <pt x="239" y="467" on="0"/>
        <pt x="304" y="897" on="0"/>
        <pt x="319" y="973" on="1"/>
        <pt x="351" y="1128" on="1"/>
        <pt x="355" y="1164" on="1"/>
        <pt x="355" y="1223" on="0"/>
        <pt x="330" y="1246" on="1"/>
        <pt x="306" y="1263" on="1"/>
        <pt x="279" y="1279" on="1"/>
        <pt x="242" y="1303" on="0"/>
      </contour>
    </TTGlyph>
    <TTGlyph name="Uacute" xMin="232" yMin="-3" xMax="1577" yMax="1836">
      <contour>
        <pt x="907" y="1513" on="1"/>
        <pt x="897" y="1513" on="1"/>
        <pt x="867" y="1513" on="0"/>
        <pt x="867" y="1539" on="1"/>
        <pt x="867" y="1544" on="1"/>
        <pt x="867" y="1561" on="0"/>
        <pt x="898" y="1592" on="0"/>
        <pt x="914" y="1610" on="0"/>
        <pt x="917" y="1613" on="1"/>
        <pt x="965" y="1662" on="1"/>
        <pt x="973" y="1670" on="0"/>
        <pt x="981" y="1680" on="0"/>
        <pt x="1013" y="1712" on="0"/>
        <pt x="1066" y="1773" on="0"/>
        <pt x="1082" y="1785" on="1"/>
        <pt x="1148" y="1836" on="0"/>
        <pt x="1191" y="1836" on="1"/>
        <pt x="1283" y="1836" on="0"/>
        <pt x="1283" y="1792" on="1"/>
        <pt x="1283" y="1777" on="1"/>
        <pt x="1283" y="1753" on="0"/>
        <pt x="1167" y="1663" on="1"/>
        <pt x="974" y="1513" on="0"/>
      </contour>
      <contour>
        <pt x="232" y="392" on="1"/>
        <pt x="232" y="474" on="0"/>
        <pt x="303" y="936" on="0"/>
        <pt x="351" y="1173" on="0"/>
        <pt x="351" y="1252" on="0"/>
        <pt x="242" y="1325" on="0"/>
        <pt x="242" y="1398" on="0"/>
        <pt x="633" y="1398" on="1"/>
        <pt x="708" y="1398" on="0"/>
        <pt x="708" y="1352" on="0"/>
        <pt x="589" y="1261" on="0"/>
        <pt x="555" y="1137" on="0"/>
        <pt x="429" y="479" on="0"/>
        <pt x="429" y="401" on="1"/>
        <pt x="429" y="268" on="0"/>
        <pt x="585" y="115" on="0"/>
        <pt x="720" y="115" on="1"/>
        <pt x="961" y="115" on="0"/>
        <pt x="1076" y="328" on="1"/>
        <pt x="1133" y="434" on="0"/>
        <pt x="1266" y="1099" on="0"/>
        <pt x="1266" y="1189" on="1"/>
        <pt x="1266" y="1232" on="0"/>
        <pt x="1173" y="1349" on="0"/>
        <pt x="1173" y="1358" on="1"/>
        <pt x="1173" y="1401" on="0"/>
        <pt x="1293" y="1401" on="1"/>
        <pt x="1332" y="1401" on="1"/>
        <pt x="1470" y="1401" on="0"/>
        <pt x="1577" y="1383" on="0"/>
        <pt x="1577" y="1347" on="1"/>
        <pt x="1577" y="1319" on="0"/>
        <pt x="1446" y="1256" on="0"/>
        <pt x="1420" y="1196" on="0"/>
        <pt x="1279" y="543" on="0"/>
        <pt x="1259" y="468" on="1"/>
        <pt x="1216" y="305" on="0"/>
        <pt x="1079" y="110" on="0"/>
        <pt x="839" y="-3" on="0"/>
        <pt x="693" y="-3" on="1"/>
        <pt x="651" y="-3" on="1"/>
        <pt x="550" y="-3" on="0"/>
        <pt x="457" y="35" on="1"/>
        <pt x="232" y="127" on="0"/>
      </contour>
    </TTGlyph>
    <TTGlyph name="Ucircumflex" xMin="232" yMin="-5" xMax="1577" yMax="1844">
      <contour>
        <pt x="1023" y="1844" on="1"/>
        <pt x="1030" y="1844" on="1"/>
        <pt x="1071" y="1844" on="0"/>
        <pt x="1119" y="1770" on="1"/>
        <pt x="1251" y="1565" on="0"/>
        <pt x="1251" y="1554" on="1"/>
        <pt x="1251" y="1548" on="1"/>
        <pt x="1251" y="1521" on="0"/>
        <pt x="1216" y="1521" on="1"/>
        <pt x="1210" y="1521" on="1"/>
        <pt x="1181" y="1521" on="0"/>
        <pt x="1005" y="1682" on="0"/>
        <pt x="991" y="1682" on="1"/>
        <pt x="990" y="1682" on="0"/>
        <pt x="743" y="1523" on="0"/>
        <pt x="683" y="1523" on="0"/>
        <pt x="683" y="1541" on="1"/>
        <pt x="683" y="1548" on="1"/>
        <pt x="833" y="1698" on="1"/>
        <pt x="979" y="1844" on="0"/>
      </contour>
      <contour>
        <pt x="232" y="388" on="1"/>
        <pt x="232" y="468" on="0"/>
        <pt x="302" y="928" on="0"/>
        <pt x="351" y="1171" on="0"/>
        <pt x="351" y="1250" on="0"/>
        <pt x="242" y="1323" on="0"/>
        <pt x="242" y="1396" on="0"/>
        <pt x="597" y="1396" on="1"/>
        <pt x="708" y="1396" on="0"/>
        <pt x="708" y="1350" on="0"/>
        <pt x="589" y="1259" on="0"/>
        <pt x="555" y="1135" on="0"/>
        <pt x="429" y="477" on="0"/>
        <pt x="429" y="399" on="1"/>
        <pt x="429" y="265" on="0"/>
        <pt x="585" y="112" on="0"/>
        <pt x="719" y="112" on="1"/>
        <pt x="981" y="112" on="0"/>
        <pt x="1094" y="361" on="1"/>
        <pt x="1130" y="439" on="0"/>
        <pt x="1266" y="1073" on="0"/>
        <pt x="1266" y="1187" on="1"/>
        <pt x="1266" y="1230" on="0"/>
        <pt x="1173" y="1347" on="0"/>
        <pt x="1173" y="1356" on="1"/>
        <pt x="1173" y="1399" on="0"/>
        <pt x="1293" y="1399" on="1"/>
        <pt x="1332" y="1399" on="1"/>
        <pt x="1465" y="1399" on="0"/>
        <pt x="1577" y="1382" on="0"/>
        <pt x="1577" y="1345" on="1"/>
        <pt x="1577" y="1316" on="0"/>
        <pt x="1445" y="1253" on="0"/>
        <pt x="1420" y="1196" on="0"/>
        <pt x="1239" y="355" on="0"/>
        <pt x="1097" y="116" on="0"/>
        <pt x="839" y="-5" on="0"/>
        <pt x="693" y="-5" on="1"/>
        <pt x="651" y="-5" on="1"/>
        <pt x="448" y="-5" on="0"/>
        <pt x="331" y="116" on="1"/>
        <pt x="232" y="217" on="0"/>
      </contour>
    </TTGlyph>
    <TTGlyph name="Udieresis" xMin="230" yMin="-5" xMax="1575" yMax="1780">
      <contour>
        <pt x="809" y="1780" on="1"/>
        <pt x="845" y="1780" on="0"/>
        <pt x="899" y="1726" on="0"/>
        <pt x="899" y="1702" on="1"/>
        <pt x="902" y="1682" on="1"/>
        <pt x="902" y="1671" on="1"/>
        <pt x="901" y="1667" on="1"/>
        <pt x="901" y="1660" on="1"/>
        <pt x="899" y="1654" on="0"/>
        <pt x="899" y="1650" on="1"/>
        <pt x="899" y="1623" on="0"/>
        <pt x="834" y="1558" on="0"/>
        <pt x="807" y="1558" on="1"/>
        <pt x="786" y="1555" on="1"/>
        <pt x="779" y="1555" on="1"/>
        <pt x="739" y="1555" on="0"/>
        <pt x="682" y="1612" on="0"/>
        <pt x="682" y="1653" on="1"/>
        <pt x="682" y="1656" on="1"/>
        <pt x="682" y="1708" on="0"/>
        <pt x="750" y="1776" on="0"/>
        <pt x="774" y="1776" on="1"/>
        <pt x="780" y="1778" on="0"/>
        <pt x="784" y="1778" on="1"/>
        <pt x="798" y="1780" on="1"/>
      </contour>
      <contour>
        <pt x="1157" y="1555" on="1"/>
        <pt x="1118" y="1555" on="0"/>
        <pt x="1060" y="1613" on="0"/>
        <pt x="1060" y="1647" on="1"/>
        <pt x="1060" y="1668" on="1"/>
        <pt x="1060" y="1710" on="0"/>
        <pt x="1130" y="1780" on="0"/>
        <pt x="1165" y="1780" on="1"/>
        <pt x="1194" y="1780" on="1"/>
        <pt x="1224" y="1780" on="0"/>
        <pt x="1280" y="1724" on="0"/>
        <pt x="1280" y="1693" on="1"/>
        <pt x="1280" y="1665" on="1"/>
        <pt x="1280" y="1627" on="0"/>
        <pt x="1212" y="1559" on="0"/>
        <pt x="1188" y="1559" on="1"/>
        <pt x="1182" y="1557" on="0"/>
        <pt x="1178" y="1557" on="1"/>
        <pt x="1161" y="1555" on="1"/>
      </contour>
      <contour>
        <pt x="349" y="1171" on="0"/>
        <pt x="349" y="1249" on="0"/>
        <pt x="240" y="1322" on="0"/>
        <pt x="240" y="1393" on="0"/>
        <pt x="478" y="1393" on="1"/>
        <pt x="517" y="1395" on="1"/>
        <pt x="543" y="1396" on="0"/>
        <pt x="706" y="1396" on="0"/>
        <pt x="706" y="1371" on="1"/>
        <pt x="706" y="1352" on="0"/>
        <pt x="586" y="1256" on="0"/>
        <pt x="550" y="1122" on="0"/>
        <pt x="426" y="477" on="0"/>
        <pt x="426" y="399" on="1"/>
        <pt x="426" y="268" on="0"/>
        <pt x="582" y="112" on="0"/>
        <pt x="706" y="112" on="1"/>
        <pt x="958" y="112" on="0"/>
        <pt x="1074" y="326" on="1"/>
        <pt x="1130" y="430" on="0"/>
        <pt x="1264" y="1092" on="0"/>
        <pt x="1264" y="1187" on="1"/>
        <pt x="1264" y="1227" on="0"/>
        <pt x="1171" y="1348" on="0"/>
        <pt x="1171" y="1356" on="1"/>
        <pt x="1171" y="1399" on="0"/>
        <pt x="1290" y="1399" on="1"/>
        <pt x="1329" y="1399" on="1"/>
        <pt x="1462" y="1399" on="0"/>
        <pt x="1575" y="1381" on="0"/>
        <pt x="1575" y="1344" on="1"/>
        <pt x="1575" y="1317" on="0"/>
        <pt x="1444" y="1254" on="0"/>
        <pt x="1417" y="1194" on="0"/>
        <pt x="1236" y="352" on="0"/>
        <pt x="1096" y="118" on="0"/>
        <pt x="839" y="-5" on="0"/>
        <pt x="690" y="-5" on="1"/>
        <pt x="648" y="-5" on="1"/>
        <pt x="472" y="-5" on="0"/>
        <pt x="230" y="195" on="0"/>
        <pt x="230" y="359" on="1"/>
        <pt x="230" y="400" on="1"/>
        <pt x="230" y="492" on="0"/>
        <pt x="278" y="784" on="1"/>
        <pt x="311" y="983" on="1"/>
      </contour>
    </TTGlyph>
    <TTGlyph name="Ugrave" xMin="232" yMin="-3" xMax="1577" yMax="1837">
      <contour>
        <pt x="1026" y="1553" on="1"/>
        <pt x="1026" y="1544" on="1"/>
        <pt x="1026" y="1515" on="0"/>
        <pt x="997" y="1515" on="1"/>
        <pt x="992" y="1515" on="1"/>
        <pt x="921" y="1515" on="0"/>
        <pt x="748" y="1666" on="1"/>
        <pt x="654" y="1748" on="0"/>
        <pt x="654" y="1777" on="1"/>
        <pt x="654" y="1837" on="0"/>
        <pt x="748" y="1837" on="1"/>
        <pt x="769" y="1837" on="1"/>
        <pt x="816" y="1837" on="0"/>
        <pt x="897" y="1733" on="1"/>
        <pt x="1026" y="1567" on="0"/>
      </contour>
      <contour>
        <pt x="232" y="390" on="1"/>
        <pt x="232" y="470" on="0"/>
        <pt x="302" y="930" on="0"/>
        <pt x="351" y="1173" on="0"/>
        <pt x="351" y="1252" on="0"/>
        <pt x="242" y="1325" on="0"/>
        <pt x="242" y="1398" on="0"/>
        <pt x="633" y="1398" on="1"/>
        <pt x="708" y="1398" on="0"/>
        <pt x="708" y="1353" on="0"/>
        <pt x="589" y="1259" on="0"/>
        <pt x="552" y="1127" on="0"/>
        <pt x="429" y="478" on="0"/>
        <pt x="429" y="401" on="1"/>
        <pt x="429" y="267" on="0"/>
        <pt x="587" y="115" on="0"/>
        <pt x="720" y="115" on="1"/>
        <pt x="978" y="115" on="0"/>
        <pt x="1094" y="364" on="1"/>
        <pt x="1130" y="440" on="0"/>
        <pt x="1266" y="1075" on="0"/>
        <pt x="1266" y="1189" on="1"/>
        <pt x="1266" y="1231" on="0"/>
        <pt x="1173" y="1350" on="0"/>
        <pt x="1173" y="1358" on="1"/>
        <pt x="1173" y="1402" on="0"/>
        <pt x="1293" y="1402" on="1"/>
        <pt x="1464" y="1402" on="0"/>
        <pt x="1577" y="1383" on="0"/>
        <pt x="1577" y="1347" on="1"/>
        <pt x="1577" y="1319" on="0"/>
        <pt x="1446" y="1256" on="0"/>
        <pt x="1420" y="1198" on="0"/>
        <pt x="1239" y="356" on="0"/>
        <pt x="1175" y="250" on="1"/>
        <pt x="1095" y="117" on="0"/>
        <pt x="839" y="-3" on="0"/>
        <pt x="693" y="-3" on="1"/>
        <pt x="651" y="-3" on="1"/>
        <pt x="550" y="-3" on="0"/>
        <pt x="457" y="35" on="1"/>
        <pt x="232" y="127" on="0"/>
      </contour>
    </TTGlyph>
    <TTGlyph name="V" xMin="216" yMin="2" xMax="1576" yMax="1383">
      <contour>
        <pt x="1177" y="1321" on="1"/>
        <pt x="1177" y="1360" on="0"/>
        <pt x="1284" y="1383" on="0"/>
        <pt x="1576" y="1383" on="0"/>
        <pt x="1576" y="1337" on="1"/>
        <pt x="1576" y="1312" on="0"/>
        <pt x="1430" y="1234" on="0"/>
        <pt x="1374" y="1160" on="0"/>
        <pt x="807" y="231" on="0"/>
        <pt x="749" y="148" on="1"/>
        <pt x="647" y="2" on="0"/>
        <pt x="585" y="2" on="1"/>
        <pt x="505" y="2" on="0"/>
        <pt x="472" y="183" on="1"/>
        <pt x="469" y="199" on="0"/>
        <pt x="451" y="351" on="0"/>
        <pt x="442" y="420" on="1"/>
        <pt x="429" y="525" on="1"/>
        <pt x="424" y="567" on="0"/>
        <pt x="420" y="595" on="1"/>
        <pt x="412" y="664" on="1"/>
        <pt x="349" y="1147" on="0"/>
        <pt x="327" y="1230" on="0"/>
        <pt x="216" y="1320" on="0"/>
        <pt x="216" y="1341" on="1"/>
        <pt x="216" y="1380" on="0"/>
        <pt x="447" y="1380" on="1"/>
        <pt x="579" y="1380" on="0"/>
        <pt x="606" y="1376" on="1"/>
        <pt x="663" y="1368" on="0"/>
        <pt x="663" y="1332" on="1"/>
        <pt x="663" y="1329" on="0"/>
        <pt x="589" y="1222" on="0"/>
        <pt x="589" y="1144" on="1"/>
        <pt x="589" y="1000" on="0"/>
        <pt x="674" y="335" on="0"/>
        <pt x="687" y="300" on="0"/>
        <pt x="702" y="300" on="1"/>
        <pt x="740" y="300" on="0"/>
        <pt x="1116" y="973" on="1"/>
        <pt x="1219" y="1157" on="0"/>
        <pt x="1219" y="1230" on="1"/>
        <pt x="1219" y="1250" on="0"/>
        <pt x="1177" y="1313" on="0"/>
      </contour>
    </TTGlyph>
    <TTGlyph name="W" xMin="279" yMin="28" xMax="2058" yMax="1371">
      <contour>
        <pt x="413" y="1371" on="1"/>
        <pt x="617" y="1371" on="0"/>
        <pt x="617" y="1236" on="1"/>
        <pt x="617" y="1228" on="0"/>
        <pt x="581" y="1040" on="0"/>
        <pt x="581" y="616" on="0"/>
        <pt x="611" y="448" on="0"/>
        <pt x="660" y="448" on="1"/>
        <pt x="702" y="448" on="0"/>
        <pt x="751" y="520" on="1"/>
        <pt x="854" y="671" on="0"/>
        <pt x="1000" y="992" on="0"/>
        <pt x="1000" y="1119" on="1"/>
        <pt x="997" y="1162" on="1"/>
        <pt x="990" y="1202" on="1"/>
        <pt x="990" y="1269" on="0"/>
        <pt x="1108" y="1358" on="0"/>
        <pt x="1249" y="1358" on="0"/>
        <pt x="1325" y="1309" on="0"/>
        <pt x="1325" y="1225" on="1"/>
        <pt x="1315" y="1184" on="1"/>
        <pt x="1302" y="1141" on="1"/>
        <pt x="1291" y="1099" on="0"/>
        <pt x="1291" y="962" on="0"/>
        <pt x="1337" y="479" on="0"/>
        <pt x="1352" y="444" on="0"/>
        <pt x="1370" y="444" on="1"/>
        <pt x="1413" y="444" on="0"/>
        <pt x="1453" y="510" on="1"/>
        <pt x="1555" y="678" on="0"/>
        <pt x="1714" y="1022" on="0"/>
        <pt x="1732" y="1103" on="1"/>
        <pt x="1740" y="1145" on="1"/>
        <pt x="1742" y="1181" on="1"/>
        <pt x="1758" y="1291" on="0"/>
        <pt x="1871" y="1341" on="1"/>
        <pt x="1922" y="1363" on="0"/>
        <pt x="2058" y="1363" on="0"/>
        <pt x="2058" y="1313" on="1"/>
        <pt x="2058" y="1289" on="1"/>
        <pt x="2058" y="1273" on="0"/>
        <pt x="1990" y="1157" on="0"/>
        <pt x="1904" y="1048" on="0"/>
        <pt x="1860" y="969" on="1"/>
        <pt x="1723" y="711" on="1"/>
        <pt x="1490" y="275" on="0"/>
        <pt x="1393" y="128" on="0"/>
        <pt x="1287" y="69" on="0"/>
        <pt x="1263" y="69" on="1"/>
        <pt x="1194" y="69" on="0"/>
        <pt x="1158" y="195" on="1"/>
        <pt x="1132" y="288" on="0"/>
        <pt x="1087" y="860" on="0"/>
        <pt x="1064" y="860" on="1"/>
        <pt x="1042" y="827" on="1"/>
        <pt x="1002" y="764" on="0"/>
        <pt x="663" y="168" on="0"/>
        <pt x="555" y="28" on="0"/>
        <pt x="438" y="28" on="0"/>
        <pt x="417" y="103" on="1"/>
        <pt x="408" y="135" on="0"/>
        <pt x="358" y="943" on="0"/>
        <pt x="344" y="1076" on="0"/>
        <pt x="279" y="1264" on="0"/>
        <pt x="279" y="1279" on="1"/>
        <pt x="279" y="1371" on="0"/>
      </contour>
    </TTGlyph>
    <TTGlyph name="X" xMin="15" yMin="0" xMax="1491" yMax="1383">
      <contour>
        <pt x="618" y="1373" on="1"/>
        <pt x="704" y="1373" on="0"/>
        <pt x="704" y="1337" on="1"/>
        <pt x="704" y="1330" on="0"/>
        <pt x="653" y="1270" on="0"/>
        <pt x="653" y="1247" on="1"/>
        <pt x="653" y="1156" on="0"/>
        <pt x="771" y="938" on="1"/>
        <pt x="802" y="881" on="0"/>
        <pt x="812" y="881" on="1"/>
        <pt x="864" y="881" on="0"/>
        <pt x="1112" y="1193" on="0"/>
        <pt x="1112" y="1253" on="1"/>
        <pt x="1101" y="1276" on="1"/>
        <pt x="1083" y="1310" on="0"/>
        <pt x="1083" y="1319" on="1"/>
        <pt x="1083" y="1360" on="0"/>
        <pt x="1165" y="1383" on="0"/>
        <pt x="1242" y="1383" on="1"/>
        <pt x="1491" y="1383" on="0"/>
        <pt x="1491" y="1312" on="0"/>
        <pt x="1321" y="1245" on="0"/>
        <pt x="1252" y="1173" on="1"/>
        <pt x="1078" y="991" on="0"/>
        <pt x="931" y="803" on="1"/>
        <pt x="892" y="753" on="0"/>
        <pt x="892" y="699" on="1"/>
        <pt x="892" y="682" on="0"/>
        <pt x="1093" y="233" on="0"/>
        <pt x="1160" y="132" on="0"/>
        <pt x="1292" y="67" on="0"/>
        <pt x="1292" y="55" on="1"/>
        <pt x="1292" y="0" on="0"/>
        <pt x="984" y="0" on="1"/>
        <pt x="942" y="0" on="1"/>
        <pt x="826" y="0" on="0"/>
        <pt x="826" y="32" on="1"/>
        <pt x="826" y="54" on="0"/>
        <pt x="875" y="122" on="0"/>
        <pt x="875" y="150" on="1"/>
        <pt x="875" y="270" on="0"/>
        <pt x="747" y="500" on="1"/>
        <pt x="720" y="549" on="0"/>
        <pt x="705" y="549" on="1"/>
        <pt x="680" y="533" on="1"/>
        <pt x="560" y="431" on="0"/>
        <pt x="432" y="236" on="1"/>
        <pt x="387" y="167" on="0"/>
        <pt x="387" y="111" on="1"/>
        <pt x="398" y="90" on="1"/>
        <pt x="413" y="61" on="0"/>
        <pt x="413" y="24" on="0"/>
        <pt x="373" y="2" on="0"/>
        <pt x="15" y="2" on="0"/>
        <pt x="15" y="70" on="0"/>
        <pt x="190" y="152" on="0"/>
        <pt x="285" y="256" on="1"/>
        <pt x="631" y="636" on="0"/>
        <pt x="631" y="729" on="1"/>
        <pt x="631" y="759" on="0"/>
        <pt x="590" y="845" on="1"/>
        <pt x="458" y="1123" on="0"/>
        <pt x="384" y="1234" on="0"/>
        <pt x="265" y="1291" on="0"/>
        <pt x="265" y="1322" on="1"/>
        <pt x="278" y="1337" on="1"/>
        <pt x="347" y="1373" on="0"/>
      </contour>
    </TTGlyph>
    <TTGlyph name="Y" xMin="218" yMin="-2" xMax="1419" yMax="1349">
      <contour>
        <pt x="218" y="1290" on="0"/>
        <pt x="218" y="1336" on="0"/>
        <pt x="368" y="1336" on="1"/>
        <pt x="425" y="1336" on="0"/>
        <pt x="523" y="1348" on="0"/>
        <pt x="540" y="1348" on="1"/>
        <pt x="595" y="1348" on="0"/>
        <pt x="595" y="1313" on="1"/>
        <pt x="595" y="1301" on="0"/>
        <pt x="569" y="1249" on="0"/>
        <pt x="569" y="1237" on="1"/>
        <pt x="569" y="1182" on="0"/>
        <pt x="730" y="848" on="1"/>
        <pt x="757" y="791" on="0"/>
        <pt x="770" y="791" on="1"/>
        <pt x="796" y="791" on="0"/>
        <pt x="905" y="936" on="1"/>
        <pt x="1121" y="1222" on="0"/>
        <pt x="1121" y="1269" on="1"/>
        <pt x="1121" y="1279" on="0"/>
        <pt x="1115" y="1297" on="1"/>
        <pt x="1108" y="1317" on="1"/>
        <pt x="1108" y="1349" on="0"/>
        <pt x="1156" y="1349" on="1"/>
        <pt x="1179" y="1349" on="1"/>
        <pt x="1227" y="1347" on="1"/>
        <pt x="1278" y="1348" on="1"/>
        <pt x="1419" y="1348" on="0"/>
        <pt x="1419" y="1317" on="1"/>
        <pt x="1419" y="1294" on="0"/>
        <pt x="1269" y="1228" on="0"/>
        <pt x="1230" y="1185" on="1"/>
        <pt x="1016" y="946" on="0"/>
        <pt x="839" y="632" on="1"/>
        <pt x="807" y="576" on="0"/>
        <pt x="747" y="323" on="0"/>
        <pt x="747" y="137" on="0"/>
        <pt x="784" y="103" on="1"/>
        <pt x="853" y="40" on="0"/>
        <pt x="853" y="29" on="1"/>
        <pt x="853" y="-2" on="0"/>
        <pt x="761" y="-2" on="1"/>
        <pt x="726" y="-1" on="1"/>
        <pt x="493" y="-1" on="1"/>
        <pt x="459" y="-2" on="1"/>
        <pt x="426" y="-2" on="1"/>
        <pt x="341" y="-2" on="0"/>
        <pt x="341" y="53" on="0"/>
        <pt x="486" y="143" on="0"/>
        <pt x="508" y="201" on="1"/>
        <pt x="570" y="363" on="0"/>
        <pt x="570" y="583" on="1"/>
        <pt x="570" y="632" on="0"/>
        <pt x="453" y="1008" on="0"/>
        <pt x="386" y="1148" on="1"/>
        <pt x="352" y="1219" on="0"/>
      </contour>
    </TTGlyph>
    <TTGlyph name="Yacute" xMin="217" yMin="3" xMax="1407" yMax="1835">
      <contour>
        <pt x="818" y="1512" on="1"/>
        <pt x="808" y="1512" on="1"/>
        <pt x="778" y="1512" on="0"/>
        <pt x="778" y="1538" on="1"/>
        <pt x="778" y="1543" on="1"/>
        <pt x="778" y="1560" on="0"/>
        <pt x="822" y="1604" on="0"/>
        <pt x="836" y="1620" on="0"/>
        <pt x="846" y="1630" on="1"/>
        <pt x="876" y="1661" on="1"/>
        <pt x="880" y="1665" on="0"/>
        <pt x="896" y="1683" on="0"/>
        <pt x="932" y="1719" on="0"/>
        <pt x="980" y="1774" on="0"/>
        <pt x="993" y="1784" on="1"/>
        <pt x="1059" y="1835" on="0"/>
        <pt x="1103" y="1835" on="1"/>
        <pt x="1195" y="1835" on="0"/>
        <pt x="1195" y="1786" on="1"/>
        <pt x="1195" y="1781" on="1"/>
        <pt x="1195" y="1753" on="0"/>
        <pt x="1082" y="1665" on="1"/>
        <pt x="885" y="1512" on="0"/>
      </contour>
      <contour>
        <pt x="1175" y="1368" on="1"/>
        <pt x="1407" y="1368" on="0"/>
        <pt x="1407" y="1330" on="1"/>
        <pt x="1407" y="1312" on="0"/>
        <pt x="1254" y="1247" on="0"/>
        <pt x="1199" y="1180" on="1"/>
        <pt x="980" y="914" on="0"/>
        <pt x="829" y="650" on="1"/>
        <pt x="793" y="586" on="0"/>
        <pt x="726" y="289" on="0"/>
        <pt x="726" y="177" on="1"/>
        <pt x="726" y="135" on="0"/>
        <pt x="842" y="63" on="0"/>
        <pt x="842" y="3" on="0"/>
        <pt x="753" y="3" on="1"/>
        <pt x="719" y="3" on="1"/>
        <pt x="684" y="4" on="1"/>
        <pt x="417" y="3" on="1"/>
        <pt x="335" y="3" on="0"/>
        <pt x="335" y="36" on="1"/>
        <pt x="335" y="60" on="0"/>
        <pt x="475" y="141" on="0"/>
        <pt x="500" y="207" on="1"/>
        <pt x="563" y="374" on="0"/>
        <pt x="563" y="594" on="1"/>
        <pt x="563" y="646" on="0"/>
        <pt x="448" y="1034" on="0"/>
        <pt x="387" y="1160" on="1"/>
        <pt x="351" y="1234" on="0"/>
        <pt x="217" y="1307" on="0"/>
        <pt x="217" y="1351" on="0"/>
        <pt x="431" y="1351" on="0"/>
        <pt x="519" y="1361" on="0"/>
        <pt x="528" y="1361" on="1"/>
        <pt x="579" y="1361" on="0"/>
        <pt x="579" y="1326" on="1"/>
        <pt x="579" y="1320" on="0"/>
        <pt x="556" y="1277" on="0"/>
        <pt x="556" y="1217" on="0"/>
        <pt x="708" y="896" on="1"/>
        <pt x="747" y="813" on="0"/>
        <pt x="761" y="813" on="1"/>
        <pt x="792" y="813" on="0"/>
        <pt x="915" y="977" on="1"/>
        <pt x="1117" y="1246" on="0"/>
        <pt x="1117" y="1286" on="1"/>
        <pt x="1103" y="1338" on="1"/>
        <pt x="1103" y="1368" on="0"/>
      </contour>
    </TTGlyph>
    <TTGlyph name="Ydieresis" xMin="218" yMin="-16" xMax="1369" yMax="1745">
      <contour>
        <pt x="644" y="1519" on="0"/>
        <pt x="616" y="1519" on="0"/>
        <pt x="568" y="1567" on="0"/>
        <pt x="568" y="1603" on="1"/>
        <pt x="568" y="1624" on="1"/>
        <pt x="568" y="1672" on="0"/>
        <pt x="640" y="1744" on="0"/>
        <pt x="688" y="1744" on="1"/>
        <pt x="691" y="1744" on="1"/>
        <pt x="695" y="1743" on="1"/>
        <pt x="735" y="1743" on="0"/>
        <pt x="788" y="1690" on="0"/>
        <pt x="788" y="1649" on="1"/>
        <pt x="788" y="1638" on="1"/>
        <pt x="788" y="1595" on="0"/>
        <pt x="722" y="1516" on="0"/>
        <pt x="682" y="1516" on="1"/>
        <pt x="653" y="1516" on="1"/>
      </contour>
      <contour>
        <pt x="1157" y="1614" on="1"/>
        <pt x="1157" y="1586" on="0"/>
        <pt x="1087" y="1516" on="0"/>
        <pt x="1054" y="1516" on="1"/>
        <pt x="1025" y="1516" on="1"/>
        <pt x="999" y="1516" on="0"/>
        <pt x="943" y="1561" on="0"/>
        <pt x="943" y="1586" on="1"/>
        <pt x="941" y="1594" on="0"/>
        <pt x="941" y="1597" on="1"/>
        <pt x="939" y="1614" on="1"/>
        <pt x="939" y="1622" on="1"/>
        <pt x="940" y="1625" on="1"/>
        <pt x="940" y="1632" on="1"/>
        <pt x="942" y="1640" on="0"/>
        <pt x="942" y="1643" on="1"/>
        <pt x="942" y="1676" on="0"/>
        <pt x="1011" y="1745" on="0"/>
        <pt x="1059" y="1745" on="1"/>
        <pt x="1091" y="1741" on="1"/>
        <pt x="1110" y="1741" on="0"/>
        <pt x="1157" y="1694" on="0"/>
        <pt x="1157" y="1671" on="1"/>
        <pt x="1160" y="1653" on="1"/>
        <pt x="1160" y="1632" on="1"/>
        <pt x="1157" y="1620" on="0"/>
      </contour>
      <contour>
        <pt x="1142" y="1318" on="1"/>
        <pt x="1165" y="1318" on="1"/>
        <pt x="1369" y="1318" on="0"/>
        <pt x="1369" y="1274" on="1"/>
        <pt x="1369" y="1260" on="0"/>
        <pt x="1225" y="1201" on="0"/>
        <pt x="1186" y="1158" on="1"/>
        <pt x="1049" y="1007" on="0"/>
        <pt x="821" y="642" on="1"/>
        <pt x="776" y="569" on="0"/>
        <pt x="755" y="464" on="1"/>
        <pt x="712" y="246" on="0"/>
        <pt x="712" y="128" on="0"/>
        <pt x="752" y="96" on="1"/>
        <pt x="832" y="32" on="0"/>
        <pt x="832" y="12" on="1"/>
        <pt x="832" y="-13" on="0"/>
        <pt x="604" y="-13" on="1"/>
        <pt x="476" y="-14" on="1"/>
        <pt x="408" y="-16" on="1"/>
        <pt x="375" y="-16" on="1"/>
        <pt x="316" y="-16" on="0"/>
        <pt x="316" y="15" on="1"/>
        <pt x="316" y="40" on="0"/>
        <pt x="447" y="112" on="0"/>
        <pt x="495" y="209" on="0"/>
        <pt x="556" y="473" on="0"/>
        <pt x="556" y="584" on="1"/>
        <pt x="556" y="616" on="0"/>
        <pt x="438" y="1023" on="0"/>
        <pt x="377" y="1137" on="1"/>
        <pt x="350" y="1188" on="0"/>
        <pt x="218" y="1264" on="0"/>
        <pt x="218" y="1273" on="1"/>
        <pt x="218" y="1293" on="0"/>
        <pt x="378" y="1293" on="0"/>
        <pt x="501" y="1314" on="0"/>
        <pt x="508" y="1314" on="1"/>
        <pt x="557" y="1314" on="0"/>
        <pt x="557" y="1287" on="1"/>
        <pt x="557" y="1282" on="0"/>
        <pt x="535" y="1246" on="0"/>
        <pt x="535" y="1206" on="0"/>
        <pt x="695" y="886" on="1"/>
        <pt x="737" y="803" on="0"/>
        <pt x="765" y="803" on="1"/>
        <pt x="780" y="803" on="0"/>
        <pt x="1102" y="1224" on="0"/>
        <pt x="1102" y="1234" on="1"/>
        <pt x="1090" y="1291" on="1"/>
        <pt x="1090" y="1318" on="0"/>
      </contour>
    </TTGlyph>
    <TTGlyph name="Z" xMin="57" yMin="-16" xMax="1289" yMax="1380">
      <contour>
        <pt x="1289" y="1335" on="1"/>
        <pt x="1289" y="1317" on="0"/>
        <pt x="360" y="136" on="0"/>
        <pt x="360" y="132" on="1"/>
        <pt x="360" y="111" on="0"/>
        <pt x="864" y="111" on="0"/>
        <pt x="1020" y="185" on="0"/>
        <pt x="1060" y="243" on="1"/>
        <pt x="1130" y="344" on="0"/>
        <pt x="1179" y="344" on="0"/>
        <pt x="1179" y="310" on="1"/>
        <pt x="1179" y="232" on="0"/>
        <pt x="1119" y="52" on="0"/>
        <pt x="1096" y="27" on="1"/>
        <pt x="1057" y="-16" on="0"/>
        <pt x="962" y="-16" on="1"/>
        <pt x="881" y="-16" on="1"/>
        <pt x="855" y="-16" on="0"/>
        <pt x="800" y="-14" on="1"/>
        <pt x="758" y="-12" on="1"/>
        <pt x="629" y="-6" on="0"/>
        <pt x="470" y="-6" on="1"/>
        <pt x="348" y="-6" on="1"/>
        <pt x="267" y="-8" on="1"/>
        <pt x="114" y="-8" on="0"/>
        <pt x="57" y="21" on="0"/>
        <pt x="57" y="88" on="0"/>
        <pt x="96" y="146" on="1"/>
        <pt x="256" y="385" on="0"/>
        <pt x="489" y="640" on="1"/>
        <pt x="978" y="1173" on="0"/>
        <pt x="978" y="1225" on="1"/>
        <pt x="978" y="1259" on="0"/>
        <pt x="845" y="1259" on="1"/>
        <pt x="588" y="1259" on="0"/>
        <pt x="498" y="1214" on="1"/>
        <pt x="445" y="1187" on="0"/>
        <pt x="335" y="1054" on="0"/>
        <pt x="311" y="1054" on="1"/>
        <pt x="270" y="1054" on="0"/>
        <pt x="270" y="1193" on="0"/>
        <pt x="326" y="1339" on="0"/>
        <pt x="383" y="1377" on="0"/>
        <pt x="613" y="1377" on="1"/>
        <pt x="901" y="1373" on="1"/>
        <pt x="941" y="1373" on="0"/>
        <pt x="1024" y="1375" on="1"/>
        <pt x="1189" y="1380" on="1"/>
        <pt x="1289" y="1380" on="0"/>
      </contour>
    </TTGlyph>
    <TTGlyph name="Zcaron" xMin="47" yMin="-30" xMax="1277" yMax="1796">
      <contour>
        <pt x="800" y="1482" on="1"/>
        <pt x="776" y="1482" on="0"/>
        <pt x="701" y="1612" on="0"/>
        <pt x="615" y="1737" on="0"/>
        <pt x="615" y="1753" on="1"/>
        <pt x="615" y="1759" on="1"/>
        <pt x="615" y="1796" on="0"/>
        <pt x="655" y="1796" on="1"/>
        <pt x="679" y="1796" on="0"/>
        <pt x="846" y="1643" on="0"/>
        <pt x="876" y="1643" on="0"/>
        <pt x="978" y="1714" on="0"/>
        <pt x="1119" y="1794" on="0"/>
        <pt x="1136" y="1794" on="1"/>
        <pt x="1163" y="1794" on="0"/>
        <pt x="1163" y="1771" on="1"/>
        <pt x="1163" y="1726" on="0"/>
        <pt x="914" y="1522" on="1"/>
        <pt x="864" y="1481" on="0"/>
        <pt x="815" y="1481" on="1"/>
        <pt x="808" y="1482" on="1"/>
      </contour>
      <contour>
        <pt x="1195" y="1353" on="1"/>
        <pt x="1277" y="1353" on="0"/>
        <pt x="1277" y="1323" on="1"/>
        <pt x="1277" y="1297" on="1"/>
        <pt x="1277" y="1272" on="0"/>
        <pt x="1076" y="1032" on="1"/>
        <pt x="1020" y="968" on="1"/>
        <pt x="965" y="905" on="0"/>
        <pt x="854" y="778" on="0"/>
        <pt x="755" y="642" on="0"/>
        <pt x="623" y="506" on="0"/>
        <pt x="343" y="156" on="0"/>
        <pt x="343" y="133" on="1"/>
        <pt x="343" y="99" on="0"/>
        <pt x="531" y="99" on="1"/>
        <pt x="571" y="99" on="0"/>
        <pt x="612" y="98" on="1"/>
        <pt x="695" y="96" on="1"/>
        <pt x="855" y="96" on="0"/>
        <pt x="989" y="153" on="0"/>
        <pt x="1032" y="216" on="1"/>
        <pt x="1108" y="328" on="0"/>
        <pt x="1136" y="328" on="1"/>
        <pt x="1158" y="328" on="0"/>
        <pt x="1158" y="207" on="0"/>
        <pt x="1098" y="28" on="0"/>
        <pt x="1035" y="-30" on="0"/>
        <pt x="930" y="-30" on="1"/>
        <pt x="890" y="-30" on="1"/>
        <pt x="834" y="-30" on="0"/>
        <pt x="558" y="-13" on="0"/>
        <pt x="443" y="-13" on="1"/>
        <pt x="402" y="-12" on="1"/>
        <pt x="361" y="-11" on="0"/>
        <pt x="321" y="-11" on="1"/>
        <pt x="282" y="-12" on="1"/>
        <pt x="201" y="-16" on="1"/>
        <pt x="91" y="-16" on="0"/>
        <pt x="47" y="17" on="0"/>
        <pt x="47" y="54" on="1"/>
        <pt x="47" y="115" on="0"/>
        <pt x="480" y="635" on="1"/>
        <pt x="494" y="651" on="0"/>
        <pt x="536" y="693" on="1"/>
        <pt x="592" y="749" on="1"/>
        <pt x="646" y="806" on="0"/>
        <pt x="964" y="1172" on="0"/>
        <pt x="964" y="1183" on="1"/>
        <pt x="964" y="1219" on="0"/>
        <pt x="907" y="1234" on="0"/>
        <pt x="825" y="1234" on="1"/>
        <pt x="742" y="1236" on="1"/>
        <pt x="547" y="1236" on="0"/>
        <pt x="424" y="1172" on="0"/>
        <pt x="315" y="1003" on="0"/>
        <pt x="283" y="1003" on="1"/>
        <pt x="267" y="1003" on="0"/>
        <pt x="267" y="1162" on="0"/>
        <pt x="316" y="1306" on="0"/>
        <pt x="332" y="1322" on="1"/>
        <pt x="362" y="1351" on="0"/>
        <pt x="626" y="1351" on="1"/>
        <pt x="666" y="1350" on="1"/>
        <pt x="706" y="1349" on="0"/>
        <pt x="747" y="1349" on="1"/>
        <pt x="829" y="1347" on="1"/>
        <pt x="953" y="1348" on="1"/>
        <pt x="1117" y="1353" on="1"/>
      </contour>
    </TTGlyph>
    <TTGlyph name="a" xMin="63" yMin="10" xMax="963" yMax="921">
      <contour>
        <pt x="362" y="127" on="1"/>
        <pt x="379" y="127" on="1"/>
        <pt x="421" y="127" on="0"/>
        <pt x="569" y="235" on="0"/>
        <pt x="605" y="303" on="1"/>
        <pt x="722" y="524" on="0"/>
        <pt x="722" y="690" on="1"/>
        <pt x="724" y="708" on="1"/>
        <pt x="725" y="735" on="1"/>
        <pt x="725" y="826" on="0"/>
        <pt x="619" y="826" on="1"/>
        <pt x="591" y="826" on="1"/>
        <pt x="535" y="826" on="0"/>
        <pt x="410" y="743" on="0"/>
        <pt x="366" y="678" on="1"/>
        <pt x="254" y="515" on="0"/>
        <pt x="254" y="331" on="1"/>
        <pt x="254" y="312" on="1"/>
        <pt x="254" y="227" on="0"/>
        <pt x="314" y="127" on="0"/>
      </contour>
      <contour>
        <pt x="586" y="921" on="1"/>
        <pt x="623" y="921" on="1"/>
        <pt x="644" y="921" on="0"/>
        <pt x="759" y="898" on="0"/>
        <pt x="813" y="898" on="1"/>
        <pt x="845" y="903" on="1"/>
        <pt x="864" y="906" on="0"/>
        <pt x="890" y="906" on="1"/>
        <pt x="938" y="906" on="0"/>
        <pt x="938" y="842" on="1"/>
        <pt x="938" y="815" on="0"/>
        <pt x="825" y="313" on="0"/>
        <pt x="825" y="181" on="0"/>
        <pt x="883" y="181" on="1"/>
        <pt x="908" y="182" on="1"/>
        <pt x="922" y="183" on="1"/>
        <pt x="963" y="183" on="0"/>
        <pt x="963" y="154" on="1"/>
        <pt x="963" y="142" on="1"/>
        <pt x="963" y="98" on="0"/>
        <pt x="826" y="17" on="0"/>
        <pt x="696" y="17" on="0"/>
        <pt x="647" y="77" on="0"/>
        <pt x="619" y="189" on="0"/>
        <pt x="608" y="189" on="0"/>
        <pt x="469" y="75" on="0"/>
        <pt x="346" y="10" on="0"/>
        <pt x="277" y="10" on="1"/>
        <pt x="259" y="10" on="1"/>
        <pt x="175" y="10" on="0"/>
        <pt x="63" y="152" on="0"/>
        <pt x="63" y="274" on="1"/>
        <pt x="63" y="394" on="0"/>
        <pt x="107" y="510" on="1"/>
        <pt x="198" y="749" on="0"/>
        <pt x="406" y="865" on="1"/>
        <pt x="506" y="921" on="0"/>
      </contour>
    </TTGlyph>
    <TTGlyph name="aacute" xMin="62" yMin="23" xMax="968" yMax="1442">
      <contour>
        <pt x="723" y="740" on="1"/>
        <pt x="723" y="757" on="1"/>
        <pt x="723" y="797" on="0"/>
        <pt x="658" y="840" on="0"/>
        <pt x="608" y="840" on="1"/>
        <pt x="599" y="840" on="1"/>
        <pt x="590" y="839" on="1"/>
        <pt x="533" y="839" on="0"/>
        <pt x="408" y="756" on="0"/>
        <pt x="364" y="691" on="1"/>
        <pt x="252" y="528" on="0"/>
        <pt x="252" y="334" on="1"/>
        <pt x="252" y="325" on="1"/>
        <pt x="252" y="237" on="0"/>
        <pt x="315" y="140" on="0"/>
        <pt x="419" y="140" on="0"/>
        <pt x="491" y="193" on="1"/>
        <pt x="627" y="293" on="0"/>
        <pt x="690" y="536" on="1"/>
        <pt x="723" y="661" on="0"/>
      </contour>
      <contour>
        <pt x="968" y="1398" on="1"/>
        <pt x="968" y="1388" on="1"/>
        <pt x="968" y="1359" on="0"/>
        <pt x="655" y="1081" on="0"/>
        <pt x="626" y="1081" on="1"/>
        <pt x="621" y="1082" on="1"/>
        <pt x="616" y="1082" on="1"/>
        <pt x="581" y="1082" on="0"/>
        <pt x="581" y="1106" on="1"/>
        <pt x="581" y="1167" on="0"/>
        <pt x="764" y="1376" on="1"/>
        <pt x="822" y="1442" on="0"/>
        <pt x="863" y="1442" on="1"/>
        <pt x="885" y="1442" on="1"/>
        <pt x="968" y="1442" on="0"/>
      </contour>
      <contour>
        <pt x="585" y="934" on="1"/>
        <pt x="621" y="934" on="1"/>
        <pt x="630" y="934" on="0"/>
        <pt x="759" y="912" on="0"/>
        <pt x="811" y="912" on="1"/>
        <pt x="843" y="916" on="1"/>
        <pt x="875" y="920" on="0"/>
        <pt x="888" y="920" on="1"/>
        <pt x="936" y="920" on="0"/>
        <pt x="936" y="841" on="1"/>
        <pt x="936" y="821" on="0"/>
        <pt x="823" y="332" on="0"/>
        <pt x="823" y="193" on="0"/>
        <pt x="870" y="193" on="1"/>
        <pt x="914" y="197" on="0"/>
        <pt x="920" y="197" on="1"/>
        <pt x="961" y="197" on="0"/>
        <pt x="961" y="167" on="1"/>
        <pt x="961" y="156" on="1"/>
        <pt x="961" y="108" on="0"/>
        <pt x="818" y="30" on="0"/>
        <pt x="696" y="30" on="0"/>
        <pt x="647" y="87" on="0"/>
        <pt x="617" y="202" on="0"/>
        <pt x="605" y="202" on="0"/>
        <pt x="459" y="83" on="0"/>
        <pt x="339" y="23" on="0"/>
        <pt x="275" y="23" on="1"/>
        <pt x="176" y="23" on="0"/>
        <pt x="62" y="162" on="0"/>
        <pt x="62" y="276" on="1"/>
        <pt x="62" y="317" on="1"/>
        <pt x="62" y="411" on="0"/>
        <pt x="153" y="651" on="0"/>
        <pt x="309" y="826" on="0"/>
        <pt x="503" y="934" on="0"/>
      </contour>
    </TTGlyph>
    <TTGlyph name="acircumflex" xMin="69" yMin="20" xMax="969" yMax="1460">
      <contour>
        <pt x="730" y="728" on="1"/>
        <pt x="730" y="754" on="1"/>
        <pt x="730" y="793" on="0"/>
        <pt x="668" y="837" on="0"/>
        <pt x="616" y="837" on="1"/>
        <pt x="606" y="837" on="1"/>
        <pt x="553" y="837" on="0"/>
        <pt x="424" y="764" on="0"/>
        <pt x="377" y="696" on="1"/>
        <pt x="260" y="526" on="0"/>
        <pt x="260" y="350" on="1"/>
        <pt x="260" y="312" on="1"/>
        <pt x="260" y="236" on="0"/>
        <pt x="320" y="137" on="0"/>
        <pt x="431" y="137" on="0"/>
        <pt x="575" y="250" on="0"/>
        <pt x="666" y="412" on="0"/>
        <pt x="730" y="655" on="0"/>
      </contour>
      <contour>
        <pt x="729" y="1460" on="1"/>
        <pt x="736" y="1460" on="1"/>
        <pt x="769" y="1460" on="0"/>
        <pt x="793" y="1425" on="1"/>
        <pt x="803" y="1412" on="0"/>
        <pt x="877" y="1242" on="0"/>
        <pt x="932" y="1133" on="0"/>
        <pt x="932" y="1124" on="1"/>
        <pt x="932" y="1089" on="0"/>
        <pt x="853" y="1089" on="0"/>
        <pt x="712" y="1286" on="0"/>
        <pt x="685" y="1286" on="0"/>
        <pt x="586" y="1195" on="0"/>
        <pt x="573" y="1185" on="1"/>
        <pt x="456" y="1093" on="0"/>
        <pt x="399" y="1093" on="0"/>
        <pt x="399" y="1130" on="0"/>
        <pt x="534" y="1278" on="0"/>
        <pt x="570" y="1323" on="1"/>
        <pt x="678" y="1460" on="0"/>
      </contour>
      <contour>
        <pt x="592" y="931" on="1"/>
        <pt x="629" y="931" on="1"/>
        <pt x="640" y="931" on="0"/>
        <pt x="764" y="909" on="0"/>
        <pt x="819" y="909" on="1"/>
        <pt x="850" y="913" on="1"/>
        <pt x="881" y="917" on="0"/>
        <pt x="896" y="917" on="1"/>
        <pt x="943" y="917" on="0"/>
        <pt x="943" y="838" on="1"/>
        <pt x="943" y="814" on="0"/>
        <pt x="830" y="324" on="0"/>
        <pt x="830" y="271" on="1"/>
        <pt x="830" y="190" on="0"/>
        <pt x="878" y="190" on="1"/>
        <pt x="922" y="194" on="0"/>
        <pt x="928" y="194" on="1"/>
        <pt x="969" y="194" on="0"/>
        <pt x="969" y="164" on="1"/>
        <pt x="969" y="153" on="1"/>
        <pt x="969" y="106" on="0"/>
        <pt x="828" y="27" on="0"/>
        <pt x="701" y="27" on="0"/>
        <pt x="655" y="84" on="0"/>
        <pt x="625" y="199" on="0"/>
        <pt x="615" y="199" on="0"/>
        <pt x="458" y="76" on="0"/>
        <pt x="349" y="20" on="0"/>
        <pt x="282" y="20" on="1"/>
        <pt x="183" y="20" on="0"/>
        <pt x="69" y="159" on="0"/>
        <pt x="69" y="273" on="1"/>
        <pt x="69" y="293" on="1"/>
        <pt x="69" y="404" on="0"/>
        <pt x="113" y="520" on="1"/>
        <pt x="203" y="756" on="0"/>
        <pt x="395" y="866" on="1"/>
        <pt x="508" y="931" on="0"/>
      </contour>
    </TTGlyph>
    <TTGlyph name="acute" xMin="282" yMin="1074" xMax="669" yMax="1436">
      <contour>
        <pt x="336" y="1074" on="1"/>
        <pt x="321" y="1074" on="1"/>
        <pt x="282" y="1074" on="0"/>
        <pt x="282" y="1100" on="1"/>
        <pt x="282" y="1161" on="0"/>
        <pt x="469" y="1375" on="1"/>
        <pt x="522" y="1436" on="0"/>
        <pt x="571" y="1436" on="1"/>
        <pt x="587" y="1436" on="1"/>
        <pt x="669" y="1436" on="0"/>
        <pt x="669" y="1396" on="1"/>
        <pt x="669" y="1382" on="1"/>
        <pt x="669" y="1353" on="0"/>
        <pt x="355" y="1074" on="0"/>
      </contour>
    </TTGlyph>
    <TTGlyph name="adieresis" xMin="67" yMin="28" xMax="980" yMax="1369">
      <contour>
        <pt x="258" y="320" on="1"/>
        <pt x="258" y="245" on="0"/>
        <pt x="318" y="145" on="0"/>
        <pt x="374" y="145" on="1"/>
        <pt x="382" y="146" on="1"/>
        <pt x="428" y="146" on="0"/>
        <pt x="498" y="198" on="1"/>
        <pt x="632" y="297" on="0"/>
        <pt x="696" y="541" on="1"/>
        <pt x="729" y="666" on="0"/>
        <pt x="729" y="796" on="0"/>
        <pt x="708" y="814" on="1"/>
        <pt x="671" y="845" on="0"/>
        <pt x="614" y="845" on="1"/>
        <pt x="487" y="845" on="0"/>
        <pt x="381" y="712" on="1"/>
        <pt x="328" y="646" on="0"/>
        <pt x="261" y="444" on="0"/>
        <pt x="261" y="396" on="1"/>
        <pt x="260" y="386" on="1"/>
        <pt x="259" y="377" on="1"/>
        <pt x="258" y="349" on="1"/>
      </contour>
      <contour>
        <pt x="393" y="1255" on="1"/>
        <pt x="393" y="1255" on="0"/>
        <pt x="395" y="1273" on="1"/>
        <pt x="395" y="1301" on="0"/>
        <pt x="462" y="1368" on="0"/>
        <pt x="499" y="1368" on="1"/>
        <pt x="520" y="1368" on="1"/>
        <pt x="532" y="1365" on="0"/>
        <pt x="555" y="1365" on="0"/>
        <pt x="608" y="1312" on="0"/>
        <pt x="608" y="1280" on="1"/>
        <pt x="608" y="1251" on="1"/>
        <pt x="608" y="1213" on="0"/>
        <pt x="541" y="1146" on="0"/>
        <pt x="518" y="1146" on="1"/>
        <pt x="501" y="1143" on="1"/>
        <pt x="476" y="1143" on="1"/>
        <pt x="470" y="1145" on="0"/>
        <pt x="446" y="1145" on="0"/>
        <pt x="392" y="1199" on="0"/>
        <pt x="392" y="1234" on="1"/>
        <pt x="392" y="1252" on="1"/>
      </contour>
      <contour>
        <pt x="872" y="1143" on="1"/>
        <pt x="851" y="1143" on="1"/>
        <pt x="839" y="1146" on="0"/>
        <pt x="816" y="1146" on="0"/>
        <pt x="762" y="1200" on="0"/>
        <pt x="762" y="1238" on="1"/>
        <pt x="762" y="1253" on="1"/>
        <pt x="763" y="1256" on="1"/>
        <pt x="763" y="1263" on="1"/>
        <pt x="765" y="1271" on="0"/>
        <pt x="765" y="1274" on="1"/>
        <pt x="765" y="1302" on="0"/>
        <pt x="829" y="1366" on="0"/>
        <pt x="855" y="1366" on="1"/>
        <pt x="876" y="1369" on="1"/>
        <pt x="887" y="1369" on="1"/>
        <pt x="929" y="1369" on="0"/>
        <pt x="980" y="1305" on="0"/>
        <pt x="980" y="1266" on="1"/>
        <pt x="979" y="1263" on="1"/>
        <pt x="979" y="1256" on="1"/>
        <pt x="975" y="1231" on="1"/>
        <pt x="975" y="1209" on="0"/>
        <pt x="909" y="1143" on="0"/>
      </contour>
      <contour>
        <pt x="941" y="846" on="1"/>
        <pt x="941" y="828" on="0"/>
        <pt x="917" y="721" on="1"/>
        <pt x="881" y="562" on="1"/>
        <pt x="828" y="297" on="0"/>
        <pt x="828" y="279" on="1"/>
        <pt x="828" y="198" on="0"/>
        <pt x="876" y="198" on="1"/>
        <pt x="899" y="200" on="1"/>
        <pt x="926" y="201" on="1"/>
        <pt x="967" y="201" on="0"/>
        <pt x="967" y="172" on="1"/>
        <pt x="967" y="160" on="1"/>
        <pt x="967" y="116" on="0"/>
        <pt x="830" y="35" on="0"/>
        <pt x="699" y="35" on="0"/>
        <pt x="653" y="92" on="0"/>
        <pt x="623" y="207" on="0"/>
        <pt x="609" y="207" on="0"/>
        <pt x="467" y="90" on="0"/>
        <pt x="350" y="28" on="0"/>
        <pt x="181" y="28" on="0"/>
        <pt x="67" y="167" on="0"/>
        <pt x="67" y="281" on="1"/>
        <pt x="67" y="301" on="1"/>
        <pt x="67" y="412" on="0"/>
        <pt x="111" y="528" on="1"/>
        <pt x="200" y="761" on="0"/>
        <pt x="393" y="874" on="1"/>
        <pt x="504" y="939" on="0"/>
        <pt x="590" y="939" on="1"/>
        <pt x="627" y="939" on="1"/>
        <pt x="638" y="939" on="0"/>
        <pt x="762" y="917" on="0"/>
        <pt x="817" y="917" on="1"/>
        <pt x="894" y="925" on="1"/>
        <pt x="941" y="925" on="0"/>
      </contour>
    </TTGlyph>
    <TTGlyph name="ae" xMin="63" yMin="5" xMax="1318" yMax="920">
      <contour>
        <pt x="346" y="151" on="1"/>
        <pt x="370" y="151" on="1"/>
        <pt x="403" y="151" on="0"/>
        <pt x="526" y="238" on="0"/>
        <pt x="595" y="368" on="0"/>
        <pt x="698" y="719" on="0"/>
        <pt x="698" y="739" on="1"/>
        <pt x="698" y="746" on="1"/>
        <pt x="698" y="765" on="0"/>
        <pt x="643" y="807" on="0"/>
        <pt x="601" y="807" on="1"/>
        <pt x="584" y="807" on="1"/>
        <pt x="545" y="807" on="0"/>
        <pt x="423" y="737" on="0"/>
        <pt x="372" y="661" on="1"/>
        <pt x="258" y="490" on="0"/>
        <pt x="258" y="338" on="1"/>
        <pt x="256" y="320" on="1"/>
        <pt x="256" y="285" on="1"/>
        <pt x="258" y="267" on="0"/>
        <pt x="258" y="259" on="1"/>
        <pt x="258" y="220" on="0"/>
        <pt x="316" y="151" on="0"/>
      </contour>
      <contour>
        <pt x="1028" y="841" on="1"/>
        <pt x="966" y="841" on="0"/>
        <pt x="808" y="638" on="0"/>
        <pt x="808" y="546" on="1"/>
        <pt x="808" y="543" on="1"/>
        <pt x="809" y="539" on="1"/>
        <pt x="809" y="502" on="0"/>
        <pt x="837" y="502" on="1"/>
        <pt x="861" y="502" on="1"/>
        <pt x="881" y="507" on="0"/>
        <pt x="898" y="507" on="1"/>
        <pt x="985" y="507" on="0"/>
        <pt x="1068" y="614" on="1"/>
        <pt x="1128" y="691" on="0"/>
        <pt x="1128" y="756" on="1"/>
        <pt x="1130" y="768" on="1"/>
        <pt x="1130" y="784" on="1"/>
        <pt x="1130" y="843" on="0"/>
        <pt x="1085" y="843" on="1"/>
        <pt x="1045" y="843" on="1"/>
        <pt x="1033" y="841" on="0"/>
      </contour>
      <contour>
        <pt x="591" y="194" on="1"/>
        <pt x="574" y="194" on="0"/>
        <pt x="439" y="73" on="0"/>
        <pt x="320" y="5" on="0"/>
        <pt x="167" y="5" on="0"/>
        <pt x="63" y="139" on="0"/>
        <pt x="63" y="237" on="1"/>
        <pt x="63" y="263" on="1"/>
        <pt x="64" y="364" on="0"/>
        <pt x="110" y="480" on="1"/>
        <pt x="211" y="730" on="0"/>
        <pt x="441" y="846" on="1"/>
        <pt x="535" y="893" on="0"/>
        <pt x="648" y="893" on="1"/>
        <pt x="692" y="889" on="1"/>
        <pt x="732" y="889" on="0"/>
        <pt x="816" y="909" on="0"/>
        <pt x="844" y="909" on="0"/>
        <pt x="895" y="893" on="0"/>
        <pt x="915" y="881" on="0"/>
        <pt x="929" y="881" on="1"/>
        <pt x="969" y="893" on="1"/>
        <pt x="1074" y="920" on="0"/>
        <pt x="1212" y="920" on="0"/>
        <pt x="1318" y="836" on="0"/>
        <pt x="1318" y="734" on="1"/>
        <pt x="1318" y="543" on="0"/>
        <pt x="944" y="457" on="1"/>
        <pt x="845" y="434" on="0"/>
        <pt x="827" y="424" on="1"/>
        <pt x="781" y="398" on="0"/>
        <pt x="781" y="351" on="1"/>
        <pt x="781" y="244" on="0"/>
        <pt x="866" y="132" on="0"/>
        <pt x="995" y="132" on="0"/>
        <pt x="1177" y="204" on="0"/>
        <pt x="1207" y="204" on="0"/>
        <pt x="1207" y="195" on="1"/>
        <pt x="1207" y="139" on="0"/>
        <pt x="1055" y="57" on="1"/>
        <pt x="962" y="7" on="0"/>
        <pt x="872" y="7" on="1"/>
        <pt x="714" y="7" on="0"/>
        <pt x="646" y="137" on="1"/>
        <pt x="615" y="194" on="0"/>
      </contour>
    </TTGlyph>
    <TTGlyph name="agrave" xMin="67" yMin="20" xMax="967" yMax="1452">
      <contour>
        <pt x="366" y="137" on="1"/>
        <pt x="383" y="137" on="1"/>
        <pt x="425" y="137" on="0"/>
        <pt x="569" y="242" on="0"/>
        <pt x="643" y="375" on="0"/>
        <pt x="726" y="623" on="0"/>
        <pt x="726" y="700" on="1"/>
        <pt x="728" y="718" on="1"/>
        <pt x="729" y="745" on="1"/>
        <pt x="729" y="836" on="0"/>
        <pt x="623" y="836" on="1"/>
        <pt x="595" y="836" on="1"/>
        <pt x="539" y="836" on="0"/>
        <pt x="414" y="753" on="0"/>
        <pt x="370" y="688" on="1"/>
        <pt x="258" y="525" on="0"/>
        <pt x="258" y="340" on="1"/>
        <pt x="258" y="321" on="1"/>
        <pt x="258" y="237" on="0"/>
        <pt x="318" y="137" on="0"/>
      </contour>
      <contour>
        <pt x="704" y="1081" on="1"/>
        <pt x="694" y="1081" on="1"/>
        <pt x="654" y="1081" on="0"/>
        <pt x="420" y="1382" on="0"/>
        <pt x="420" y="1395" on="1"/>
        <pt x="421" y="1400" on="1"/>
        <pt x="421" y="1452" on="0"/>
        <pt x="508" y="1452" on="1"/>
        <pt x="524" y="1452" on="1"/>
        <pt x="580" y="1452" on="0"/>
        <pt x="608" y="1401" on="1"/>
        <pt x="740" y="1163" on="0"/>
        <pt x="740" y="1114" on="1"/>
        <pt x="739" y="1110" on="1"/>
        <pt x="739" y="1105" on="1"/>
        <pt x="739" y="1081" on="0"/>
      </contour>
      <contour>
        <pt x="590" y="931" on="1"/>
        <pt x="627" y="931" on="1"/>
        <pt x="648" y="931" on="0"/>
        <pt x="763" y="908" on="0"/>
        <pt x="817" y="908" on="1"/>
        <pt x="849" y="913" on="1"/>
        <pt x="868" y="916" on="0"/>
        <pt x="894" y="916" on="1"/>
        <pt x="942" y="916" on="0"/>
        <pt x="942" y="852" on="1"/>
        <pt x="942" y="821" on="0"/>
        <pt x="886" y="578" on="1"/>
        <pt x="830" y="334" on="0"/>
        <pt x="829" y="261" on="1"/>
        <pt x="829" y="190" on="0"/>
        <pt x="887" y="190" on="1"/>
        <pt x="923" y="193" on="0"/>
        <pt x="926" y="193" on="1"/>
        <pt x="967" y="193" on="0"/>
        <pt x="967" y="164" on="1"/>
        <pt x="967" y="152" on="1"/>
        <pt x="967" y="108" on="0"/>
        <pt x="830" y="27" on="0"/>
        <pt x="700" y="27" on="0"/>
        <pt x="651" y="87" on="0"/>
        <pt x="623" y="199" on="0"/>
        <pt x="612" y="199" on="0"/>
        <pt x="473" y="85" on="0"/>
        <pt x="350" y="20" on="0"/>
        <pt x="281" y="20" on="1"/>
        <pt x="263" y="20" on="1"/>
        <pt x="169" y="20" on="0"/>
        <pt x="67" y="173" on="0"/>
        <pt x="67" y="397" on="0"/>
        <pt x="109" y="516" on="1"/>
        <pt x="192" y="752" on="0"/>
        <pt x="410" y="875" on="1"/>
        <pt x="510" y="931" on="0"/>
      </contour>
    </TTGlyph>
    <TTGlyph name="ampersand" xMin="124" yMin="-5" xMax="1471" yMax="1414">
      <contour>
        <pt x="659" y="1037" on="1"/>
        <pt x="659" y="974" on="0"/>
        <pt x="706" y="904" on="1"/>
        <pt x="723" y="879" on="0"/>
        <pt x="731" y="879" on="1"/>
        <pt x="736" y="880" on="1"/>
        <pt x="741" y="880" on="1"/>
        <pt x="806" y="880" on="0"/>
        <pt x="956" y="1073" on="0"/>
        <pt x="956" y="1131" on="1"/>
        <pt x="958" y="1143" on="1"/>
        <pt x="959" y="1168" on="1"/>
        <pt x="959" y="1174" on="1"/>
        <pt x="959" y="1232" on="0"/>
        <pt x="896" y="1304" on="0"/>
        <pt x="852" y="1304" on="1"/>
        <pt x="822" y="1304" on="1"/>
        <pt x="764" y="1304" on="0"/>
        <pt x="659" y="1186" on="0"/>
        <pt x="659" y="1122" on="1"/>
        <pt x="656" y="1093" on="1"/>
        <pt x="656" y="1065" on="1"/>
        <pt x="659" y="1047" on="0"/>
      </contour>
      <contour>
        <pt x="582" y="111" on="1"/>
        <pt x="607" y="111" on="1"/>
        <pt x="684" y="111" on="0"/>
        <pt x="862" y="194" on="0"/>
        <pt x="862" y="234" on="1"/>
        <pt x="862" y="240" on="1"/>
        <pt x="862" y="253" on="0"/>
        <pt x="830" y="295" on="1"/>
        <pt x="761" y="392" on="1"/>
        <pt x="759" y="395" on="0"/>
        <pt x="750" y="409" on="1"/>
        <pt x="741" y="424" on="0"/>
        <pt x="736" y="430" on="1"/>
        <pt x="676" y="522" on="1"/>
        <pt x="672" y="529" on="1"/>
        <pt x="590" y="657" on="0"/>
        <pt x="568" y="657" on="1"/>
        <pt x="562" y="657" on="1"/>
        <pt x="507" y="657" on="0"/>
        <pt x="423" y="535" on="1"/>
        <pt x="366" y="453" on="0"/>
        <pt x="366" y="364" on="1"/>
        <pt x="366" y="330" on="1"/>
        <pt x="366" y="243" on="0"/>
        <pt x="487" y="111" on="0"/>
      </contour>
      <contour>
        <pt x="1336" y="78" on="0"/>
        <pt x="1336" y="67" on="0"/>
        <pt x="1325" y="63" on="1"/>
        <pt x="1216" y="22" on="0"/>
        <pt x="1109" y="22" on="1"/>
        <pt x="1070" y="22" on="0"/>
        <pt x="943" y="75" on="0"/>
        <pt x="891" y="75" on="0"/>
        <pt x="676" y="-5" on="0"/>
        <pt x="578" y="-5" on="1"/>
        <pt x="512" y="-5" on="1"/>
        <pt x="235" y="-5" on="0"/>
        <pt x="152" y="171" on="1"/>
        <pt x="124" y="231" on="0"/>
        <pt x="124" y="296" on="1"/>
        <pt x="124" y="420" on="0"/>
        <pt x="238" y="596" on="0"/>
        <pt x="325" y="663" on="1"/>
        <pt x="468" y="773" on="0"/>
        <pt x="468" y="843" on="0"/>
        <pt x="443" y="950" on="0"/>
        <pt x="443" y="1032" on="1"/>
        <pt x="443" y="1185" on="0"/>
        <pt x="552" y="1294" on="1"/>
        <pt x="612" y="1354" on="0"/>
        <pt x="763" y="1414" on="0"/>
        <pt x="824" y="1414" on="1"/>
        <pt x="860" y="1414" on="1"/>
        <pt x="968" y="1414" on="0"/>
        <pt x="1100" y="1288" on="0"/>
        <pt x="1100" y="1087" on="0"/>
        <pt x="893" y="842" on="0"/>
        <pt x="893" y="680" on="0"/>
        <pt x="999" y="494" on="0"/>
        <pt x="1047" y="494" on="1"/>
        <pt x="1057" y="494" on="0"/>
        <pt x="1154" y="608" on="0"/>
        <pt x="1154" y="668" on="1"/>
        <pt x="1154" y="686" on="0"/>
        <pt x="1151" y="703" on="1"/>
        <pt x="1146" y="724" on="1"/>
        <pt x="1138" y="753" on="0"/>
        <pt x="1138" y="761" on="1"/>
        <pt x="1138" y="795" on="0"/>
        <pt x="1172" y="807" on="1"/>
        <pt x="1231" y="828" on="0"/>
        <pt x="1429" y="828" on="1"/>
        <pt x="1471" y="828" on="0"/>
        <pt x="1471" y="770" on="0"/>
        <pt x="1400" y="684" on="0"/>
        <pt x="1359" y="611" on="0"/>
        <pt x="1286" y="518" on="0"/>
        <pt x="1282" y="510" on="1"/>
        <pt x="1196" y="331" on="0"/>
        <pt x="1196" y="282" on="1"/>
        <pt x="1196" y="200" on="0"/>
        <pt x="1233" y="152" on="1"/>
        <pt x="1251" y="128" on="0"/>
      </contour>
    </TTGlyph>
    <TTGlyph name="aring" xMin="67" yMin="29" xMax="967" yMax="1475">
      <contour>
        <pt x="701" y="1392" on="1"/>
        <pt x="671" y="1392" on="0"/>
        <pt x="596" y="1332" on="0"/>
        <pt x="596" y="1289" on="1"/>
        <pt x="596" y="1257" on="1"/>
        <pt x="596" y="1222" on="0"/>
        <pt x="648" y="1170" on="0"/>
        <pt x="676" y="1170" on="1"/>
        <pt x="696" y="1170" on="1"/>
        <pt x="728" y="1170" on="0"/>
        <pt x="791" y="1233" on="0"/>
        <pt x="791" y="1263" on="1"/>
        <pt x="794" y="1276" on="1"/>
        <pt x="794" y="1283" on="1"/>
        <pt x="795" y="1294" on="1"/>
        <pt x="795" y="1338" on="0"/>
        <pt x="744" y="1389" on="0"/>
        <pt x="724" y="1389" on="1"/>
        <pt x="704" y="1392" on="1"/>
      </contour>
      <contour>
        <pt x="258" y="359" on="1"/>
        <pt x="258" y="321" on="1"/>
        <pt x="258" y="246" on="0"/>
        <pt x="318" y="146" on="0"/>
        <pt x="374" y="146" on="1"/>
        <pt x="382" y="146" on="1"/>
        <pt x="424" y="146" on="0"/>
        <pt x="496" y="198" on="1"/>
        <pt x="631" y="297" on="0"/>
        <pt x="696" y="542" on="1"/>
        <pt x="729" y="667" on="0"/>
        <pt x="729" y="797" on="0"/>
        <pt x="673" y="845" on="0"/>
        <pt x="623" y="845" on="1"/>
        <pt x="595" y="845" on="1"/>
        <pt x="550" y="844" on="0"/>
        <pt x="488" y="810" on="1"/>
        <pt x="358" y="737" on="0"/>
        <pt x="291" y="535" on="1"/>
        <pt x="258" y="436" on="0"/>
      </contour>
      <contour>
        <pt x="499" y="1251" on="1"/>
        <pt x="499" y="1270" on="1"/>
        <pt x="499" y="1349" on="0"/>
        <pt x="625" y="1475" on="0"/>
        <pt x="695" y="1475" on="1"/>
        <pt x="733" y="1475" on="1"/>
        <pt x="798" y="1475" on="0"/>
        <pt x="892" y="1369" on="0"/>
        <pt x="892" y="1304" on="1"/>
        <pt x="892" y="1298" on="1"/>
        <pt x="891" y="1291" on="1"/>
        <pt x="891" y="1220" on="0"/>
        <pt x="772" y="1086" on="0"/>
        <pt x="689" y="1086" on="1"/>
        <pt x="663" y="1086" on="1"/>
        <pt x="597" y="1086" on="0"/>
        <pt x="499" y="1184" on="0"/>
      </contour>
      <contour>
        <pt x="941" y="847" on="1"/>
        <pt x="941" y="830" on="0"/>
        <pt x="828" y="327" on="0"/>
        <pt x="828" y="233" on="0"/>
        <pt x="853" y="200" on="0"/>
        <pt x="899" y="200" on="1"/>
        <pt x="926" y="202" on="1"/>
        <pt x="967" y="202" on="0"/>
        <pt x="967" y="173" on="1"/>
        <pt x="967" y="161" on="1"/>
        <pt x="967" y="117" on="0"/>
        <pt x="830" y="36" on="0"/>
        <pt x="699" y="36" on="0"/>
        <pt x="653" y="93" on="0"/>
        <pt x="623" y="208" on="0"/>
        <pt x="609" y="208" on="0"/>
        <pt x="467" y="91" on="0"/>
        <pt x="350" y="29" on="0"/>
        <pt x="181" y="29" on="0"/>
        <pt x="67" y="168" on="0"/>
        <pt x="67" y="282" on="1"/>
        <pt x="67" y="302" on="1"/>
        <pt x="67" y="414" on="0"/>
        <pt x="111" y="530" on="1"/>
        <pt x="200" y="763" on="0"/>
        <pt x="393" y="875" on="1"/>
        <pt x="504" y="940" on="0"/>
        <pt x="590" y="940" on="1"/>
        <pt x="627" y="940" on="1"/>
        <pt x="638" y="940" on="0"/>
        <pt x="762" y="918" on="0"/>
        <pt x="817" y="918" on="1"/>
        <pt x="894" y="926" on="1"/>
        <pt x="941" y="926" on="0"/>
      </contour>
    </TTGlyph>
    <TTGlyph name="asciicircum" xMin="179" yMin="732" xMax="917" yMax="1351">
      <contour>
        <pt x="618" y="1351" on="1"/>
        <pt x="629" y="1351" on="1"/>
        <pt x="661" y="1351" on="0"/>
        <pt x="699" y="1265" on="1"/>
        <pt x="917" y="770" on="0"/>
        <pt x="917" y="769" on="1"/>
        <pt x="917" y="759" on="1"/>
        <pt x="917" y="732" on="0"/>
        <pt x="819" y="732" on="0"/>
        <pt x="786" y="781" on="1"/>
        <pt x="740" y="850" on="0"/>
        <pt x="600" y="1166" on="0"/>
        <pt x="582" y="1166" on="1"/>
        <pt x="576" y="1166" on="0"/>
        <pt x="316" y="792" on="0"/>
        <pt x="304" y="778" on="1"/>
        <pt x="267" y="734" on="0"/>
        <pt x="179" y="734" on="0"/>
        <pt x="179" y="755" on="1"/>
        <pt x="179" y="810" on="0"/>
        <pt x="535" y="1300" on="1"/>
        <pt x="572" y="1351" on="0"/>
      </contour>
    </TTGlyph>
</ttFont>
